<?xml version="1.0" standalone="no"?>
<!DOCTYPE svg PUBLIC "-//W3C//DTD SVG 20010904//EN"
 "http://www.w3.org/TR/2001/REC-SVG-20010904/DTD/svg10.dtd">
<svg version="1.0" xmlns="http://www.w3.org/2000/svg"
 width="512.000000pt" height="512.000000pt" viewBox="0 0 512.000000 512.000000"
 preserveAspectRatio="xMidYMid meet">
<metadata>
Created by potrace 1.14, written by Peter Selinger 2001-2017
</metadata>
<g transform="translate(0.000000,512.000000) scale(0.100000,-0.100000)"
fill="#000000" stroke="none">
<path d="M0 2560 l0 -2560 2560 0 2560 0 0 2560 0 2560 -2560 0 -2560 0 0
-2560z m2770 1995 l0 -85 -85 0 -85 0 0 78 c0 43 3 82 7 85 3 4 42 7 85 7 l78
0 0 -85z m29 -199 c95 -48 148 -142 138 -241 -6 -63 -47 -145 -90 -181 l-29
-24 31 -26 c83 -70 -12 -126 -120 -71 l-45 22 -39 -22 c-104 -59 -206 7 -119
76 l26 20 -37 37 c-104 103 -107 272 -8 366 74 70 202 89 292 44z m1415 -185
c21 -22 36 -46 33 -53 -9 -24 -178 -268 -185 -268 -4 0 -45 38 -92 85 -54 54
-81 88 -75 94 20 20 260 181 270 181 6 0 28 -18 49 -39z m-2784 -26 l55 -55
-120 -120 -120 -120 -60 60 -60 60 115 115 c63 63 119 115 125 115 6 0 35 -25
65 -55z m229 -217 c107 -10 140 -29 254 -146 61 -62 87 -97 87 -114 0 -18 -41
-64 -158 -181 -88 -87 -166 -157 -177 -157 -23 0 -211 184 -235 230 -10 19
-21 70 -25 113 -5 48 -16 94 -29 120 l-22 42 70 72 69 72 41 -21 c25 -13 75
-24 125 -30z m2260 -62 l83 -83 -7 -59 c-4 -32 -13 -70 -20 -84 -8 -14 -78
-89 -157 -167 -119 -117 -150 -143 -173 -143 -24 0 -52 23 -152 123 -100 100
-123 128 -123 152 0 23 25 54 142 171 77 79 155 150 172 158 17 9 58 16 91 16
l60 0 84 -84z m-1164 -284 c114 -80 116 -250 4 -332 -151 -109 -358 37 -309
219 14 54 72 117 125 137 57 21 130 11 180 -24z m-427 -113 c112 -55 141 -214
56 -309 -49 -55 -94 -73 -165 -68 -108 8 -184 90 -183 198 1 154 152 246 292
179z m799 10 c68 -25 123 -110 123 -189 0 -112 -89 -200 -200 -200 -213 0
-276 285 -85 384 35 18 121 21 162 5z m-1129 -314 c76 -32 121 -102 122 -189
1 -172 -199 -265 -327 -153 -75 66 -92 158 -45 248 47 91 157 132 250 94z
m1440 -1 c136 -56 171 -226 67 -329 -143 -144 -376 -13 -333 188 25 118 156
187 266 141z m-2037 -331 c11 -12 14 -58 14 -193 0 -135 -3 -181 -14 -193 -12
-15 -42 -17 -241 -17 l-228 0 -57 51 -56 52 3 115 3 116 53 43 53 43 228 0
c200 0 230 -2 242 -17z m2830 -1 c20 -10 59 -37 86 -61 28 -23 72 -50 99 -60
l49 -19 0 -97 0 -98 -45 -13 c-25 -7 -69 -33 -99 -59 -92 -79 -97 -80 -269
-80 -140 0 -155 2 -168 19 -11 16 -14 65 -14 235 0 185 2 217 17 233 14 16 33
18 162 18 122 0 153 -3 182 -18z m-3491 -192 l0 -129 -32 6 c-18 4 -94 18
-168 32 l-135 26 0 65 0 65 160 31 c88 18 163 32 168 33 4 0 7 -57 7 -129z
m3978 -42 l2 -168 -85 0 -85 0 0 170 0 171 83 -3 82 -3 3 -167z m-2818 128
c90 -59 115 -192 52 -281 -44 -63 -94 -86 -173 -83 -75 4 -120 28 -160 86 -20
30 -24 48 -24 113 0 71 2 80 31 116 69 86 186 107 274 49z m1678 19 c143 -60
164 -250 39 -349 -36 -29 -45 -31 -117 -31 -72 0 -81 2 -117 31 -122 97 -106
282 32 345 49 23 113 24 163 4z m-1582 -426 c38 -12 93 -64 110 -106 20 -47
17 -127 -6 -172 -75 -148 -286 -147 -356 2 -42 92 -23 183 52 245 57 48 115
56 200 31z m1475 -16 c124 -72 125 -261 1 -342 -74 -49 -167 -40 -236 20 -184
162 24 446 235 322z m-1124 -319 c154 -122 76 -364 -117 -364 -213 0 -275 282
-85 385 21 11 49 15 97 13 57 -3 73 -8 105 -34z m808 13 c54 -31 94 -90 101
-153 5 -43 2 -62 -19 -107 -64 -139 -243 -157 -341 -34 -23 29 -31 50 -34 96
-2 32 1 74 7 93 14 41 64 96 106 114 49 21 134 17 180 -9z m-400 -135 c114
-80 116 -250 4 -332 -151 -109 -358 37 -309 219 14 54 72 117 125 137 57 21
130 11 180 -24z m1157 -150 l158 -158 0 -79 0 -80 -77 -77 -78 -78 -53 0 c-30
0 -69 7 -87 16 -50 24 -325 307 -325 335 0 33 246 279 280 279 17 0 66 -42
182 -158z m-2155 -4 c143 -144 157 -162 154 -197 -2 -21 -161 -180 -209 -208
-32 -19 -66 -28 -129 -34 -56 -6 -98 -16 -124 -31 l-40 -22 -70 70 -71 71 22
43 c13 26 25 74 30 125 5 46 14 94 20 107 7 13 58 69 113 126 76 76 108 102
127 102 19 0 61 -36 177 -152z m2498 -511 l88 -129 -45 -45 -46 -45 -78 53
c-44 29 -107 72 -142 97 l-64 45 88 88 c69 69 91 86 100 76 6 -6 51 -70 99
-140z m-2978 31 c62 -62 113 -118 113 -124 0 -6 -25 -35 -56 -64 l-56 -53
-114 114 c-63 62 -114 118 -114 124 0 10 100 115 110 115 2 0 55 -51 117 -112z
m1645 75 c16 -14 18 -33 18 -160 0 -165 -5 -182 -74 -263 -26 -30 -55 -76 -64
-102 l-17 -48 -102 0 c-86 0 -103 3 -103 15 0 25 -35 87 -76 136 -65 78 -74
107 -74 259 0 194 -20 180 252 180 192 0 224 -2 240 -17z m-62 -732 c0 -108
12 -101 -176 -101 l-164 0 0 85 0 85 170 0 170 0 0 -69z"/>
</g>
</svg>
