<svg xmlns="http://www.w3.org/2000/svg" width="200" height="170" viewBox="0 0 200 170"><path fill="#2E84A8" fill-rule="evenodd" d="M8.00138653,2.57378953 C8.35842257,2.44383904 8.75320316,2.62792825 8.88315365,2.98496429 L10.9570234,8.68287468 C10.9675927,8.71191361 10.967775,8.74220096 10.959468,8.76966689 C14.7060311,9.22122301 18.4226492,12.2958493 19.8906559,16.9350899 C21.2368593,21.1894038 20.7877638,25.4696545 18.8055143,28.2409967 C18.9530864,28.256699 19.102103,28.2780483 19.2520914,28.3052523 C21.4759803,28.7086083 23.0713772,30.2463398 22.815532,31.7398755 C22.5596431,33.2334035 20.5494038,34.1171657 18.3255149,33.7138097 C17.4650341,33.5577407 16.698646,33.2318422 16.0989826,32.8037304 C15.9129976,33.5177949 15.5353938,34.2600723 14.9765465,34.9327345 C13.532221,36.6712113 11.424217,37.2863672 10.2681734,36.3067406 C9.11215835,35.3270799 9.34586856,33.1236079 10.790194,31.3851311 C10.8915033,31.2631892 10.9960779,31.146774 11.1033909,31.0373312 C7.80862078,30.1829556 4.71914135,27.1951848 3.01799037,23.0762379 C1.16054426,18.5788583 2.03122605,13.8346745 4.6109515,11.0797304 C4.58702621,11.0646036 4.5676975,11.041285 4.55712819,11.012246 L2.48325841,5.31433565 C2.35330792,4.95729962 2.53739713,4.56251903 2.89443317,4.43256854 L8.00138653,2.57378953 Z M165.626521,113.449855 C165.983557,113.319905 166.378337,113.503994 166.508288,113.86103 L168.582158,119.55894 C168.592727,119.587979 168.592909,119.618267 168.584602,119.645732 C172.331165,120.097289 176.047783,123.171915 177.51579,127.811156 C178.861993,132.065469 178.412898,136.34572 176.430648,139.117062 C176.578221,139.132765 176.727237,139.154114 176.877226,139.181318 C179.101114,139.584674 180.696511,141.122405 180.440666,142.615941 C180.184777,144.109469 178.174538,144.993231 175.950649,144.589875 C175.090168,144.433806 174.32378,144.107908 173.724117,143.679796 C173.538132,144.39386 173.160528,145.136138 172.601681,145.8088 C171.157355,147.547277 169.049351,148.162433 167.893308,147.182806 C166.737292,146.203146 166.971003,143.999674 168.415328,142.261197 C168.516637,142.139255 168.621212,142.02284 168.728525,141.913397 C165.433755,141.059021 162.344275,138.07125 160.643124,133.952304 C158.785678,129.454924 159.65636,124.71074 162.236086,121.955796 C162.21216,121.940669 162.192832,121.917351 162.182262,121.888312 L160.108393,116.190401 C159.978442,115.833365 160.162531,115.438585 160.519567,115.308634 L165.626521,113.449855 Z M92.8863785,57.7121573 C92.5293425,57.5822068 92.1345619,57.766296 92.0046114,58.123332 L89.9307416,63.8212424 C89.9201723,63.8502814 89.91999,63.8805687 89.928297,63.9080346 C86.1817339,64.3595908 82.4651159,67.434217 80.9971091,72.0734577 C79.6509057,76.3277716 80.1000012,80.6080222 82.0822508,83.3793644 C81.9346787,83.3950668 81.785662,83.4164161 81.6356736,83.4436201 C79.4117848,83.8469761 77.8163879,85.3847075 78.072233,86.8782433 C78.3281219,88.3717713 80.3383613,89.2555334 82.5622501,88.8521774 C83.4227309,88.6961084 84.189119,88.37021 84.7887824,87.9420981 C84.9747674,88.6561626 85.3523713,89.3984401 85.9112186,90.0711023 C87.355544,91.8095791 89.4635481,92.4247349 90.6195917,91.4451083 C91.7756067,90.4654477 91.5418965,88.2619757 90.097571,86.5234989 C89.9962617,86.4015569 89.8916871,86.2851418 89.7843741,86.175699 C93.0791443,85.3213233 96.1686237,82.3335525 97.8697747,78.2146057 C99.7272208,73.7172261 98.856539,68.9730422 96.2768135,66.2180981 C96.3007388,66.2029714 96.3200675,66.1796527 96.3306369,66.1506138 L98.4045066,60.4527034 C98.5344571,60.0956674 98.3503679,59.7008868 97.9933319,59.5709363 L92.8863785,57.7121573 Z M127.549455,61.2109184 C127.645398,61.194001 127.70946,61.1025097 127.692543,61.0065668 L126.95529,56.8253968 C126.870703,56.345682 126.413247,56.0253674 125.933532,56.109954 L119.075152,57.3192714 C118.595437,57.4038581 118.275123,57.8613148 118.35971,58.3410296 L119.096963,62.5221995 C119.11388,62.6181425 119.205371,62.6822054 119.301314,62.6652881 L120.013149,62.5397725 L119.997097,65.3452227 C119.991053,66.4016106 119.795279,67.4483211 119.419103,68.4354804 L117.627816,73.1361643 C117.060504,74.6249002 116.907022,76.2394999 117.183673,77.8084618 L119.432975,90.5648868 C119.678276,91.9560596 121.0049,92.8849721 122.396073,92.6396708 L135.065087,90.4057819 C136.456259,90.1604806 137.385172,88.8338561 137.139871,87.4426833 L134.897389,74.7249404 C134.61644,73.1315973 133.902635,71.6462306 132.834083,70.4313762 L129.592021,66.7454226 C128.839613,65.8899979 128.260054,64.8969092 127.885375,63.8210446 L127.009532,61.3061213 L127.549455,61.2109184 Z M169.855277,56.3373456 C169.808885,56.329415 169.761374,56.3308424 169.715543,56.3415484 C169.525805,56.3858702 169.407921,56.5756133 169.451525,56.7655193 C169.541437,57.1677154 169.575164,57.5668168 169.552705,57.9628235 C169.524614,58.4581456 169.39104,59.2586494 169.151981,60.3643347 C168.999617,60.3816167 168.870815,60.4963315 168.842977,60.6542078 L168.768941,61.0740884 C168.679005,61.5841415 168.534204,62.0829801 168.337061,62.5619137 L163.45183,74.4299486 C163.329754,74.7239234 163.200622,75.0149301 163.062687,75.3018067 C161.897028,77.7475051 161.087504,80.2559999 160.634116,82.827291 C160.233208,85.1009514 160.110761,87.4237119 160.266776,89.7955727 C160.3198,90.6072411 160.92105,91.2773296 161.722226,91.4178095 L169.658553,92.8171981 C170.459459,92.9592085 171.253633,92.535171 171.581067,91.7905874 C172.538896,89.6151274 173.218265,87.3905673 173.619173,85.1169069 C174.072561,82.5456158 174.169813,79.9115282 173.910929,77.2146444 C173.87943,76.8978922 173.857616,76.5802696 173.843447,76.2622711 L173.311939,63.4391189 C173.29049,62.9216417 173.325035,62.4033619 173.414971,61.8933087 L173.489007,61.4734281 C173.518484,61.3062548 173.425032,61.1458391 173.273585,61.0849192 C173.353414,60.2673369 173.510346,59.4730722 173.742589,58.7016129 C173.890572,58.2100437 174.036648,57.8356412 174.180817,57.5784054 C174.200318,57.5438848 174.21394,57.5063531 174.221038,57.4673458 C174.25592,57.2756476 174.128795,57.0919679 173.937098,57.0570808 Z M51.8238137,56.6084904 C51.3385522,56.6509453 50.9795865,57.078744 51.0220414,57.5640055 L51.3694716,61.5258008 L50.4824448,61.6038404 L51.2047063,69.8593266 C51.318981,71.1654924 50.9572711,72.4689447 50.1862449,73.5294382 C49.4152188,74.5899318 49.0535089,75.8933841 49.1677836,77.1995499 L50.4573913,91.9398335 C50.4998462,92.425095 50.9276449,92.7840607 51.4129064,92.7416058 L60.9996537,91.9028741 C61.4849152,91.8604192 61.8438809,91.4326206 61.8014261,90.947359 L60.5118184,76.2070755 C60.3975437,74.9009097 59.8149868,73.68007 58.8715215,72.769575 C57.9280563,71.85908 57.3454994,70.6382403 57.2312247,69.3320745 L56.5089633,61.0765883 L55.6232229,61.1536458 L55.2760544,57.1918276 C55.2335995,56.7065661 54.8058009,56.3476004 54.3205393,56.3900552 L51.8238137,56.6084904 Z M13.7357258,57.2113934 C13.3188871,57.1378935 12.9104962,57.3784554 12.7726951,57.7786648 L10.6353004,63.9879615 L8.97737549,63.6960424 C8.69036733,63.6454351 8.39724882,63.7435402 8.19852805,63.9567181 L5.26958085,67.0987497 C4.70260406,67.7069747 4.32402137,68.4664632 4.17963206,69.2853356 L0.944606225,87.6320789 C0.697035519,89.0361221 1.63454175,90.3750198 3.03858499,90.6225905 L13.3000711,92.4319673 C14.7041143,92.679538 16.043012,91.7420318 16.2905827,90.3379886 L19.4926957,72.1779033 C19.6574888,71.2433153 19.5086591,70.2804647 19.0693769,69.4392498 L16.9857158,65.4490889 C16.8620655,65.2123015 16.635457,65.0463688 16.3723866,64.9999824 L15.2717753,64.8054971 L15.3862837,58.239511 C15.3936728,57.8163064 15.0921879,57.4505743 14.6753492,57.3770744 L13.7357258,57.2113934 Z M58.2032615,37.501303 L45.5342481,35.2674141 C44.1430753,35.0221128 43.2141629,33.6954884 43.4594642,32.3043155 L45.7019454,19.5865727 C45.9828948,17.9932295 46.6966995,16.5078628 47.7652517,15.2930084 L51.007314,11.6070548 C51.7597218,10.7516302 52.3392812,9.75854144 52.71396,8.68267687 L53.5898029,6.16775357 L53.5898029,6.16775357 L60.5861862,7.40140471 L60.6022376,10.2068549 C60.6082817,11.2632429 60.804056,12.3099533 61.1802322,13.2971126 L62.9715187,17.9977966 C63.5388303,19.4865325 63.6923123,21.1011321 63.415662,22.6700941 L61.1663601,35.426519 C60.9210588,36.8176919 59.5944344,37.7466043 58.2032615,37.501303 Z M61.2980206,7.52692031 L53.0498802,6.07255062 C52.9539372,6.05563329 52.8898743,5.96414195 52.9067916,5.868199 L53.6440447,1.68702904 C53.7286314,1.20731426 54.1860881,0.886999635 54.6658028,0.971586293 L61.5241825,2.18090367 C62.0038973,2.26549033 62.3242119,2.72294703 62.2396253,3.2026618 L61.5023722,7.38383176 C61.4854548,7.47977472 61.3939635,7.54383764 61.2980206,7.52692031 Z M7.9230671,148.377369 L20.5920805,146.14348 C21.9832533,145.898178 22.9121657,144.571554 22.6668644,143.180381 L20.4243832,130.462638 C20.1434338,128.869295 19.4296291,127.383928 18.3610769,126.169074 L15.1190146,122.48312 C14.3666068,121.627696 13.7870474,120.634607 13.4123686,119.558742 L12.5365257,117.043819 L12.5365257,117.043819 L5.54014242,118.27747 L5.52409101,121.082921 C5.51804688,122.139308 5.32227261,123.186019 4.94609646,124.173178 L3.15480992,128.873862 C2.58749831,130.362598 2.4340163,131.977198 2.71066662,133.54616 L4.95996852,146.302585 C5.20526983,147.693757 6.53189425,148.62267 7.9230671,148.377369 Z M4.82830807,118.402986 L13.0764484,116.948616 C13.1723914,116.931699 13.2364543,116.840208 13.219537,116.744265 L12.4822839,112.563095 C12.3976972,112.08338 11.9402405,111.763065 11.4605258,111.847652 L4.60214611,113.056969 C4.12243133,113.141556 3.80211671,113.599013 3.88670337,114.078727 L4.62395644,118.259897 C4.64087377,118.35584 4.73236511,118.419903 4.82830807,118.402986 Z M88.6576221,1.19897785 C88.7040145,1.19104723 88.7515249,1.19247467 88.7973564,1.20318066 C88.9870946,1.24750246 89.1049778,1.43724554 89.0613746,1.62715154 C88.9714621,2.02934762 88.9377352,2.42844901 88.9601938,2.82445573 C88.9882849,3.31977789 89.1218596,4.12028163 89.3609179,5.22596695 C89.5132824,5.24324894 89.6420839,5.35796374 89.6699217,5.51584002 L89.743958,5.9357206 C89.8338941,6.44577376 89.978695,6.94461239 90.1758381,7.42354594 L95.0610689,19.2915809 C95.1831453,19.5855556 95.3122771,19.8765624 95.4502117,20.1634389 C96.6158715,22.6091373 97.4253954,25.1176321 97.8787834,27.6889232 C98.2796911,29.9625836 98.4021377,32.2853442 98.2461233,34.657205 C98.1930992,35.4688734 97.591849,36.1389619 96.7906733,36.2794417 L88.8543459,37.6788304 C88.05344,37.8208407 87.2592659,37.3968032 86.9318326,36.6522197 C85.9740028,34.4767597 85.2946341,32.2521995 84.8937264,29.9785391 C84.4403384,27.407248 84.3430863,24.7731605 84.6019702,22.0762766 C84.6334687,21.7595244 84.6552827,21.4419018 84.6694518,21.1239034 L85.2009601,8.30075117 C85.222409,7.78327394 85.1878645,7.26499413 85.0979284,6.75494096 L85.0238921,6.33506039 C84.994415,6.16788706 85.0878675,6.00747137 85.2393139,5.94655149 C85.1594854,5.12896916 85.0025532,4.33470441 84.7703106,3.56324519 C84.6223269,3.07167593 84.4762507,2.69727343 84.332082,2.44003769 C84.3125813,2.40551708 84.2989591,2.36798532 84.2918612,2.32897809 C84.2569792,2.13727981 84.3841039,1.95360019 84.5758013,1.91871299 Z M126.703149,112.075043 C126.656757,112.067113 126.609246,112.06854 126.563415,112.079246 C126.373677,112.123568 126.255793,112.313311 126.299397,112.503217 C126.389309,112.905413 126.423036,113.304515 126.400577,113.700521 C126.372486,114.195843 126.238912,114.996347 125.999853,116.102033 C125.847489,116.119315 125.718687,116.234029 125.690849,116.391906 L125.616813,116.811786 C125.526877,117.321839 125.382076,117.820678 125.184933,118.299612 L120.299702,130.167646 C120.177626,130.461621 120.048494,130.752628 119.91056,131.039505 C118.7449,133.485203 117.935376,135.993698 117.481988,138.564989 C117.08108,140.838649 116.958633,143.16141 117.114648,145.533271 C117.167672,146.344939 117.768922,147.015027 118.570098,147.155507 L126.506425,148.554896 C127.307331,148.696906 128.101505,148.272869 128.428939,147.528285 C129.386768,145.352825 130.066137,143.128265 130.467045,140.854605 C130.920433,138.283314 131.017685,135.649226 130.758801,132.952342 C130.727303,132.63559 130.705488,132.317967 130.691319,131.999969 L130.159811,119.176817 C130.138362,118.65934 130.172907,118.14106 130.262843,117.631007 L130.336879,117.211126 C130.366356,117.043953 130.272904,116.883537 130.121457,116.822617 C130.201286,116.005035 130.358218,115.21077 130.590461,114.439311 C130.738444,113.947742 130.88452,113.573339 131.028689,113.316103 C131.04819,113.281583 131.061812,113.244051 131.06891,113.205044 C131.103792,113.013345 130.976667,112.829666 130.78497,112.794779 Z M128.775521,1.47012267 C129.260783,1.51257755 129.619748,1.94037623 129.577293,2.42563776 L129.229863,6.38743305 L130.11689,6.46547261 L129.394629,14.7209588 C129.280354,16.0271246 129.642064,17.3305769 130.41309,18.3910705 C131.184116,19.451564 131.545826,20.7550164 131.431551,22.0611822 L130.141943,36.8014657 C130.099489,37.2867272 129.67169,37.645693 129.186428,37.6032381 L119.599681,36.7645064 C119.11442,36.7220515 118.755454,36.2942528 118.797909,35.8089913 L120.087516,21.0687077 C120.201791,19.7625419 120.784348,18.5417022 121.727813,17.6312072 C122.671278,16.7207123 123.253835,15.4998726 123.36811,14.1937068 L124.090372,5.93822056 L124.976112,6.01527803 L125.32328,2.05345984 C125.365735,1.56819831 125.793534,1.2092326 126.278795,1.25168749 L128.775521,1.47012267 Z M87.1845853,112.346188 C86.6993238,112.388643 86.340358,112.816442 86.3828129,113.301703 L86.7302431,117.263499 L85.8432163,117.341538 L86.5654778,125.597024 C86.6797525,126.90319 86.3180426,128.206643 85.5470165,129.267136 C84.7759904,130.32763 84.4142805,131.631082 84.5285552,132.937248 L85.8181629,147.677531 C85.8606177,148.162793 86.2884164,148.521759 86.7736779,148.479304 L96.3604252,147.640572 C96.8456868,147.598117 97.2046525,147.170318 97.1621976,146.685057 L95.8725899,131.944773 C95.7583152,130.638608 95.1757583,129.417768 94.2322931,128.507273 C93.2888278,127.596778 92.706271,126.375938 92.5919963,125.069772 L91.8697348,116.814286 L90.9839945,116.891344 L90.636826,112.929525 C90.5943711,112.444264 90.1665724,112.085298 89.6813109,112.127753 L87.1845853,112.346188 Z M166.264274,2.07302567 C166.681113,1.99952576 167.089503,2.24008762 167.227305,2.64029709 L169.364699,8.84959375 L171.022624,8.55767466 C171.309632,8.50706738 171.602751,8.60517245 171.801472,8.81835039 L174.730419,11.9603819 C175.297396,12.5686069 175.675978,13.3280955 175.820368,14.1469679 L179.055393,32.4937111 C179.302964,33.8977544 178.365458,35.236652 176.961415,35.4842227 L166.699929,37.2935996 C165.295885,37.5411703 163.956988,36.6036641 163.709417,35.1996208 L160.507304,17.0395355 C160.342511,16.1049476 160.491341,15.1420969 160.930623,14.300882 L163.014284,10.3107212 C163.137934,10.0739337 163.364543,9.90800105 163.627613,9.86161465 L164.728224,9.66712937 L164.613716,3.10114327 C164.606327,2.67793864 164.907812,2.31220655 165.32465,2.23870663 L166.264274,2.07302567 Z M57.4871889,112.949091 C57.0703502,112.875591 56.6619593,113.116153 56.5241582,113.516363 L54.3867635,119.725659 L52.7288386,119.43374 C52.4418304,119.383133 52.1487119,119.481238 51.9499911,119.694416 L49.0210439,122.836448 C48.4540671,123.444673 48.0754845,124.204161 47.9310951,125.023033 L44.6960693,143.369777 C44.4484986,144.77382 45.3860048,146.112718 46.7900481,146.360288 L57.0515342,148.169665 C58.4555774,148.417236 59.7944751,147.47973 60.0420458,146.075686 L63.2441588,127.915601 C63.4089518,126.981013 63.2601222,126.018162 62.82084,125.176948 L60.7371789,121.186787 C60.6135286,120.949999 60.3869201,120.784067 60.1238497,120.73768 L59.0232384,120.543195 L59.1377468,113.977209 C59.1451359,113.554004 58.843651,113.188272 58.4268123,113.114772 L57.4871889,112.949091 Z"/></svg>