<svg xmlns="http://www.w3.org/2000/svg" viewBox="0 0 328 145"><path fill="#fff" d="M30.4 117.26c0-.08.01-.28.03-.6.02-.32.03-.52.03-.6 0-.2-.01-.41-.03-.63-.02-.22-.03-.45-.03-.69-.04-.32-.07-.59-.09-.81-.02-.22-.03-.44-.03-.66v-1.77c0-.12-.01-.35-.03-.69-.02-.34-.03-.69-.03-1.05 0-.36-.01-.71-.03-1.05-.02-.34-.03-.57-.03-.69v-.57c0-.26.01-.54.03-.84.02-.3.03-.59.03-.87v-.6c0-.16-.01-.41-.03-.75-.02-.34-.03-.7-.03-1.08 0-.38-.01-.74-.03-1.08-.02-.34-.03-.57-.03-.69 0-.8.3-1.34.9-1.62.6-.28 1.52-.42 2.76-.42.08 0 .2.01.36.03.16.02.34.03.54.03.2.04.39.07.57.09.18.02.31.03.39.03.12 0 .31-.01.57-.03.26-.02.55-.05.87-.09.32-.04.61-.07.87-.09.26-.02.43-.03.51-.03.4 0 .84.16 1.32.48.48.32.72.8.72 1.44 0 .16-.02.53-.06 1.11-.04.58-.06.97-.06 1.17 0 .12.01.34.03.66.02.32.03.66.03 1.02s.01.7.03 1.02c.02.32.03.54.03.66v.57c0 .26-.01.55-.03.87-.02.32-.03.62-.03.9v.6c0 .12.02.4.06.84.04.44.06.72.06.84 0 .2-.01.37-.03.51-.02.14-.03.29-.03.45 0 .08.01.25.03.51.02.26.03.43.03.51 0 .12-.01.38-.03.78-.02.4-.03.66-.03.78v.66c0 .32.01.67.03 1.05.02.38.04.74.06 1.08.02.34.03.57.03.69v.6c0 .28-.01.59-.03.93-.02.34-.03.66-.03.96v.63c0 .12-.01.31-.03.57-.02.26-.03.54-.03.84 0 .3-.01.59-.03.87-.02.28-.03.48-.03.6 0 .16.01.51.03 1.05.02.54.03.89.03 1.05 0 .24-.01.47-.03.69-.02.22-.03.43-.03.63v1.8c0 .2-.02.57-.06 1.11-.04.54-.06.97-.06 1.29-.08.72-.14 1.28-.18 1.68-.04.4-.09.74-.15 1.02s-.15.55-.27.81c-.12.26-.3.59-.54.99-.56 1-1.07 1.79-1.53 2.37-.46.58-1.05 1.07-1.77 1.47-.4.2-.91.39-1.53.57-.62.18-1.11.31-1.47.39-.12.04-.35.07-.69.09l-1.05.06c-.36.02-.69.04-.99.06-.3.02-.47.03-.51.03h-2.67c-.34 0-.7.01-1.08.03-.38.02-.74.03-1.08.03h-.75c-.8 0-1.36-.29-1.68-.87-.32-.58-.48-1.23-.48-1.95 0-.08.01-.28.03-.6.02-.32.04-.66.06-1.02l.06-1.05c.02-.34.03-.59.03-.75.08-.56.13-.99.15-1.29.02-.3.03-.55.03-.75 0-.8.27-1.26.81-1.38.54-.12 1.61-.18 3.21-.18.2 0 .36-.01.48-.03.12-.02.34-.07.66-.15.44-.12.82-.28 1.14-.48.32-.2.64-.66.96-1.38.08-.2.17-.48.27-.84s.19-.73.27-1.11c.08-.38.14-.74.18-1.08.04-.34.06-.59.06-.75v-1.38c0-.44.02-.88.06-1.32.04-.44.06-.88.06-1.32 0-.16-.02-.5-.06-1.02-.04-.52-.06-.86-.06-1.02 0-.16.02-.49.06-.99.04-.5.06-.83.06-.99v-.9Zm28.62-17.7c.12 0 .44-.02.96-.06.52-.04.86-.06 1.02-.06.16 0 .51-.01 1.05-.03.54-.02.91-.03 1.11-.03.12 0 .36.01.72.03.36.02.74.04 1.14.06.4.02.78.04 1.14.06.36.02.62.03.78.03.2 0 .6-.02 1.2-.06.6-.04 1-.06 1.2-.06.72 0 1.24.18 1.56.54.32.36.48.84.48 1.44 0 .12-.01.42-.03.9-.02.48-.03.8-.03.96 0 .12.01.31.03.57.02.26.04.54.06.84.02.3.04.58.06.84.02.26.03.45.03.57 0 .36-.03.61-.09.75s-.25.41-.57.81c-.16.2-.27.33-.33.39s-.21.13-.45.21c-.24.08-.46.15-.66.21s-.46.09-.78.09c-.16 0-.46-.01-.9-.03-.44-.02-.74-.03-.9-.03-.08 0-.25.01-.51.03-.26.02-.53.03-.81.03s-.55.01-.81.03c-.26.02-.45.03-.57.03-.28 0-.5-.02-.66-.06-.28 0-.54-.02-.78-.06-.24-.04-.5-.08-.78-.12-.28-.04-.54-.06-.78-.06h-.78c-1.68 0-2.82.18-3.42.54-.6.36-.9 1.16-.9 2.4 0 .72.01 1.32.03 1.8.02.48.09.88.21 1.2.12.32.32.57.6.75.28.18.66.31 1.14.39.68.08 1.12.13 1.32.15.2.02.5.03.9.03.12 0 .33-.01.63-.03.3-.02.62-.04.96-.06l.99-.06c.32-.02.54-.03.66-.03a15.208 15.208 0 0 1 1.35.12c.3.04.58.07.84.09.26.02.45.03.57.03.4 0 .8-.02 1.2-.06.4-.04.8-.06 1.2-.06h.9c.36 0 .62.04.78.12.08.08.28.26.6.54.32.28.48.7.48 1.26-.04.28-.06.52-.06.72 0 .2-.01.39-.03.57-.02.18-.03.31-.03.39-.04.48-.06.84-.06 1.08v1.32c0 .24-.01.42-.03.54-.02.12-.05.34-.09.66-.04.2-.09.42-.15.66-.06.24-.18.47-.36.69-.18.22-.43.41-.75.57-.32.16-.78.24-1.38.24h-3.06c-.12 0-.38-.01-.78-.03-.4-.02-.66-.03-.78-.03-.08 0-.29.01-.63.03-.34.02-.55.03-.63.03-.12 0-.43-.03-.93-.09s-.83-.09-.99-.09c-.32 0-.62.02-.9.06-.28.04-.58.06-.9.06h-.48c-.2 0-.43.03-.69.09-.26.06-.45.13-.57.21-.28.12-.49.29-.63.51-.14.22-.24.46-.3.72-.06.26-.1.51-.12.75-.02.24-.03.42-.03.54 0 .96.02 1.77.06 2.43.04.66.21 1.19.51 1.59.3.4.78.69 1.44.87.66.18 1.59.27 2.79.27.2 0 .61-.01 1.23-.03.62-.02 1.03-.03 1.23-.03.16 0 .49.01.99.03.5.02.85.03 1.05.03h.63c.3 0 .62-.01.96-.03.34-.02.66-.04.96-.06.3-.02.51-.03.63-.03.2-.04.41-.06.63-.06h.63c.16 0 .54.06 1.14.18.6.12 1.04.44 1.32.96.2.44.32.9.36 1.38.04.48.06.86.06 1.14v.42c.04.28.09.56.15.84.06.28.11.56.15.84v1.56c0 .2-.01.41-.03.63-.02.22-.1.43-.24.63-.14.2-.35.37-.63.51s-.66.21-1.14.21c-.08 0-.21-.01-.39-.03-.18-.02-.37-.03-.57-.03-.2-.04-.41-.06-.63-.06h-.45c-.08 0-.25.01-.51.03-.26.02-.55.03-.87.03-.32.04-.61.07-.87.09-.26.02-.45.03-.57.03-.08 0-.25-.01-.51-.03-.26-.02-.55-.03-.87-.03-.32-.04-.61-.06-.87-.06h-.57c-.04 0-.32.01-.84.03-.52.02-1.1.03-1.74.03a78.283 78.283 0 0 1-3 .12c-.2 0-.54-.01-1.02-.03-.48-.02-1-.05-1.56-.09-.56 0-1.09-.01-1.59-.03-.5-.02-.85-.03-1.05-.03H50.5c-.4.04-.78.06-1.14.06h-.78c-.16 0-.41-.02-.75-.06-.34-.04-.67-.2-.99-.48-.24-.2-.46-.52-.66-.96-.2-.44-.3-.88-.3-1.32 0-.12.01-.39.03-.81.02-.42.03-.69.03-.81 0-.36-.02-.71-.06-1.05-.04-.34-.06-.69-.06-1.05v-1.08c0-.12-.01-.3-.03-.54-.02-.24-.03-.51-.03-.81 0-.3-.01-.57-.03-.81a7.12 7.12 0 0 1-.03-.54c0-.52.01-1.12.03-1.8.02-.68.03-1.28.03-1.8 0-.12.01-.38.03-.78.02-.4.03-.66.03-.78v-.48c0-.24-.01-.49-.03-.75-.02-.26-.03-.51-.03-.75v-.54c0-.16-.01-.52-.03-1.08-.02-.56-.03-.94-.03-1.14V117.05c0-.14.02-.31.06-.51 0-.12.02-.39.06-.81.04-.42.06-.69.06-.81 0-.2-.03-.62-.09-1.26s-.09-1.06-.09-1.26c0-.48.02-.95.06-1.41.04-.46.06-.91.06-1.35 0-.08.01-.27.03-.57.02-.3.03-.62.03-.96 0-.34.01-.66.03-.96.02-.3.03-.49.03-.57 0-.12-.01-.32-.03-.6-.02-.28-.04-.59-.06-.93-.02-.34-.04-.65-.06-.93-.02-.28-.03-.48-.03-.6 0-.92.03-1.54.09-1.86.06-.32.13-.54.21-.66.08-.2.28-.5.6-.9.32-.4.82-.6 1.5-.6.2 0 .58.01 1.14.03.56.02.94.03 1.14.03.12 0 .34-.01.66-.03.32-.02.66-.03 1.02-.03s.71-.01 1.05-.03c.34-.02.57-.03.69-.03s.32.01.6.03c.28.02.57.03.87.03.3 0 .59.01.87.03.28.02.48.03.6.03h2.22Zm32.7 22.2c.2-.64.36-1.16.48-1.56.12-.4.21-.72.27-.96.06-.24.11-.43.15-.57.04-.14.1-.27.18-.39.08-.48.13-.82.15-1.02.02-.2.09-.54.21-1.02l.06-.72c0-.76-.09-1.6-.27-2.52-.18-.92-.39-1.9-.63-2.94l-.42-2.4-.54-1.8c-.08-.56-.14-1.02-.18-1.38-.04-.36-.14-1.06-.3-2.1-.08-.44-.14-.75-.18-.93-.04-.18-.08-.43-.12-.75l.78-.78 1.02-.24 2.55.21c.74.06 1.37.09 1.89.09l1.08-.12h1.02l.72.18c.28.32.46.53.54.63.08.1.18.27.3.51.08.56.14.94.18 1.14.04.2.1.56.18 1.08l.54 2.1.3 2.76c.12.44.22.81.3 1.11.08.3.16.64.24 1.02.08.38.17.83.27 1.35l.39 2.04c.28 1.04.51 2 .69 2.88.18.88.31 1.72.39 2.52.04.24.08.47.12.69.04.22.08.47.12.75l.15 1.05c.06.42.15.99.27 1.71.16.92.28 1.54.36 1.86.08.32.16.74.24 1.26.16.44.25.73.27.87.02.14.05.41.09.81l.24.48.36-.06c.32-.76.52-1.25.6-1.47.08-.22.16-.47.24-.75.08-.44.13-.75.15-.93.02-.18.11-.49.27-.93.04-.52.07-.87.09-1.05.02-.18.07-.43.15-.75 0-.12.03-.34.09-.66s.13-.66.21-1.02c.08-.36.15-.7.21-1.02.06-.32.09-.54.09-.66.16-.6.29-1.1.39-1.5.1-.4.2-.83.3-1.29.1-.46.2-.99.3-1.59.1-.6.25-1.38.45-2.34.16-.52.29-.95.39-1.29.1-.34.18-.64.24-.9s.12-.5.18-.72c.06-.22.13-.51.21-.87.08-.32.14-.59.18-.81.04-.22.09-.44.15-.66.06-.22.12-.48.18-.78.06-.3.13-.69.21-1.17.04-.28.11-.62.21-1.02.1-.4.2-.81.3-1.23a28.307 28.307 0 0 0 .45-2.31l.42-.6.48-.24c.64-.04 1.09-.07 1.35-.09l1.23-.09 1.14-.12c.16 0 .82.06 1.98.18h.63c.18 0 .55-.02 1.11-.06.28.2.47.35.57.45.1.1.27.29.51.57l.12.66c0 .32-.05.75-.15 1.29-.1.54-.25 1.21-.45 2.01-.12.56-.22 1.01-.3 1.35a29.26 29.26 0 0 0-.39 1.95c-.06.36-.15.82-.27 1.38-.16.68-.27 1.13-.33 1.35l-.27.99c-.04.32-.08.57-.12.75-.04.18-.14.55-.3 1.11l-.21.84c-.06.24-.19.72-.39 1.44a314.392 314.392 0 0 1-.75 3.6c-.18.84-.38 1.7-.6 2.58l-.57 2.28c-.2.68-.38 1.28-.54 1.8-.16.52-.31 1.04-.45 1.56s-.26 1.07-.36 1.65c-.1.58-.19 1.25-.27 2.01-.12.56-.22 1.01-.3 1.35l-.21.9c-.06.26-.11.52-.15.78-.04.26-.1.59-.18.99l-.3.9c-.08.24-.15.48-.21.72s-.14.52-.24.84c-.1.32-.21.74-.33 1.26l-.3 1.08-.48.66-.96.48c-.24.12-.45.21-.63.27-.18.06-.37.1-.57.12-.2.02-.44.03-.72.03l-1.68-.06h-3c-.68 0-1.44.02-2.28.06l-.78.12c-.32 0-.61-.04-.87-.12-.26-.08-.57-.22-.93-.42l-.54-.6c-.12-.32-.25-.73-.39-1.23s-.27-1-.39-1.5-.23-.95-.33-1.35l-.21-.84c-.2-.56-.32-.95-.36-1.17-.04-.22-.14-.55-.3-.99-.16-.48-.26-.8-.3-.96l-.18-.72-.48-.42-.42.48c-.12.32-.21.54-.27.66-.06.12-.15.34-.27.66-.12.52-.2.88-.24 1.08-.04.2-.16.54-.36 1.02-.12.44-.22.8-.3 1.08-.08.28-.14.51-.18.69-.04.18-.07.34-.09.48-.02.14-.05.29-.09.45-.12.56-.21.94-.27 1.14-.06.2-.15.54-.27 1.02l-.78 1.02-1.2.54c-.68-.08-1.16-.13-1.44-.15-.28-.02-.76-.03-1.44-.03l-1.98.12-1.74-.12c-.44.04-.74.06-.9.06h-.9c-.28-.2-.48-.34-.6-.42-.12-.08-.3-.22-.54-.42l-.84-1.38c-.32-1.6-.61-3.06-.87-4.38-.26-1.32-.49-2.5-.69-3.54l-1.32-4.98-.72-4.26c-.2-.76-.36-1.38-.48-1.86-.12-.48-.22-.9-.3-1.26-.08-.36-.17-.72-.27-1.08-.1-.36-.21-.82-.33-1.38-.12-.4-.22-.76-.3-1.08-.08-.32-.17-.67-.27-1.05s-.2-.84-.3-1.38c-.1-.54-.23-1.23-.39-2.07-.24-1.04-.43-1.89-.57-2.55l-.39-1.83a165.276 165.276 0 0 0-.96-4.2l-.18-1.26.06-.72.27-.45c.06-.1.17-.25.33-.45l.6-.18c.36.04.62.06.78.06.16 0 .42-.02.78-.06l.84.18h1.38c.24 0 .58-.04 1.02-.12.52.04.9.06 1.14.06.24 0 .64.02 1.2.06l.96.54.6.96c.16.72.29 1.3.39 1.74.1.44.18.81.24 1.11.06.3.1.56.12.78.02.22.05.49.09.81.08.36.13.69.15.99.02.3.13.93.33 1.89.28.92.57 1.94.87 3.06.3 1.12.57 2.2.81 3.24a17.228 17.228 0 0 1 .45 1.56c.06.24.12.5.18.78s.13.66.21 1.14c.08.44.15.8.21 1.08s.12.54.18.78.12.51.18.81c.06.3.15.69.27 1.17a26.348 26.348 0 0 1 .42 1.95c.04.22.08.43.12.63.04.2.08.44.12.72.08.48.14.82.18 1.02.04.2.16.54.36 1.02l.18.72.54.48c.2-.28.34-.53.42-.75.08-.22.22-.69.42-1.41.16-.4.25-.68.27-.84.02-.16.07-.46.15-.9.12-.36.21-.66.27-.9.06-.24.11-.47.15-.69.04-.22.08-.45.12-.69.04-.24.1-.54.18-.9Zm46.02-22.2c.12 0 .44-.02.96-.06.52-.04.86-.06 1.02-.06.16 0 .51-.01 1.05-.03.54-.02.91-.03 1.11-.03.12 0 .36.01.72.03.36.02.74.04 1.14.06.4.02.78.04 1.14.06.36.02.62.03.78.03.2 0 .6-.02 1.2-.06.6-.04 1-.06 1.2-.06.72 0 1.24.18 1.56.54.32.36.48.84.48 1.44 0 .12-.01.42-.03.9-.02.48-.03.8-.03.96 0 .12.01.31.03.57.02.26.04.54.06.84.02.3.04.58.06.84.02.26.03.45.03.57 0 .36-.03.61-.09.75s-.25.41-.57.81c-.16.2-.27.33-.33.39s-.21.13-.45.21c-.24.08-.46.15-.66.21s-.46.09-.78.09c-.16 0-.46-.01-.9-.03-.44-.02-.74-.03-.9-.03-.08 0-.25.01-.51.03-.26.02-.53.03-.81.03s-.55.01-.81.03c-.26.02-.45.03-.57.03-.28 0-.5-.02-.66-.06-.28 0-.54-.02-.78-.06-.24-.04-.5-.08-.78-.12-.28-.04-.54-.06-.78-.06h-.78c-1.68 0-2.82.18-3.42.54-.6.36-.9 1.16-.9 2.4 0 .72.01 1.32.03 1.8.02.48.09.88.21 1.2.12.32.32.57.6.75.28.18.66.31 1.14.39.68.08 1.12.13 1.32.15.2.02.5.03.9.03.12 0 .33-.01.63-.03.3-.02.62-.04.96-.06l.99-.06c.32-.02.54-.03.66-.03a15.208 15.208 0 0 1 1.35.12c.3.04.58.07.84.09.26.02.45.03.57.03.4 0 .8-.02 1.2-.06.4-.04.8-.06 1.2-.06h.9c.36 0 .62.04.78.12.08.08.28.26.6.54.32.28.48.7.48 1.26-.04.28-.06.52-.06.72 0 .2-.01.39-.03.57-.02.18-.03.31-.03.39-.04.48-.06.84-.06 1.08v1.32c0 .24-.01.42-.03.54-.02.12-.05.34-.09.66-.04.2-.09.42-.15.66-.06.24-.18.47-.36.69-.18.22-.43.41-.75.57-.32.16-.78.24-1.38.24h-3.06c-.12 0-.38-.01-.78-.03-.4-.02-.66-.03-.78-.03-.08 0-.29.01-.63.03-.34.02-.55.03-.63.03-.12 0-.43-.03-.93-.09s-.83-.09-.99-.09c-.32 0-.62.02-.9.06-.28.04-.58.06-.9.06h-.48c-.2 0-.43.03-.69.09-.26.06-.45.13-.57.21-.28.12-.49.29-.63.51-.14.22-.24.46-.3.72-.06.26-.1.51-.12.75-.02.24-.03.42-.03.54 0 .96.02 1.77.06 2.43.04.66.21 1.19.51 1.59.3.4.78.69 1.44.87.66.18 1.59.27 2.79.27.2 0 .61-.01 1.23-.03.62-.02 1.03-.03 1.23-.03.16 0 .49.01.99.03.5.02.85.03 1.05.03h.63c.3 0 .62-.01.96-.03.34-.02.66-.04.96-.06.3-.02.51-.03.63-.03.2-.04.41-.06.63-.06h.63c.16 0 .54.06 1.14.18.6.12 1.04.44 1.32.96.2.44.32.9.36 1.38.04.48.06.86.06 1.14v.42c.04.28.09.56.15.84.06.28.11.56.15.84v1.56c0 .2-.01.41-.03.63-.02.22-.1.43-.24.63-.14.2-.35.37-.63.51s-.66.21-1.14.21c-.08 0-.21-.01-.39-.03-.18-.02-.37-.03-.57-.03-.2-.04-.41-.06-.63-.06h-.45c-.08 0-.25.01-.51.03-.26.02-.55.03-.87.03-.32.04-.61.07-.87.09-.26.02-.45.03-.57.03-.08 0-.25-.01-.51-.03-.26-.02-.55-.03-.87-.03-.32-.04-.61-.06-.87-.06h-.57c-.04 0-.32.01-.84.03-.52.02-1.1.03-1.74.03a78.283 78.283 0 0 1-3 .12c-.2 0-.54-.01-1.02-.03-.48-.02-1-.05-1.56-.09-.56 0-1.09-.01-1.59-.03-.5-.02-.85-.03-1.05-.03h-1.92c-.4.04-.78.06-1.14.06h-.78c-.16 0-.41-.02-.75-.06-.34-.04-.67-.2-.99-.48-.24-.2-.46-.52-.66-.96-.2-.44-.3-.88-.3-1.32 0-.12.01-.39.03-.81.02-.42.03-.69.03-.81 0-.36-.02-.71-.06-1.05-.04-.34-.06-.69-.06-1.05v-1.08c0-.12-.01-.3-.03-.54-.02-.24-.03-.51-.03-.81 0-.3-.01-.57-.03-.81a7.12 7.12 0 0 1-.03-.54c0-.52.01-1.12.03-1.8.02-.68.03-1.28.03-1.8 0-.12.01-.38.03-.78.02-.4.03-.66.03-.78v-.48c0-.24-.01-.49-.03-.75-.02-.26-.03-.51-.03-.75v-.54c0-.16-.01-.52-.03-1.08-.02-.56-.03-.94-.03-1.14V117.05c0-.14.02-.31.06-.51 0-.12.02-.39.06-.81.04-.42.06-.69.06-.81 0-.2-.03-.62-.09-1.26s-.09-1.06-.09-1.26c0-.48.02-.95.06-1.41.04-.46.06-.91.06-1.35 0-.08.01-.27.03-.57.02-.3.03-.62.03-.96 0-.34.01-.66.03-.96.02-.3.03-.49.03-.57 0-.12-.01-.32-.03-.6-.02-.28-.04-.59-.06-.93-.02-.34-.04-.65-.06-.93-.02-.28-.03-.48-.03-.6 0-.92.03-1.54.09-1.86.06-.32.13-.54.21-.66.08-.2.28-.5.6-.9.32-.4.82-.6 1.5-.6.2 0 .58.01 1.14.03.56.02.94.03 1.14.03.12 0 .34-.01.66-.03.32-.02.66-.03 1.02-.03s.71-.01 1.05-.03c.34-.02.57-.03.69-.03s.32.01.6.03c.28.02.57.03.87.03.3 0 .59.01.87.03.28.02.48.03.6.03h2.22Zm24.78 0c.68 0 1.21.19 1.59.57.38.38.57.91.57 1.59 0 .16-.03.54-.09 1.14-.06.6-.09 1-.09 1.2-.04.12-.05.41-.03.87.02.46.03.77.03.93 0 .32-.01.62-.03.9-.02.28-.03.58-.03.9-.04.32-.06.62-.06.9V113c0 .12.02.4.06.84.04.44.06.72.06.84v.63c0 .42.01.89.03 1.41.02.52.03 1 .03 1.44v.72c0 .2-.02.58-.06 1.14-.04.56-.07 1.16-.09 1.8-.02.64-.05 1.24-.09 1.8-.04.56-.06.96-.06 1.2 0 .16.01.44.03.84.02.4.05.83.09 1.29l.12 1.35c.04.44.06.74.06.9.04.72.14 1.29.3 1.71.16.42.56.73 1.2.93.2.08.43.12.69.12h1.77c.16 0 .48.01.96.03.48.02.8.03.96.03.2 0 .58-.02 1.14-.06.56-.04.94-.06 1.14-.06.08 0 .23.01.45.03.22.02.45.03.69.03.24 0 .47.01.69.03.22.02.39.03.51.03s.43-.02.93-.06c.5-.04.83-.06.99-.06.44 0 .78.07 1.02.21.24.14.42.32.54.54.12.22.19.43.21.63.02.2.03.36.03.48v.69c0 .26-.02.51-.06.75 0 .12-.04.44-.12.96-.08.52-.12.88-.12 1.08 0 .2.04.61.12 1.23.08.62.12 1.03.12 1.23 0 .6-.15 1.11-.45 1.53-.3.42-1.01.63-2.13.63h-.48c-.24 0-.5-.01-.78-.03-.28-.02-.54-.03-.78-.03h-.54c-.52 0-1.04.01-1.56.03-.52.02-1.04.03-1.56.03-.12 0-.35-.01-.69-.03-.34-.02-.7-.03-1.08-.03-.38 0-.74-.01-1.08-.03-.34-.02-.59-.03-.75-.03-.32 0-.65.01-.99.03-.34.02-.67.03-.99.03-.08 0-.3-.01-.66-.03-.36-.02-.6-.03-.72-.03-.08 0-.33.01-.75.03-.42.02-.69.03-.81.03-.08 0-.25-.01-.51-.03-.26-.02-.53-.03-.81-.03s-.54-.01-.78-.03a7.12 7.12 0 0 0-.54-.03c-.08 0-.24.01-.48.03-.24.02-.5.04-.78.06-.28.02-.54.04-.78.06-.24.02-.42.03-.54.03-.6 0-1.07-.13-1.41-.39-.34-.26-.59-.57-.75-.93a3.02 3.02 0 0 1-.27-1.05c-.02-.34-.03-.59-.03-.75 0-.12.01-.35.03-.69.02-.34.04-.7.06-1.08.02-.38.04-.74.06-1.08.02-.34.03-.59.03-.75v-3.99c0-.26.01-.53.03-.81.02-.28.03-.54.03-.78v-.54a29.066 29.066 0 0 0-.12-2.64 7.5 7.5 0 0 1-.06-.93v-2.88c0-.42.01-.83.03-1.23.02-.4.03-.7.03-.9 0-.16.01-.45.03-.87.02-.42.03-.67.03-.75v-.48c0-.24-.01-.5-.03-.78-.02-.28-.03-.54-.03-.78v-.54c0-.36.01-.73.03-1.11.02-.38.03-.77.03-1.17 0-.12-.01-.34-.03-.66-.02-.32-.04-.66-.06-1.02l-.06-1.05c-.02-.34-.03-.59-.03-.75 0-.12.02-.42.06-.9.04-.48.06-.8.06-.96 0-.08-.02-.3-.06-.66-.04-.36-.06-.6-.06-.72v-1.62c0-.16.01-.46.03-.9.02-.44.03-.74.03-.9 0-.16-.02-.52-.06-1.08a19.5 19.5 0 0 1-.06-1.14c0-.12.03-.29.09-.51.06-.22.16-.44.3-.66.14-.22.33-.4.57-.54.24-.14.54-.21.9-.21h4.5c.24 0 .48-.02.72-.06.2 0 .41-.01.63-.03.22-.02.43-.03.63-.03Zm27.48 0c.68 0 1.21.19 1.59.57.38.38.57.91.57 1.59 0 .16-.03.54-.09 1.14-.06.6-.09 1-.09 1.2-.04.12-.05.41-.03.87.02.46.03.77.03.93 0 .32-.01.62-.03.9-.02.28-.03.58-.03.9-.04.32-.06.62-.06.9V113c0 .12.02.4.06.84.04.44.06.72.06.84v.63c0 .42.01.89.03 1.41.02.52.03 1 .03 1.44v.72c0 .2-.02.58-.06 1.14-.04.56-.07 1.16-.09 1.8-.02.64-.05 1.24-.09 1.8-.04.56-.06.96-.06 1.2 0 .16.01.44.03.84.02.4.05.83.09 1.29l.12 1.35c.04.44.06.74.06.9.04.72.14 1.29.3 1.71.16.42.56.73 1.2.93.2.08.43.12.69.12H196c.16 0 .48.01.96.03.48.02.8.03.96.03.2 0 .58-.02 1.14-.06.56-.04.94-.06 1.14-.06.08 0 .23.01.45.03.22.02.45.03.69.03.24 0 .47.01.69.03.22.02.39.03.51.03s.43-.02.93-.06c.5-.04.83-.06.99-.06.44 0 .78.07 1.02.21.24.14.42.32.54.54.12.22.19.43.21.63.02.2.03.36.03.48v.69c0 .26-.02.51-.06.75 0 .12-.04.44-.12.96-.08.52-.12.88-.12 1.08 0 .2.04.61.12 1.23.08.62.12 1.03.12 1.23 0 .6-.15 1.11-.45 1.53-.3.42-1.01.63-2.13.63h-.48c-.24 0-.5-.01-.78-.03-.28-.02-.54-.03-.78-.03h-.54c-.52 0-1.04.01-1.56.03-.52.02-1.04.03-1.56.03-.12 0-.35-.01-.69-.03-.34-.02-.7-.03-1.08-.03-.38 0-.74-.01-1.08-.03-.34-.02-.59-.03-.75-.03-.32 0-.65.01-.99.03-.34.02-.67.03-.99.03-.08 0-.3-.01-.66-.03-.36-.02-.6-.03-.72-.03-.08 0-.33.01-.75.03-.42.02-.69.03-.81.03-.08 0-.25-.01-.51-.03-.26-.02-.53-.03-.81-.03s-.54-.01-.78-.03a7.12 7.12 0 0 0-.54-.03c-.08 0-.24.01-.48.03-.24.02-.5.04-.78.06-.28.02-.54.04-.78.06-.24.02-.42.03-.54.03-.6 0-1.07-.13-1.41-.39-.34-.26-.59-.57-.75-.93a3.02 3.02 0 0 1-.27-1.05c-.02-.34-.03-.59-.03-.75 0-.12.01-.35.03-.69.02-.34.04-.7.06-1.08.02-.38.04-.74.06-1.08.02-.34.03-.59.03-.75v-3.99c0-.26.01-.53.03-.81.02-.28.03-.54.03-.78v-.54a29.066 29.066 0 0 0-.12-2.64 7.5 7.5 0 0 1-.06-.93v-2.88c0-.42.01-.83.03-1.23.02-.4.03-.7.03-.9 0-.16.01-.45.03-.87.02-.42.03-.67.03-.75v-.48c0-.24-.01-.5-.03-.78-.02-.28-.03-.54-.03-.78v-.54c0-.36.01-.73.03-1.11.02-.38.03-.77.03-1.17 0-.12-.01-.34-.03-.66-.02-.32-.04-.66-.06-1.02l-.06-1.05c-.02-.34-.03-.59-.03-.75 0-.12.02-.42.06-.9.04-.48.06-.8.06-.96 0-.08-.02-.3-.06-.66-.04-.36-.06-.6-.06-.72v-1.62c0-.16.01-.46.03-.9.02-.44.03-.74.03-.9 0-.16-.02-.52-.06-1.08a19.5 19.5 0 0 1-.06-1.14c0-.12.03-.29.09-.51.06-.22.16-.44.3-.66.14-.22.33-.4.57-.54.24-.14.54-.21.9-.21h4.5c.24 0 .48-.02.72-.06.2 0 .41-.01.63-.03.22-.02.43-.03.63-.03Zm32.7 0c.12 0 .44-.02.96-.06.52-.04.86-.06 1.02-.06.16 0 .51-.01 1.05-.03.54-.02.91-.03 1.11-.03.12 0 .36.01.72.03.36.02.74.04 1.14.06.4.02.78.04 1.14.06.36.02.62.03.78.03.2 0 .6-.02 1.2-.06.6-.04 1-.06 1.2-.06.72 0 1.24.18 1.56.54.32.36.48.84.48 1.44 0 .12-.01.42-.03.9-.02.48-.03.8-.03.96 0 .12.01.31.03.57.02.26.04.54.06.84.02.3.04.58.06.84.02.26.03.45.03.57 0 .36-.03.61-.09.75s-.25.41-.57.81c-.16.2-.27.33-.33.39s-.21.13-.45.21c-.24.08-.46.15-.66.21s-.46.09-.78.09c-.16 0-.46-.01-.9-.03-.44-.02-.74-.03-.9-.03-.08 0-.25.01-.51.03-.26.02-.53.03-.81.03s-.55.01-.81.03c-.26.02-.45.03-.57.03-.28 0-.5-.02-.66-.06-.28 0-.54-.02-.78-.06-.24-.04-.5-.08-.78-.12-.28-.04-.54-.06-.78-.06h-.78c-1.68 0-2.82.18-3.42.54-.6.36-.9 1.16-.9 2.4 0 .72.01 1.32.03 1.8.02.48.09.88.21 1.2.12.32.32.57.6.75.28.18.66.31 1.14.39.68.08 1.12.13 1.32.15.2.02.5.03.9.03.12 0 .33-.01.63-.03.3-.02.62-.04.96-.06l.99-.06c.32-.02.54-.03.66-.03a15.208 15.208 0 0 1 1.35.12c.3.04.58.07.84.09.26.02.45.03.57.03.4 0 .8-.02 1.2-.06.4-.04.8-.06 1.2-.06h.9c.36 0 .62.04.78.12.08.08.28.26.6.54.32.28.48.7.48 1.26-.04.28-.06.52-.06.72 0 .2-.01.39-.03.57-.02.18-.03.31-.03.39-.04.48-.06.84-.06 1.08v1.32c0 .24-.01.42-.03.54-.02.12-.05.34-.09.66-.04.2-.09.42-.15.66-.06.24-.18.47-.36.69-.18.22-.43.41-.75.57-.32.16-.78.24-1.38.24h-3.06c-.12 0-.38-.01-.78-.03-.4-.02-.66-.03-.78-.03-.08 0-.29.01-.63.03-.34.02-.55.03-.63.03-.12 0-.43-.03-.93-.09s-.83-.09-.99-.09c-.32 0-.62.02-.9.06-.28.04-.58.06-.9.06h-.48c-.2 0-.43.03-.69.09-.26.06-.45.13-.57.21-.28.12-.49.29-.63.51-.14.22-.24.46-.3.72-.06.26-.1.51-.12.75-.02.24-.03.42-.03.54 0 .96.02 1.77.06 2.43.04.66.21 1.19.51 1.59.3.4.78.69 1.44.87.66.18 1.59.27 2.79.27.2 0 .61-.01 1.23-.03.62-.02 1.03-.03 1.23-.03.16 0 .49.01.99.03.5.02.85.03 1.05.03h.63c.3 0 .62-.01.96-.03.34-.02.66-.04.96-.06.3-.02.51-.03.63-.03.2-.04.41-.06.63-.06h.63c.16 0 .54.06 1.14.18.6.12 1.04.44 1.32.96.2.44.32.9.36 1.38.04.48.06.86.06 1.14v.42c.04.28.09.56.15.84.06.28.11.56.15.84v1.56c0 .2-.01.41-.03.63-.02.22-.1.43-.24.63-.14.2-.35.37-.63.51s-.66.21-1.14.21c-.08 0-.21-.01-.39-.03-.18-.02-.37-.03-.57-.03-.2-.04-.41-.06-.63-.06h-.45c-.08 0-.25.01-.51.03-.26.02-.55.03-.87.03-.32.04-.61.07-.87.09-.26.02-.45.03-.57.03-.08 0-.25-.01-.51-.03-.26-.02-.55-.03-.87-.03-.32-.04-.61-.06-.87-.06h-.57c-.04 0-.32.01-.84.03-.52.02-1.1.03-1.74.03a78.283 78.283 0 0 1-3 .12c-.2 0-.54-.01-1.02-.03-.48-.02-1-.05-1.56-.09-.56 0-1.09-.01-1.59-.03-.5-.02-.85-.03-1.05-.03h-1.92c-.4.04-.78.06-1.14.06h-.78c-.16 0-.41-.02-.75-.06-.34-.04-.67-.2-.99-.48-.24-.2-.46-.52-.66-.96-.2-.44-.3-.88-.3-1.32 0-.12.01-.39.03-.81.02-.42.03-.69.03-.81 0-.36-.02-.71-.06-1.05-.04-.34-.06-.69-.06-1.05v-1.08c0-.12-.01-.3-.03-.54-.02-.24-.03-.51-.03-.81 0-.3-.01-.57-.03-.81a7.12 7.12 0 0 1-.03-.54c0-.52.01-1.12.03-1.8.02-.68.03-1.28.03-1.8 0-.12.01-.38.03-.78.02-.4.03-.66.03-.78v-.48c0-.24-.01-.49-.03-.75-.02-.26-.03-.51-.03-.75v-.54c0-.16-.01-.52-.03-1.08-.02-.56-.03-.94-.03-1.14V117.05c0-.14.02-.31.06-.51 0-.12.02-.39.06-.81.04-.42.06-.69.06-.81 0-.2-.03-.62-.09-1.26s-.09-1.06-.09-1.26c0-.48.02-.95.06-1.41.04-.46.06-.91.06-1.35 0-.08.01-.27.03-.57.02-.3.03-.62.03-.96 0-.34.01-.66.03-.96.02-.3.03-.49.03-.57 0-.12-.01-.32-.03-.6-.02-.28-.04-.59-.06-.93-.02-.34-.04-.65-.06-.93-.02-.28-.03-.48-.03-.6 0-.92.03-1.54.09-1.86.06-.32.13-.54.21-.66.08-.2.28-.5.6-.9.32-.4.82-.6 1.5-.6.2 0 .58.01 1.14.03.56.02.94.03 1.14.03.12 0 .34-.01.66-.03.32-.02.66-.03 1.02-.03s.71-.01 1.05-.03c.34-.02.57-.03.69-.03s.32.01.6.03c.28.02.57.03.87.03.3 0 .59.01.87.03.28.02.48.03.6.03h2.22Zm16.5 19.2v-1.17c0-.42.02-.83.06-1.23 0-1 .04-1.98.12-2.94.08-.96.14-1.94.18-2.94v-.96c0-.48-.01-.98-.03-1.5-.02-.52-.03-1.01-.03-1.47v-.99c0-.2-.02-.6-.06-1.2-.04-.6-.06-1-.06-1.2 0-.4.01-.83.03-1.29.02-.46.11-.88.27-1.26.16-.38.41-.69.75-.93.34-.24.81-.36 1.41-.36.12 0 .38.02.78.06.4.04.66.06.78.06s.39-.01.81-.03c.42-.02.69-.03.81-.03h.48c.24 0 .5.01.78.03.28.02.54.03.78.03h2.52c.16 0 .51-.01 1.05-.03.54-.02.91-.03 1.11-.03.32 0 .71-.01 1.17-.03.46-.02.85-.03 1.17-.03.12 0 .36.01.72.03.36.02.74.04 1.14.06.4.02.78.04 1.14.06.36.02.6.05.72.09.12 0 .32.04.6.12.28.08.58.16.9.24.32.08.62.16.9.24.28.08.5.14.66.18.12.08.32.18.6.3.28.12.58.26.9.42.32.16.61.3.87.42s.41.18.45.18c.48.28.97.62 1.47 1.02s.85.7 1.05.9c.04.04.15.19.33.45.18.26.38.54.6.84.22.3.42.58.6.84s.29.41.33.45l.3.6c.16.32.32.7.48 1.14.16.44.31.92.45 1.44.14.52.21 1 .21 1.44 0 .08-.01.3-.03.66-.02.36-.03.58-.03.66 0 .2.02.6.06 1.2.04.6.06 1 .06 1.2 0 .32-.04.75-.12 1.29-.08.54-.19 1.11-.33 1.71-.14.6-.3 1.18-.48 1.74s-.37 1.04-.57 1.44c-.12.24-.3.52-.54.84-.24.32-.49.64-.75.96-.26.32-.51.63-.75.93-.24.3-.44.53-.6.69-.52.56-.94 1.01-1.26 1.35-.32.34-.56.61-.72.81-.16.2-.26.38-.3.54-.04.16-.06.34-.06.54 0 .44.11.78.33 1.02.22.24.47.46.75.66.64.48 1.3.89 1.98 1.23.68.34 1.12.55 1.32.63.2.08.37.13.51.15.14.02.31.07.51.15.44.28.7.6.78.96.08.36.12.64.12.84 0 .2-.01.42-.03.66-.02.24-.03.46-.03.66 0 .12.02.38.06.78.04.4.06.66.06.78 0 .08-.01.25-.03.51l-.06.81c-.02.28-.04.54-.06.78-.02.24-.03.42-.03.54 0 .08.01.29.03.63.02.34.03.55.03.63 0 .48-.12.85-.36 1.11-.24.26-.51.47-.81.63-.3.16-.58.26-.84.3-.26.04-.43.06-.51.06-.64 0-1.26-.1-1.86-.3-.6-.2-1.15-.43-1.65-.69-.5-.26-.91-.52-1.23-.78-.32-.26-.54-.43-.66-.51-.44-.36-1.05-.89-1.83-1.59-.78-.7-1.45-1.39-2.01-2.07-.08-.12-.18-.25-.3-.39s-.24-.25-.36-.33c-.32-.28-.7-.54-1.14-.78-.08-.08-.3-.26-.66-.54a9.79 9.79 0 0 1-.66-.54c-.8-.52-1.39-.83-1.77-.93-.38-.1-.79-.15-1.23-.15-.16 0-.33.04-.51.12-.18.08-.31.14-.39.18-.28.2-.47.38-.57.54-.1.16-.21.38-.33.66-.2.4-.32.73-.36.99-.04.26-.06.81-.06 1.65 0 .2.01.39.03.57.02.18.07.59.15 1.23.04.12.1.43.18.93.08.5.12.83.12.99 0 .56-.17.98-.51 1.26-.34.28-.71.42-1.11.42-.2 0-.41-.02-.63-.06-.22-.04-.43-.08-.63-.12a6.207 6.207 0 0 0-1.2-.12c-.04 0-.24.01-.6.03-.36.02-.58.03-.66.03-.2.04-.4.06-.6.06h-.78c-.16 0-.52.01-1.08.03-.56.02-.92.03-1.08.03-.36 0-.66-.08-.9-.24-.24-.16-.43-.35-.57-.57a1.84 1.84 0 0 1-.27-.69c-.04-.24-.06-.44-.06-.6 0-.24.02-.48.06-.72l.12-.72c.04-.2.06-.4.06-.6v-1.08c0-.24-.01-.49-.03-.75-.02-.26-.03-.5-.03-.72v-.51c0-.4.01-.8.03-1.2.02-.4.05-.82.09-1.26.04-.52.07-.95.09-1.29.02-.34.03-.59.03-.75 0-.44-.02-.9-.06-1.38-.04-.48-.06-.94-.06-1.38v-.78c0-.36-.01-.73-.03-1.11-.02-.38-.03-.75-.03-1.11v-.78c0-.16.01-.5.03-1.02.02-.52.03-.88.03-1.08 0-.08-.01-.24-.03-.48-.02-.24-.03-.5-.03-.78s-.01-.54-.03-.78a7.12 7.12 0 0 1-.03-.54Zm12.48-10.2c-.12 0-.28.04-.48.12l-.6.24c-.32.16-.53.3-.63.42-.1.12-.23.34-.39.66-.2.52-.33.88-.39 1.08-.06.2-.09.48-.09.84 0 .12.01.31.03.57.02.26.03.55.03.87 0 .32.01.62.03.9.02.28.03.48.03.6s-.01.31-.03.57c-.02.26-.03.54-.03.84 0 .3-.01.58-.03.84-.02.26-.03.45-.03.57 0 .12.01.34.03.66.02.32.04.66.06 1.02.02.36.04.7.06 1.02.02.32.03.54.03.66.04.28.11.6.21.96.1.36.39.62.87.78.16.08.48.13.96.15.48.02.74.03.78.03h.33c.1 0 .37-.04.81-.12l.63-.18c.14-.04.39-.14.75-.3.16-.08.3-.14.42-.18.12-.04.26-.1.42-.18.12-.08.24-.19.36-.33s.26-.25.42-.33c.12-.16.25-.29.39-.39.14-.1.27-.21.39-.33.28-.2.5-.42.66-.66.16-.24.48-.78.96-1.62.2-.4.45-.96.75-1.68s.45-1.64.45-2.76c0-.28-.05-.64-.15-1.08-.1-.44-.27-.89-.51-1.35-.24-.46-.58-.9-1.02-1.32-.44-.42-.98-.73-1.62-.93-.64-.2-1.08-.32-1.32-.36-.24-.04-.58-.06-1.02-.06a15.208 15.208 0 0 1-1.29-.12c-.3-.04-.58-.07-.84-.09l-.39-.03Zm31.8 20.94c-.04-.2-.07-.4-.09-.6-.02-.2-.05-.4-.09-.6-.04-.24-.06-.48-.06-.72s-.04-.48-.12-.72c-.08-.2-.17-.39-.27-.57-.1-.18-.19-.37-.27-.57-.08-.16-.15-.32-.21-.48-.06-.16-.13-.32-.21-.48-.08-.2-.17-.38-.27-.54-.1-.16-.19-.34-.27-.54-.28-.56-.57-1.21-.87-1.95-.3-.74-.57-1.39-.81-1.95-.16-.32-.32-.62-.48-.9-.16-.28-.34-.58-.54-.9-.2-.36-.36-.72-.48-1.08a6.38 6.38 0 0 0-.48-1.08c-.2-.36-.41-.72-.63-1.08-.22-.36-.43-.74-.63-1.14-.2-.32-.38-.67-.54-1.05-.16-.38-.32-.73-.48-1.05-.08-.2-.15-.38-.21-.54-.06-.16-.13-.34-.21-.54-.2-.4-.41-.78-.63-1.14-.22-.36-.43-.74-.63-1.14-.2-.32-.36-.66-.48-1.02s-.26-.7-.42-1.02l-.3-.6c-.16-.32-.33-.65-.51-.99-.18-.34-.34-.65-.48-.93-.14-.28-.23-.44-.27-.48a.59.59 0 0 1-.15-.21.59.59 0 0 0-.15-.21.645.645 0 0 1-.12-.36c0-.12-.04-.24-.12-.36-.16-.32-.26-.55-.3-.69-.04-.14-.06-.35-.06-.63 0-.36.17-.65.51-.87.34-.22.67-.33.99-.33h.3c.12 0 .26.02.42.06.16 0 .3.01.42.03.12.02.22.03.3.03.12 0 .31-.01.57-.03.26-.02.55-.03.87-.03.32-.04.61-.06.87-.06h.51c.16 0 .47.01.93.03.46.02.77.03.93.03.24 0 .44-.02.6-.06.16-.04.3-.06.42-.06.08 0 .3.03.66.09.36.06.64.13.84.21.4.16.67.35.81.57.14.22.35.61.63 1.17.2.36.36.72.48 1.08.12.36.26.72.42 1.08.2.44.47.95.81 1.53.34.58.63 1.09.87 1.53.36.92.7 1.78 1.02 2.58.28.68.56 1.35.84 2.01.28.66.48 1.09.6 1.29.56 1.08.94 1.72 1.14 1.92.2.2.4.3.6.3.2 0 .38-.08.54-.24.16-.16.28-.32.36-.48.08-.16.16-.36.24-.6l.36-.54c0-.04.06-.19.18-.45s.24-.55.36-.87c.12-.32.24-.63.36-.93.12-.3.2-.49.24-.57.08-.2.15-.41.21-.63.06-.22.13-.43.21-.63.12-.28.25-.55.39-.81s.27-.55.39-.87c.12-.24.23-.5.33-.78s.21-.54.33-.78c.04-.12.11-.3.21-.54.1-.24.22-.49.36-.75.14-.26.27-.51.39-.75s.2-.42.24-.54c.36-.92.66-1.6.9-2.04.24-.44.4-.7.48-.78.24-.28.6-.47 1.08-.57.48-.1.8-.15.96-.15.12 0 .24.01.36.03.12.02.26.03.42.03.44.04.9.06 1.38.06h2.58c.16 0 .51-.02 1.05-.06.54-.04.91-.06 1.11-.06.44 0 .86.04 1.26.12.4.08.6.3.6.66 0 .08-.06.35-.18.81-.12.46-.36 1.05-.72 1.77-.2.36-.37.73-.51 1.11-.14.38-.31.75-.51 1.11-.08.2-.17.39-.27.57-.1.18-.19.37-.27.57-.16.32-.33.7-.51 1.14-.18.44-.35.82-.51 1.14-.44 1-.93 2.05-1.47 3.15-.54 1.1-1.01 1.99-1.41 2.67-.2.28-.39.56-.57.84-.18.28-.35.58-.51.9-.2.44-.39.89-.57 1.35-.18.46-.37.91-.57 1.35l-.36.6c-.12.2-.22.4-.3.6-.08.16-.15.31-.21.45s-.13.29-.21.45c-.16.32-.32.61-.48.87-.16.26-.3.55-.42.87-.08.16-.15.31-.21.45s-.13.29-.21.45c-.8 1.6-1.33 2.88-1.59 3.84s-.39 1.62-.39 1.98c0 .12.01.37.03.75.02.38.03.63.03.75 0 .08-.01.24-.03.48-.02.24-.03.5-.03.78s-.01.54-.03.78c-.02.24-.03.42-.03.54 0 .08.01.23.03.45.02.22.04.46.06.72.02.26.04.5.06.72.02.22.03.39.03.51v.48c0 .24-.01.49-.03.75-.02.26-.03.5-.03.72v.51c0 .12.02.4.06.84.04.44.06.72.06.84 0 .48-.16.94-.48 1.38-.32.44-.74.66-1.26.66-.08 0-.29-.03-.63-.09s-.55-.09-.63-.09c-.08 0-.29.01-.63.03-.34.02-.53.03-.57.03h-2.1c-.16 0-.55.02-1.17.06-.62.04-1.03.06-1.23.06-.32 0-.6-.09-.84-.27-.24-.18-.45-.39-.63-.63a3.11 3.11 0 0 1-.42-.75c-.1-.26-.15-.47-.15-.63 0-.08.02-.34.06-.78.04-.44.08-.72.12-.84 0-.12-.01-.41-.03-.87-.02-.46-.03-.75-.03-.87 0-.2.03-.6.09-1.2s.09-1 .09-1.2c0-.08-.02-.3-.06-.66-.04-.36-.06-.56-.06-.6-.04-.16-.06-.32-.06-.48v-2.64ZM11.96 70.44c0-.24.02-.46.06-.66.04-.2.1-.62.18-1.26.12-.76.22-1.51.3-2.25.08-.74.22-1.47.42-2.19.32-1.12.77-2.18 1.35-3.18.58-1 .99-1.66 1.23-1.98l.48-.6c.32-.4.72-.86 1.2-1.38.48-.52.99-1.04 1.53-1.56s1.01-.9 1.41-1.14c.64-.4 1.3-.75 1.98-1.05.68-.3 1.38-.57 2.1-.81.88-.28 1.64-.5 2.28-.66.64-.16 1.25-.27 1.83-.33.58-.06 1.16-.1 1.74-.12.58-.02 1.23-.03 1.95-.03.04 0 .2.01.48.03.28.02.58.04.9.06.32.02.61.04.87.06.26.02.43.03.51.03.52.12.88.33 1.08.63.2.3.3.91.3 1.83 0 .4-.02.8-.06 1.2-.04.4-.06.8-.06 1.2 0 .08.01.24.03.48.02.24.03.5.03.78s.01.54.03.78c.02.24.03.42.03.54 0 .64-.06 1.1-.18 1.38-.36.48-.86.72-1.5.72-.2 0-.5-.04-.9-.12-.32-.04-.62-.08-.9-.12-.28-.04-.58-.06-.9-.06-.88 0-1.71.12-2.49.36-.78.24-1.49.53-2.13.87-.64.34-1.19.71-1.65 1.11-.46.4-.81.74-1.05 1.02-.08.08-.21.29-.39.63-.18.34-.38.7-.6 1.08-.22.38-.43.75-.63 1.11-.2.36-.32.6-.36.72-.16.44-.27 1.07-.33 1.89-.06.82-.09 1.79-.09 2.91 0 .48.07 1.12.21 1.92.14.8.39 1.68.75 2.64.36.96.84 1.94 1.44 2.94s1.34 1.9 2.22 2.7c.4.4.89.73 1.47.99s1.14.46 1.68.6c.54.14 1.02.23 1.44.27.42.04.69.06.81.06.16 0 .47-.02.93-.06.46-.04.77-.1.93-.18.08 0 .23-.03.45-.09s.37-.09.45-.09c.56 0 .93.21 1.11.63.18.42.27.83.27 1.23 0 .08-.01.3-.03.66-.02.36-.03.6-.03.72 0 .08.02.31.06.69.04.38.06.61.06.69 0 .16-.03.51-.09 1.05s-.09.89-.09 1.05v1.08c0 .28-.04.57-.12.87-.08.3-.38.59-.9.87-.28.2-.57.32-.87.36-.3.04-.61.06-.93.06-.08 0-.31-.01-.69-.03-.38-.02-.78-.03-1.2-.03-.42 0-.82-.01-1.2-.03-.38-.02-.59-.03-.63-.03-.28-.04-.54-.07-.78-.09-.24-.02-.5-.05-.78-.09-.52-.08-.94-.15-1.26-.21-.32-.06-.61-.13-.87-.21-.26-.08-.53-.18-.81-.3s-.66-.3-1.14-.54c-.4-.16-.8-.35-1.2-.57-.4-.22-.94-.59-1.62-1.11l-1.44-1.26c-.32-.32-.67-.6-1.05-.84s-.73-.52-1.05-.84c-.16-.12-.3-.25-.42-.39a8.08 8.08 0 0 0-.42-.45c-.68-.8-1.19-1.52-1.53-2.16-.34-.64-.73-1.38-1.17-2.22-.44-.96-.83-1.88-1.17-2.76-.34-.88-.57-1.98-.69-3.3 0-.08-.02-.27-.06-.57-.04-.3-.07-.63-.09-.99-.02-.36-.04-.69-.06-.99-.02-.3-.03-.49-.03-.57 0-.08.02-.31.06-.69.04-.38.06-.63.06-.75s-.01-.38-.03-.78c-.02-.4-.03-.66-.03-.78Zm26.58 1.26c0-.64.1-1.36.3-2.16.04-.2.11-.53.21-.99.1-.46.21-.93.33-1.41.12-.48.23-.93.33-1.35.1-.42.19-.69.27-.81.04-.08.11-.25.21-.51.1-.26.22-.54.36-.84.14-.3.26-.57.36-.81.1-.24.17-.38.21-.42.08-.2.19-.38.33-.54.14-.16.27-.34.39-.54.04-.08.12-.23.24-.45s.26-.47.42-.75c.16-.28.3-.54.42-.78s.22-.4.3-.48c.16-.2.34-.4.54-.6.2-.2.38-.4.54-.6.2-.2.38-.42.54-.66a4.524 4.524 0 0 1 1.14-1.17c.2-.14.4-.29.6-.45.2-.16.39-.32.57-.48.18-.16.37-.32.57-.48.24-.2.64-.45 1.2-.75.56-.3 1.04-.53 1.44-.69.2-.08.41-.15.63-.21.22-.06.43-.13.63-.21.28-.08.55-.19.81-.33s.53-.25.81-.33c.2-.04.57-.11 1.11-.21.54-.1 1.1-.18 1.68-.24.58-.06 1.1-.12 1.56-.18.46-.06.73-.09.81-.09.12 0 .34.02.66.06.32.04.66.09 1.02.15s.7.12 1.02.18c.32.06.54.09.66.09.52.08 1.03.15 1.53.21s.99.19 1.47.39c.04.04.28.16.72.36.44.2.91.42 1.41.66l1.38.66c.42.2.67.32.75.36.16.08.38.24.66.48s.57.49.87.75c.3.26.59.53.87.81s.52.5.72.66c.2.2.38.41.54.63.16.22.34.43.54.63.24.32.52.6.84.84.28.32.51.62.69.9.18.28.37.66.57 1.14a11.504 11.504 0 0 1 .6 1.44l.57 1.14.57 1.14c.28.64.48 1.38.6 2.22.04.24.1.73.18 1.47.08.74.15 1.53.21 2.37.06.84.11 1.62.15 2.34.04.72.06 1.16.06 1.32 0 .2-.02.48-.06.84-.04.36-.09.74-.15 1.14-.06.4-.13.78-.21 1.14-.08.36-.14.62-.18.78-.08.2-.17.5-.27.9s-.21.81-.33 1.23c-.12.42-.24.83-.36 1.23s-.22.68-.3.84c-.2.48-.46 1.05-.78 1.71-.32.66-.88 1.53-1.68 2.61-.12.2-.35.49-.69.87a28.308 28.308 0 0 1-2.22 2.22c-.38.34-.67.57-.87.69-.28.2-.57.35-.87.45-.3.1-.61.23-.93.39-.2.12-.38.24-.54.36-.16.12-.34.22-.54.3-.04.04-.22.13-.54.27-.32.14-.68.28-1.08.42-.4.14-.77.28-1.11.42-.34.14-.53.21-.57.21-.28.08-.56.13-.84.15-.28.02-.58.07-.9.15-.2.04-.38.08-.54.12l-.48.12c-.72.12-1.36.18-1.92.18h-.72c-.32 0-.65-.01-.99-.03l-.99-.06c-.32-.02-.54-.03-.66-.03-.36-.04-.8-.14-1.32-.3-.28-.04-.55-.08-.81-.12-.26-.04-.53-.1-.81-.18-.44-.08-.82-.2-1.14-.36-.4-.2-.67-.33-.81-.39s-.43-.15-.87-.27a7.1 7.1 0 0 1-.78-.27c-.24-.1-.48-.23-.72-.39-.28-.2-.54-.4-.78-.6-.24-.2-.5-.4-.78-.6-.6-.44-1.1-.8-1.5-1.08-.4-.28-.75-.56-1.05-.84-.3-.28-.6-.61-.9-.99-.3-.38-.67-.87-1.11-1.47-.24-.32-.44-.58-.6-.78-.16-.2-.3-.39-.42-.57-.12-.18-.24-.38-.36-.6-.12-.22-.26-.51-.42-.87-.12-.28-.26-.54-.42-.78-.16-.24-.3-.48-.42-.72-.12-.28-.24-.62-.36-1.02s-.22-.8-.3-1.2c-.08-.4-.15-.77-.21-1.11-.06-.34-.11-.61-.15-.81-.04-.32-.08-.77-.12-1.35-.04-.58-.08-1.18-.12-1.8-.04-.62-.07-1.2-.09-1.74-.02-.54-.03-.97-.03-1.29Zm9.84.54c0 .08.01.24.03.48.02.24.03.49.03.75s.01.51.03.75l.03.36c.04.36.12.72.24 1.08.12.36.22.72.3 1.08.12.48.23.88.33 1.2.1.32.19.58.27.78l.24.6c.08.2.2.42.36.66.24.44.55.87.93 1.29.38.42.75.8 1.11 1.14.36.34.68.61.96.81.28.2.46.32.54.36.16.08.33.12.51.12s.37.04.57.12c.12.04.23.08.33.12a8.443 8.443 0 0 0 .93.3c.4.08.67.13.81.15.14.02.43.03.87.03.08 0 .26.01.54.03.28.02.46.03.54.03h.78c.48 0 .8-.02.96-.06.24-.04.54-.14.9-.3.36-.16.72-.35 1.08-.57.36-.22.69-.42.99-.6.3-.18.51-.33.63-.45.32-.24.64-.54.96-.9.32-.36.61-.7.87-1.02.26-.32.48-.61.66-.87.18-.26.29-.43.33-.51.08-.12.17-.39.27-.81.1-.42.33-1.29.69-2.61.12-.56.2-1.01.24-1.35.04-.34.06-.65.06-.93 0-.32-.01-.64-.03-.96-.02-.32-.03-.64-.03-.96v-1.29c0-.14-.02-.31-.06-.51 0-.04-.06-.22-.18-.54-.12-.32-.25-.68-.39-1.08s-.29-.78-.45-1.14c-.16-.36-.3-.64-.42-.84-.2-.32-.42-.59-.66-.81-.24-.22-.46-.47-.66-.75-.2-.24-.4-.49-.6-.75-.2-.26-.42-.49-.66-.69-.12-.12-.35-.26-.69-.42-.34-.16-.69-.32-1.05-.48-.36-.16-.69-.31-.99-.45-.3-.14-.47-.21-.51-.21-.12-.04-.34-.08-.66-.12a15.567 15.567 0 0 0-1.89-.12h-1.38c-.26 0-.49.04-.69.12-.4.08-.71.15-.93.21-.22.06-.41.13-.57.21-.16.08-.31.16-.45.24-.14.08-.33.2-.57.36-.44.28-.79.5-1.05.66-.26.16-.48.31-.66.45-.18.14-.34.28-.48.42-.14.14-.29.33-.45.57-.32.32-.68.81-1.08 1.47-.4.66-.66 1.13-.78 1.41-.2.36-.32.75-.36 1.17-.04.42-.1.85-.18 1.29a16.48 16.48 0 0 0-.36 1.92v.36Zm33.48-16.5c0-.12-.03-.41-.09-.87s-.09-.77-.09-.93v-.72c0-.24.04-.46.12-.66.08-.2.22-.41.42-.63.2-.22.46-.33.78-.33.08 0 .28.03.6.09.32.06.54.09.66.09h.36c.12-.04.3-.06.54-.06H86.06l.12.06h.6c.12 0 .26-.02.42-.06h.78c.2 0 .52.01.96.03.44.02.76.07.96.15.08.04.16.07.24.09.08.02.16.05.24.09.2.08.39.1.57.06.18-.04.37-.02.57.06.2.08.42.22.66.42.24.2.38.32.42.36.12.16.37.51.75 1.05s.76 1.12 1.14 1.74a170.237 170.237 0 0 0 1.71 2.73c.16.16.32.36.48.6.12.2.23.38.33.54.1.16.21.32.33.48.28.48.51.86.69 1.14a28.12 28.12 0 0 1 .75 1.23c.08.14.16.31.24.51.2.4.45.83.75 1.29.3.46.61.89.93 1.29.56.84 1.1 1.7 1.62 2.58.52.88 1 1.78 1.44 2.7.08.16.27.5.57 1.02.3.52.49.88.57 1.08l.54.81c.2.3.34.45.42.45.32 0 .49-.29.51-.87.02-.58.03-1.15.03-1.71 0-.12.01-.39.03-.81.02-.42.03-.69.03-.81 0-.2-.01-.39-.03-.57-.02-.18-.03-.37-.03-.57 0-.16.02-.47.06-.93.04-.46.06-.77.06-.93 0-.16-.03-.52-.09-1.08s-.09-.94-.09-1.14c0-.08.01-.24.03-.48l.06-.75.06-.75c.02-.24.03-.42.03-.54 0-.12-.01-.32-.03-.6l-.06-.87-.06-.87c-.02-.28-.03-.48-.03-.6v-4.38c0-.08-.02-.33-.06-.75-.04-.42-.06-.71-.06-.87 0-.44.12-.77.36-.99.24-.22.44-.37.6-.45.08-.04.22-.06.42-.06H110.78c.2 0 .42.02.66.06.2 0 .41.01.63.03.22.02.37.03.45.03.2 0 .4-.01.6-.03.2-.02.4-.03.6-.03.08 0 .26-.02.54-.06.28-.04.46-.06.54-.06.32 0 .66.17 1.02.51.36.34.54.91.54 1.71 0 .12-.01.3-.03.54-.02.24-.04.51-.06.81-.02.3-.04.58-.06.84-.02.26-.03.45-.03.57v.54c0 .28.01.57.03.87.02.3.03.58.03.84v1.29c0 .36-.01.75-.03 1.17-.02.42-.03.81-.03 1.17V66.3c0 .28-.02.58-.06.9 0 .12-.01.34-.03.66-.02.32-.04.66-.06 1.02l-.06 1.05c-.02.34-.03.57-.03.69s.01.32.03.6c.02.28.03.58.03.9 0 .32.01.63.03.93.02.3.03.51.03.63.04.64.05 1.4.03 2.28a104.278 104.278 0 0 0 0 5.07c.02 1.06.03 1.99.03 2.79 0 .16-.01.31-.03.45-.02.14-.03.27-.03.39-.04.2-.07.39-.09.57-.02.18-.03.37-.03.57 0 .12.01.39.03.81.02.42.03.69.03.81 0 .16.02.44.06.84.04.4.08.83.12 1.29.04.46.08.9.12 1.32.04.42.06.71.06.87 0 .16-.01.35-.03.57-.02.22-.1.44-.24.66-.14.22-.36.41-.66.57-.3.16-.73.24-1.29.24h-.48c-.16 0-.32-.02-.48-.06-.08 0-.27.01-.57.03-.3.02-.49.03-.57.03-.16 0-.51-.02-1.05-.06-.54-.04-.89-.06-1.05-.06-.12 0-.36.02-.72.06-.36.04-.6.06-.72.06-.68 0-1.23-.26-1.65-.78a8.84 8.84 0 0 1-1.11-1.8c-.12-.28-.23-.5-.33-.66a9.488 9.488 0 0 0-.57-.84c-.12-.16-.26-.38-.42-.66-.36-.48-.7-.98-1.02-1.5-.32-.52-.62-1.04-.9-1.56-.56-1.04-1.05-1.9-1.47-2.58-.42-.68-.65-1.06-.69-1.14-.12-.2-.25-.39-.39-.57-.14-.18-.29-.37-.45-.57-.12-.2-.24-.41-.36-.63-.12-.22-.26-.43-.42-.63l-.6-.84-.6-.84-.72-1.26c-.2-.32-.41-.66-.63-1.02-.22-.36-.43-.7-.63-1.02-.24-.4-.46-.8-.66-1.2l-.6-1.2a3.35 3.35 0 0 0-.27-.45c-.1-.14-.21-.27-.33-.39-.12-.08-.28-.19-.48-.33-.2-.14-.38-.21-.54-.21-.04 0-.16.05-.36.15-.2.1-.34.43-.42.99 0 .12-.01.32-.03.6-.02.28-.04.59-.06.93-.02.34-.04.66-.06.96-.02.3-.03.51-.03.63s.01.39.03.81c.02.42.03.71.03.87 0 .08-.01.32-.03.72-.02.4-.03.66-.03.78v1.38c0 .08-.01.31-.03.69-.02.38-.03.63-.03.75v.39c0 .18.02.37.06.57.04.2.06.59.06 1.17v1.35c0 .12.02.44.06.96.04.52.06.86.06 1.02.04.16.05.5.03 1.02-.02.52-.03.88-.03 1.08 0 .28.02.48.06.6 0 .16.04.49.12.99.08.5.12.83.12.99 0 .48-.22.91-.66 1.29-.44.38-.74.59-.9.63-.08.04-.27.05-.57.03-.3-.02-.49-.03-.57-.03-.12 0-.41.04-.87.12-.46.08-.77.12-.93.12-.08.04-.3.06-.66.06h-.66c-.16 0-.51.02-1.05.06-.54.04-.89.06-1.05.06-.48 0-.85-.05-1.11-.15-.26-.1-.43-.19-.51-.27-.4-.28-.62-.54-.66-.78-.04-.24-.06-.48-.06-.72v-3.18c0-.12.01-.34.03-.66.02-.32.03-.66.03-1.02s.01-.71.03-1.05c.02-.34.03-.57.03-.69s-.01-.4-.03-.84c-.02-.44-.03-.74-.03-.9v-1.5c0-.08.01-.26.03-.54.02-.28.03-.57.03-.87 0-.3.01-.58.03-.84.02-.26.03-.45.03-.57 0-.08-.02-.35-.06-.81-.04-.46-.06-.75-.06-.87a5.73 5.73 0 0 1-.06-.81v-.75a92.467 92.467 0 0 1 .12-4.68c.08-.64.12-1.03.12-1.17v-.51c0-.56-.03-1.12-.09-1.68-.06-.56-.11-1.12-.15-1.68v-.72c0-.36.01-.74.03-1.14.02-.4.03-.78.03-1.14v-.78c0-.12-.01-.35-.03-.69-.02-.34-.03-.71-.03-1.11 0-.4-.01-.77-.03-1.11-.02-.34-.03-.59-.03-.75 0-.08.01-.3.03-.66.02-.36.03-.58.03-.66 0-.08-.01-.25-.03-.51-.02-.26-.03-.43-.03-.51v-.78Zm39 14.28c0-.16.01-.51.03-1.05.02-.54.03-.91.03-1.11v-1.11c0-.54-.01-1.11-.03-1.71-.02-.6-.03-1.18-.03-1.74v-1.71c0-.26.01-.53.03-.81.02-.28.03-.55.03-.81v-.57c0-.12-.01-.38-.03-.78l-.06-1.26-.06-1.26c-.02-.4-.03-.68-.03-.84 0-.52.08-1.14.24-1.86.16-.72.52-1.18 1.08-1.38.08-.04.38-.07.9-.09.52-.02 1.09-.04 1.71-.06.62-.02 1.21-.04 1.77-.06.56-.02.94-.03 1.14-.03.12 0 .33.01.63.03.3.02.63.03.99.03a16.183 16.183 0 0 0 1.56.12c.6 0 1.2-.04 1.8-.12.6-.08 1.2-.12 1.8-.12.08 0 .29.01.63.03.34.02.55.03.63.03.08 0 .24-.01.48-.03.24-.02.4-.03.48-.03.08 0 .26.02.54.06.28.04.46.06.54.06h.78c.48 0 1.01.06 1.59.18.58.12.93.22 1.05.3l.36.12.36.12c.24.08.48.14.72.18.24.04.48.1.72.18.16.08.31.17.45.27s.29.19.45.27c.16.08.31.12.45.12s.29.04.45.12c.12.08.25.15.39.21s.27.13.39.21c.16.08.32.14.48.18.16.04.32.1.48.18.12.08.49.32 1.11.72.62.4 1.33.96 2.13 1.68.8.72 1.62 1.6 2.46 2.64.84 1.04 1.56 2.22 2.16 3.54.04.08.13.29.27.63s.3.72.48 1.14c.18.42.34.81.48 1.17.14.36.23.58.27.66a95.382 95.382 0 0 1 .42 2.34c.08.48.14.93.18 1.35.04.42.06.71.06.87 0 .12-.01.38-.03.78-.02.4-.03.66-.03.78 0 .2.02.57.06 1.11.04.54.06.91.06 1.11 0 .24-.01.46-.03.66l-.06.63c-.02.22-.07.5-.15.84-.08.34-.18.79-.3 1.35-.08.48-.15.87-.21 1.17-.06.3-.12.55-.18.75-.06.2-.11.36-.15.48-.04.12-.1.26-.18.42-.08.2-.16.37-.24.51-.08.14-.16.31-.24.51-.08.2-.16.42-.24.66-.08.24-.16.46-.24.66-.12.2-.25.4-.39.6-.14.2-.29.4-.45.6-.16.24-.3.48-.42.72s-.26.48-.42.72c-.08.12-.27.34-.57.66-.3.32-.61.67-.93 1.05-.32.38-.63.73-.93 1.05-.3.32-.47.5-.51.54-.44.4-.98.8-1.62 1.2-.64.4-1.12.68-1.44.84-.32.12-.62.23-.9.33s-.58.19-.9.27l-1.26.54c-.32.12-.67.22-1.05.3-.38.08-.75.16-1.11.24-.56.12-1.09.22-1.59.3-.5.08-1.09.14-1.77.18-.68.04-1.51.06-2.49.06h-3.99c-.2 0-.55-.01-1.05-.03-.5-.02-1.04-.04-1.62-.06-.58-.02-1.13-.04-1.65-.06-.52-.02-.9-.03-1.14-.03h-1.8c-.24 0-.58-.01-1.02-.03-.44-.02-.87-.1-1.29-.24-.42-.14-.78-.35-1.08-.63-.3-.28-.45-.68-.45-1.2 0-.16.02-.49.06-.99.04-.5.06-.83.06-.99 0-.28-.01-.75-.03-1.41l-.06-2.07c-.02-.72-.04-1.38-.06-1.98-.02-.6-.03-.98-.03-1.14 0-.08.01-.44.03-1.08.02-.64.03-1.28.03-1.92.04-.72.07-1.47.09-2.25.02-.78.03-1.55.03-2.31 0-.12-.01-.31-.03-.57-.02-.26-.04-.54-.06-.84-.02-.3-.04-.58-.06-.84-.02-.26-.03-.45-.03-.57 0-.12.02-.4.06-.84.04-.44.06-.74.06-.9v-.84Zm14.64-8.16c-.2 0-.48.01-.84.03-.36.02-.74.05-1.14.09-.32.08-.54.14-.66.18-.12.04-.28.16-.48.36-.36.32-.67.67-.93 1.05s-.43 1.11-.51 2.19v2.64c0 .16-.01.45-.03.87-.02.42-.04.87-.06 1.35l-.06 1.38c-.02.44-.03.74-.03.9v1.92c0 .72.01 1.46.03 2.22l.06 2.19c.02.7.07 1.31.15 1.83.04.44.11.86.21 1.26.1.4.35.75.75 1.05.4.3 1.03.55 1.89.75.86.2 2.05.3 3.57.3h.72c.24 0 .48-.02.72-.06.56-.08 1.28-.28 2.16-.6.88-.32 1.54-.6 1.98-.84.84-.52 1.53-1.23 2.07-2.13.54-.9.96-1.82 1.26-2.76.3-.94.51-1.8.63-2.58s.18-1.29.18-1.53c0-.2-.01-.61-.03-1.23-.02-.62-.07-1.09-.15-1.41-.08-.32-.15-.61-.21-.87s-.13-.55-.21-.87c-.04-.2-.07-.39-.09-.57-.02-.18-.07-.37-.15-.57-.12-.24-.26-.47-.42-.69-.16-.22-.32-.45-.48-.69-.12-.16-.26-.4-.42-.72-.32-.52-.6-.89-.84-1.11-.24-.22-.62-.49-1.14-.81a3 3 0 0 1-.42-.3c-.2-.16-.41-.33-.63-.51-.22-.18-.43-.34-.63-.48-.2-.14-.34-.23-.42-.27-.36-.2-.81-.36-1.35-.48s-1.07-.22-1.59-.3c-.52-.08-1.01-.13-1.47-.15-.46-.02-.79-.03-.99-.03Zm25.2 4.26c0-.12.01-.31.03-.57.02-.26.04-.55.06-.87.02-.32.04-.61.06-.87.02-.26.03-.45.03-.57 0-.44-.02-.89-.06-1.35-.04-.46-.06-.91-.06-1.35 0-.16.03-.52.09-1.08s.09-.92.09-1.08c0-.16-.01-.43-.03-.81-.02-.38-.05-.79-.09-1.23-.04-.44-.07-.85-.09-1.23-.02-.38-.03-.65-.03-.81 0-.52.15-1.07.45-1.65.3-.58.69-.91 1.17-.99.08 0 .26.01.54.03.28.02.46.03.54.03.16 0 .51-.01 1.05-.03.54-.02.89-.03 1.05-.03.4 0 .8.01 1.2.03.4.02.8.03 1.2.03.08 0 .29-.01.63-.03.34-.02.57-.03.69-.03.32 0 .56.06.72.18.16.12.32.28.48.48.24.32.42.59.54.81.12.22.18.57.18 1.05 0 .16-.01.51-.03 1.05-.02.54-.03.91-.03 1.11 0 .16.01.49.03.99.02.5.03.85.03 1.05 0 .12-.01.31-.03.57-.02.26-.03.55-.03.87 0 .32-.01.62-.03.9-.02.28-.03.48-.03.6 0 .68.02 1.38.06 2.1.04.72.06 1.42.06 2.1v.54c0 .24-.01.5-.03.78-.02.28-.03.54-.03.78v3.33c0 .26-.01.53-.03.81-.02.28-.03.54-.03.78v.54c0 .12.01.36.03.72.02.36.03.73.03 1.11 0 .38.01.75.03 1.11.02.36.03.62.03.78v.78c0 .4-.01.83-.03 1.29-.02.46-.03.88-.03 1.26v.75c-.04.28-.07.55-.09.81-.02.26-.03.53-.03.81 0 .08.01.24.03.48.02.24.03.5.03.78s.01.54.03.78c.02.24.03.42.03.54V90c0 .16.03.5.09 1.02s.09.88.09 1.08c0 .56-.2.99-.6 1.29-.4.3-.82.45-1.26.45-.08 0-.32-.02-.72-.06-.4-.04-.66-.06-.78-.06-.2 0-.6.02-1.2.06-.6.04-1 .06-1.2.06-.12 0-.39-.02-.81-.06-.42-.04-.69-.06-.81-.06-.08 0-.3.02-.66.06-.36.04-.58.06-.66.06-.64 0-1.11-.19-1.41-.57-.3-.38-.47-.69-.51-.93-.04-.08-.06-.31-.06-.69v-.63a11.427 11.427 0 0 1 .12-1.68 22.267 22.267 0 0 0 .12-2.34c0-.24-.01-.68-.03-1.32-.02-.64-.03-1.33-.03-2.07 0-.74-.01-1.44-.03-2.1-.02-.66-.03-1.13-.03-1.41 0-.08.02-.25.06-.51.04-.26.06-.43.06-.51 0-.12-.03-.37-.09-.75s-.09-.63-.09-.75c0-.16.01-.46.03-.9.02-.44.05-.92.09-1.44.04-.52.07-1.01.09-1.47.02-.46.03-.79.03-.99 0-.72-.03-1.43-.09-2.13s-.09-1.39-.09-2.07v-2.46Zm15.24 4.38c0-.12.02-.43.06-.93.04-.5.06-.85.06-1.05v-.51c0-.26.01-.55.03-.87.02-.32.03-.61.03-.87v-.51c0-.12-.01-.38-.03-.78-.02-.4-.03-.68-.03-.84 0-.08.01-.29.03-.63.02-.34.03-.55.03-.63 0-.12-.01-.37-.03-.75-.02-.38-.05-.63-.09-.75V59.4c0-.24-.02-.65-.06-1.23-.04-.58-.08-1.19-.12-1.83a73.265 73.265 0 0 1-.12-2.64c0-.44.08-.78.24-1.02.16-.24.48-.52.96-.84.28-.2.6-.3.96-.3h.42l.06.06H179.21c.3 0 .61-.01.93-.03.32-.02.61-.03.87-.03h.69c.08 0 .15-.01.21-.03.06-.02.13-.03.21-.03.16 0 .36-.02.6-.06.36 0 .67.02.93.06.26.04.52.18.78.42s.55.6.87 1.08c.32.48.74 1.14 1.26 1.98.28.44.62.95 1.02 1.53.4.58.74 1.09 1.02 1.53.12.2.23.4.33.6.1.2.21.4.33.6.12.2.26.4.42.6l.48.6c.12.16.36.49.72.99s.6.83.72.99c.36.52.8 1.12 1.32 1.8.52.68.98 1.28 1.38 1.8.32.44.69.9 1.11 1.38.42.48.81.72 1.17.72.44 0 .82-.22 1.14-.66.32-.44.58-.84.78-1.2.08-.12.22-.32.42-.6a78.717 78.717 0 0 0 1.26-1.83l.42-.63.36-.6.36-.6c.2-.32.41-.62.63-.9.22-.28.43-.58.63-.9.08-.2.17-.38.27-.54.1-.16.19-.32.27-.48.2-.4.4-.78.6-1.14l.6-1.08c.24-.48.46-.96.66-1.44s.44-.94.72-1.38c.2-.28.4-.6.6-.96.08-.16.16-.31.24-.45.08-.14.16-.27.24-.39.08-.08.28-.23.6-.45.32-.22.7-.33 1.14-.33.12 0 .32.01.6.03.28.02.59.03.93.03.34 0 .65.01.93.03.28.02.48.03.6.03.28 0 .55-.02.81-.06.26-.04.51-.06.75-.06.12 0 .35.02.69.06.34.04.55.06.63.06.56 0 1.03.21 1.41.63.38.42.57.83.57 1.23 0 .08-.02.37-.06.87-.04.5-.06.83-.06.99-.04.56-.06 1.11-.06 1.65v5.67a12.529 12.529 0 0 1-.12 1.32 12.529 12.529 0 0 0-.12 1.38c0 .2.01.55.03 1.05.02.5.05 1.04.09 1.62.04.58.07 1.12.09 1.62.02.5.03.87.03 1.11 0 .16-.01.53-.03 1.11-.02.58-.03.97-.03 1.17 0 .2.01.56.03 1.08.02.52.04 1.08.06 1.68.02.6.04 1.17.06 1.71.02.54.03.93.03 1.17v.84c0 .4-.01.82-.03 1.26-.02.44-.03.87-.03 1.29v1.65c0 .12-.02.32-.06.6-.04.28-.08.59-.12.93-.04.34-.08.66-.12.96-.04.3-.06.51-.06.63s.02.32.06.6c.04.28.07.58.09.9.02.32.05.63.09.93.04.3.06.51.06.63 0 .08-.01.29-.03.63-.02.34-.03.57-.03.69v.6c0 .68-.25 1.19-.75 1.53-.5.34-1.21.51-2.13.51h-.57c-.26 0-.53-.01-.81-.03-.28-.02-.55-.03-.81-.03h-2.25c-.08 0-.3.01-.66.03-.36.02-.6.03-.72.03-.24 0-.53-.12-.87-.36-.34-.24-.51-.7-.51-1.38 0-.12-.02-.39-.06-.81-.04-.42-.06-.69-.06-.81 0-.08.01-.25.03-.51.02-.26.03-.53.03-.81s.01-.55.03-.81c.02-.26.03-.45.03-.57 0-.2-.01-.57-.03-1.11-.02-.54-.03-.89-.03-1.05 0-.2.02-.6.06-1.2.04-.6.06-1 .06-1.2 0-.28-.01-.56-.03-.84-.02-.28-.03-.56-.03-.84 0-.16.02-.5.06-1.02.04-.52.06-.88.06-1.08v-2.04c0-.08-.02-.26-.06-.54-.04-.28-.06-.46-.06-.54 0-.2-.11-.42-.33-.66-.22-.24-.45-.36-.69-.36-.56 0-1.08.24-1.56.72s-.82.86-1.02 1.14c-.28.32-.54.64-.78.96-.24.32-.52.64-.84.96l-.9.9c-.16.16-.38.44-.66.84-.6.88-1.06 1.44-1.38 1.68-.32.24-.76.36-1.32.36-.2 0-.44-.08-.72-.24-.36-.2-.6-.36-.72-.48s-.34-.4-.66-.84c-.16-.24-.37-.53-.63-.87-.26-.34-.53-.69-.81-1.05-.28-.36-.57-.71-.87-1.05-.3-.34-.55-.63-.75-.87-.12-.12-.24-.23-.36-.33s-.22-.21-.3-.33c-.12-.12-.23-.25-.33-.39s-.21-.29-.33-.45c-.64-.92-1.14-1.56-1.5-1.92-.36-.36-.7-.54-1.02-.54-.2 0-.43.04-.69.12-.26.08-.45.18-.57.3 0 .04-.1.24-.3.6-.2.36-.3.98-.3 1.86v3.18c0 .2.01.62.03 1.26.02.64.03 1.06.03 1.26 0 .12-.02.31-.06.57-.04.26-.07.54-.09.84-.02.3-.05.58-.09.84-.04.26-.06.45-.06.57 0 .2.01.56.03 1.08.02.52.03 1.08.03 1.68 0 .6.01 1.16.03 1.68.02.52.03.9.03 1.14 0 .12.01.41.03.87.02.46.03.75.03.87 0 .64-.22 1.09-.66 1.35-.44.26-.86.39-1.26.39a16.183 16.183 0 0 1-1.5-.12c-.32 0-.64-.01-.96-.03-.32-.02-.54-.03-.66-.03-.08 0-.24.01-.48.03-.24.02-.5.03-.78.03a8.847 8.847 0 0 1-1.26.12c-.72 0-1.18-.09-1.38-.27-.2-.18-.4-.43-.6-.75-.16-.32-.26-.55-.3-.69-.04-.14-.06-.33-.06-.57v-.66c0-.32.01-.67.03-1.05.02-.38.03-.74.03-1.08v-.69c0-.16-.01-.49-.03-.99-.02-.5-.03-.83-.03-.99 0-.68.03-1.33.09-1.95.06-.62.09-1.25.09-1.89v-.69c0-.34-.01-.71-.03-1.11-.02-.4-.03-.77-.03-1.11v-3.09c0-.16-.01-.52-.03-1.08-.02-.56-.03-.94-.03-1.14 0-.44.02-.85.06-1.23.04-.38.06-.79.06-1.23 0-.08-.01-.28-.03-.6-.02-.32-.03-.54-.03-.66Zm58.32-18.96c.12 0 .44-.02.96-.06.52-.04.86-.06 1.02-.06.16 0 .51-.01 1.05-.03.54-.02.91-.03 1.11-.03.12 0 .36.01.72.03.36.02.74.04 1.14.06.4.02.78.04 1.14.06.36.02.62.03.78.03.2 0 .6-.02 1.2-.06.6-.04 1-.06 1.2-.06.72 0 1.24.18 1.56.54.32.36.48.84.48 1.44 0 .12-.01.42-.03.9-.02.48-.03.8-.03.96 0 .12.01.31.03.57.02.26.04.54.06.84.02.3.04.58.06.84.02.26.03.45.03.57 0 .36-.03.61-.09.75s-.25.41-.57.81c-.16.2-.27.33-.33.39s-.21.13-.45.21c-.24.08-.46.15-.66.21s-.46.09-.78.09c-.16 0-.46-.01-.9-.03-.44-.02-.74-.03-.9-.03-.08 0-.25.01-.51.03-.26.02-.53.03-.81.03s-.55.01-.81.03c-.26.02-.45.03-.57.03-.28 0-.5-.02-.66-.06-.28 0-.54-.02-.78-.06-.24-.04-.5-.08-.78-.12-.28-.04-.54-.06-.78-.06h-.78c-1.68 0-2.82.18-3.42.54-.6.36-.9 1.16-.9 2.4 0 .72.01 1.32.03 1.8.02.48.09.88.21 1.2.12.32.32.57.6.75.28.18.66.31 1.14.39.68.08 1.12.13 1.32.15.2.02.5.03.9.03.12 0 .33-.01.63-.03.3-.02.62-.04.96-.06l.99-.06c.32-.02.54-.03.66-.03a15.208 15.208 0 0 1 1.35.12c.3.04.58.07.84.09.26.02.45.03.57.03.4 0 .8-.02 1.2-.06.4-.04.8-.06 1.2-.06h.9c.36 0 .62.04.78.12.08.08.28.26.6.54.32.28.48.7.48 1.26-.04.28-.06.52-.06.72 0 .2-.01.39-.03.57-.02.18-.03.31-.03.39-.04.48-.06.84-.06 1.08v1.32c0 .24-.01.42-.03.54-.02.12-.05.34-.09.66-.04.2-.09.42-.15.66-.06.24-.18.47-.36.69-.18.22-.43.41-.75.57-.32.16-.78.24-1.38.24h-3.06c-.12 0-.38-.01-.78-.03-.4-.02-.66-.03-.78-.03-.08 0-.29.01-.63.03-.34.02-.55.03-.63.03-.12 0-.43-.03-.93-.09s-.83-.09-.99-.09c-.32 0-.62.02-.9.06-.28.04-.58.06-.9.06h-.48c-.2 0-.43.03-.69.09-.26.06-.45.13-.57.21-.28.12-.49.29-.63.51-.14.22-.24.46-.3.72-.06.26-.1.51-.12.75-.02.24-.03.42-.03.54 0 .96.02 1.77.06 2.43.04.66.21 1.19.51 1.59.3.4.78.69 1.44.87.66.18 1.59.27 2.79.27.2 0 .61-.01 1.23-.03.62-.02 1.03-.03 1.23-.03.16 0 .49.01.99.03.5.02.85.03 1.05.03h.63c.3 0 .62-.01.96-.03.34-.02.66-.04.96-.06.3-.02.51-.03.63-.03.2-.04.41-.06.63-.06h.63c.16 0 .54.06 1.14.18.6.12 1.04.44 1.32.96.2.44.32.9.36 1.38.04.48.06.86.06 1.14v.42c.04.28.09.56.15.84.06.28.11.56.15.84v1.56c0 .2-.01.41-.03.63-.02.22-.1.43-.24.63-.14.2-.35.37-.63.51s-.66.21-1.14.21c-.08 0-.21-.01-.39-.03-.18-.02-.37-.03-.57-.03-.2-.04-.41-.06-.63-.06h-.45c-.08 0-.25.01-.51.03-.26.02-.55.03-.87.03-.32.04-.61.07-.87.09-.26.02-.45.03-.57.03-.08 0-.25-.01-.51-.03-.26-.02-.55-.03-.87-.03-.32-.04-.61-.06-.87-.06h-.57c-.04 0-.32.01-.84.03-.52.02-1.1.03-1.74.03a78.283 78.283 0 0 1-3 .12c-.2 0-.54-.01-1.02-.03-.48-.02-1-.05-1.56-.09-.56 0-1.09-.01-1.59-.03-.5-.02-.85-.03-1.05-.03h-1.92c-.4.04-.78.06-1.14.06h-.78c-.16 0-.41-.02-.75-.06-.34-.04-.67-.2-.99-.48-.24-.2-.46-.52-.66-.96-.2-.44-.3-.88-.3-1.32 0-.12.01-.39.03-.81.02-.42.03-.69.03-.81 0-.36-.02-.71-.06-1.05-.04-.34-.06-.69-.06-1.05v-1.08c0-.12-.01-.3-.03-.54-.02-.24-.03-.51-.03-.81 0-.3-.01-.57-.03-.81a7.12 7.12 0 0 1-.03-.54c0-.52.01-1.12.03-1.8.02-.68.03-1.28.03-1.8 0-.12.01-.38.03-.78.02-.4.03-.66.03-.78v-.48c0-.24-.01-.49-.03-.75-.02-.26-.03-.51-.03-.75v-.54c0-.16-.01-.52-.03-1.08-.02-.56-.03-.94-.03-1.14V69.03c0-.14.02-.31.06-.51 0-.12.02-.39.06-.81.04-.42.06-.69.06-.81 0-.2-.03-.62-.09-1.26s-.09-1.06-.09-1.26c0-.48.02-.95.06-1.41.04-.46.06-.91.06-1.35 0-.08.01-.27.03-.57.02-.3.03-.62.03-.96 0-.34.01-.66.03-.96.02-.3.03-.49.03-.57 0-.12-.01-.32-.03-.6-.02-.28-.04-.59-.06-.93-.02-.34-.04-.65-.06-.93-.02-.28-.03-.48-.03-.6 0-.92.03-1.54.09-1.86.06-.32.13-.54.21-.66.08-.2.28-.5.6-.9.32-.4.82-.6 1.5-.6.2 0 .58.01 1.14.03.56.02.94.03 1.14.03.12 0 .34-.01.66-.03.32-.02.66-.03 1.02-.03s.71-.01 1.05-.03c.34-.02.57-.03.69-.03s.32.01.6.03c.28.02.57.03.87.03.3 0 .59.01.87.03.28.02.48.03.6.03h2.22Zm16.38 4.2c0-.12-.03-.41-.09-.87s-.09-.77-.09-.93v-.72c0-.24.04-.46.12-.66.08-.2.22-.41.42-.63.2-.22.46-.33.78-.33.08 0 .28.03.6.09.32.06.54.09.66.09h.36c.12-.04.3-.06.54-.06H254.84l.12.06h.6c.12 0 .26-.02.42-.06h.78c.2 0 .52.01.96.03.44.02.76.07.96.15.08.04.16.07.24.09.08.02.16.05.24.09.2.08.39.1.57.06.18-.04.37-.02.57.06.2.08.42.22.66.42.24.2.38.32.42.36.12.16.37.51.75 1.05s.76 1.12 1.14 1.74a170.237 170.237 0 0 0 1.71 2.73c.16.16.32.36.48.6.12.2.23.38.33.54.1.16.21.32.33.48.28.48.51.86.69 1.14a28.12 28.12 0 0 1 .75 1.23c.08.14.16.31.24.51.2.4.45.83.75 1.29.3.46.61.89.93 1.29.56.84 1.1 1.7 1.62 2.58.52.88 1 1.78 1.44 2.7.08.16.27.5.57 1.02.3.52.49.88.57 1.08l.54.81c.2.3.34.45.42.45.32 0 .49-.29.51-.87.02-.58.03-1.15.03-1.71 0-.12.01-.39.03-.81.02-.42.03-.69.03-.81 0-.2-.01-.39-.03-.57-.02-.18-.03-.37-.03-.57 0-.16.02-.47.06-.93.04-.46.06-.77.06-.93 0-.16-.03-.52-.09-1.08s-.09-.94-.09-1.14c0-.08.01-.24.03-.48l.06-.75.06-.75c.02-.24.03-.42.03-.54 0-.12-.01-.32-.03-.6l-.06-.87-.06-.87c-.02-.28-.03-.48-.03-.6v-4.38c0-.08-.02-.33-.06-.75-.04-.42-.06-.71-.06-.87 0-.44.12-.77.36-.99.24-.22.44-.37.6-.45.08-.04.22-.06.42-.06H279.56c.2 0 .42.02.66.06.2 0 .41.01.63.03.22.02.37.03.45.03.2 0 .4-.01.6-.03.2-.02.4-.03.6-.03.08 0 .26-.02.54-.06.28-.04.46-.06.54-.06.32 0 .66.17 1.02.51.36.34.54.91.54 1.71 0 .12-.01.3-.03.54-.02.24-.04.51-.06.81-.02.3-.04.58-.06.84-.02.26-.03.45-.03.57v.54c0 .28.01.57.03.87.02.3.03.58.03.84v1.29c0 .36-.01.75-.03 1.17-.02.42-.03.81-.03 1.17V66.3c0 .28-.02.58-.06.9 0 .12-.01.34-.03.66-.02.32-.04.66-.06 1.02l-.06 1.05c-.02.34-.03.57-.03.69s.01.32.03.6c.02.28.03.58.03.9 0 .32.01.63.03.93.02.3.03.51.03.63.04.64.05 1.4.03 2.28a104.278 104.278 0 0 0 0 5.07c.02 1.06.03 1.99.03 2.79 0 .16-.01.31-.03.45-.02.14-.03.27-.03.39-.04.2-.07.39-.09.57-.02.18-.03.37-.03.57 0 .12.01.39.03.81.02.42.03.69.03.81 0 .16.02.44.06.84.04.4.08.83.12 1.29.04.46.08.9.12 1.32.04.42.06.71.06.87 0 .16-.01.35-.03.57-.02.22-.1.44-.24.66-.14.22-.36.41-.66.57-.3.16-.73.24-1.29.24h-.48c-.16 0-.32-.02-.48-.06-.08 0-.27.01-.57.03-.3.02-.49.03-.57.03-.16 0-.51-.02-1.05-.06-.54-.04-.89-.06-1.05-.06-.12 0-.36.02-.72.06-.36.04-.6.06-.72.06-.68 0-1.23-.26-1.65-.78a8.84 8.84 0 0 1-1.11-1.8c-.12-.28-.23-.5-.33-.66a9.488 9.488 0 0 0-.57-.84c-.12-.16-.26-.38-.42-.66-.36-.48-.7-.98-1.02-1.5-.32-.52-.62-1.04-.9-1.56-.56-1.04-1.05-1.9-1.47-2.58-.42-.68-.65-1.06-.69-1.14-.12-.2-.25-.39-.39-.57-.14-.18-.29-.37-.45-.57-.12-.2-.24-.41-.36-.63-.12-.22-.26-.43-.42-.63l-.6-.84-.6-.84-.72-1.26c-.2-.32-.41-.66-.63-1.02-.22-.36-.43-.7-.63-1.02-.24-.4-.46-.8-.66-1.2l-.6-1.2a3.35 3.35 0 0 0-.27-.45c-.1-.14-.21-.27-.33-.39-.12-.08-.28-.19-.48-.33-.2-.14-.38-.21-.54-.21-.04 0-.16.05-.36.15-.2.1-.34.43-.42.99 0 .12-.01.32-.03.6-.02.28-.04.59-.06.93-.02.34-.04.66-.06.96-.02.3-.03.51-.03.63s.01.39.03.81c.02.42.03.71.03.87 0 .08-.01.32-.03.72-.02.4-.03.66-.03.78v1.38c0 .08-.01.31-.03.69-.02.38-.03.63-.03.75v.39c0 .18.02.37.06.57.04.2.06.59.06 1.17v1.35c0 .12.02.44.06.96.04.52.06.86.06 1.02.04.16.05.5.03 1.02-.02.52-.03.88-.03 1.08 0 .28.02.48.06.6 0 .16.04.49.12.99.08.5.12.83.12.99 0 .48-.22.91-.66 1.29-.44.38-.74.59-.9.63-.08.04-.27.05-.57.03-.3-.02-.49-.03-.57-.03-.12 0-.41.04-.87.12-.46.08-.77.12-.93.12-.08.04-.3.06-.66.06h-.66c-.16 0-.51.02-1.05.06-.54.04-.89.06-1.05.06-.48 0-.85-.05-1.11-.15-.26-.1-.43-.19-.51-.27-.4-.28-.62-.54-.66-.78-.04-.24-.06-.48-.06-.72v-3.18c0-.12.01-.34.03-.66.02-.32.03-.66.03-1.02s.01-.71.03-1.05c.02-.34.03-.57.03-.69s-.01-.4-.03-.84c-.02-.44-.03-.74-.03-.9v-1.5c0-.08.01-.26.03-.54.02-.28.03-.57.03-.87 0-.3.01-.58.03-.84.02-.26.03-.45.03-.57 0-.08-.02-.35-.06-.81-.04-.46-.06-.75-.06-.87a5.73 5.73 0 0 1-.06-.81v-.75a92.467 92.467 0 0 1 .12-4.68c.08-.64.12-1.03.12-1.17v-.51c0-.56-.03-1.12-.09-1.68-.06-.56-.11-1.12-.15-1.68v-.72c0-.36.01-.74.03-1.14.02-.4.03-.78.03-1.14v-.78c0-.12-.01-.35-.03-.69-.02-.34-.03-.71-.03-1.11 0-.4-.01-.77-.03-1.11-.02-.34-.03-.59-.03-.75 0-.08.01-.3.03-.66.02-.36.03-.58.03-.66 0-.08-.01-.25-.03-.51-.02-.26-.03-.43-.03-.51v-.78Zm36.78-.84c-.04-.08-.05-.31-.03-.69.02-.38.03-.63.03-.75 0-.8.27-1.32.81-1.56s1.09-.36 1.65-.36c.12 0 .31.01.57.03.26.02.55.03.87.03.32 0 .61.01.87.03.26.02.45.03.57.03h.66c.32 0 .67-.01 1.05-.03.38-.02.74-.03 1.08-.03h.69c.12 0 .32.01.6.03.28.02.59.03.93.03.34 0 .67.01.99.03.32.02.54.03.66.03s.31-.01.57-.03c.26-.02.55-.03.87-.03.32 0 .61-.01.87-.03.26-.02.45-.03.57-.03.12 0 .36.01.72.03.36.02.58.03.66.03.12 0 .37-.02.75-.06.38-.04.63-.06.75-.06.08 0 .27.01.57.03.3.02.49.03.57.03.08 0 .32-.01.72-.03.4-.02.66-.03.78-.03s.39.02.81.06c.42.04.69.06.81.06.08 0 .29-.01.63-.03.34-.02.55-.03.63-.03.2 0 .59.03 1.17.09s.97.09 1.17.09c.12 0 .41-.03.87-.09s.77-.09.93-.09c.16 0 .3.01.42.03.12.02.28.07.48.15.24.08.45.17.63.27s.33.35.45.75c.08.2.12.41.12.63v2.04c0 .22.01.46.03.72.02.26.03.5.03.72v1.35c0 .08.01.24.03.48.02.24.03.4.03.48 0 .52-.18.95-.54 1.29-.36.34-.8.57-1.32.69-.2.04-.4.06-.6.06h-1.38c-1.28 0-2.24.04-2.88.12-.64.08-1.18.32-1.62.72-.04.04-.18.21-.42.51-.24.3-.4.51-.48.63 0 .08-.03.4-.09.96-.06.56-.11.94-.15 1.14 0 .12-.01.37-.03.75l-.06 1.2-.06 1.2c-.02.38-.03.63-.03.75s.02.43.06.93c.04.5.06.83.06.99 0 .12-.02.41-.06.87-.04.46-.06.77-.06.93 0 .32.02.82.06 1.5.04.68.08 1.34.12 1.98v1.8c0 .16.02.49.06.99.04.5.06.85.06 1.05 0 .44-.03.9-.09 1.38-.06.48-.09.96-.09 1.44 0 .08.01.24.03.48.02.24.04.5.06.78.02.28.04.54.06.78.02.24.03.42.03.54v2.52c0 .12-.02.4-.06.84-.04.44-.06.72-.06.84 0 .16.02.49.06.99.04.5.06.83.06.99 0 .6-.25 1.07-.75 1.41-.5.34-1.19.51-2.07.51h-1.68c-.08 0-.32.01-.72.03-.4.02-.66.03-.78.03s-.39-.03-.81-.09c-.42-.06-.69-.09-.81-.09-.08 0-.28.02-.6.06-.32.04-.52.06-.6.06-.52 0-.87-.16-1.05-.48-.18-.32-.31-.64-.39-.96-.08-.28-.13-.47-.15-.57-.02-.1-.01-.31.03-.63v-.72c0-.36.02-.71.06-1.05.04-.34.06-.69.06-1.05v-5.34c0-.12-.01-.36-.03-.72-.02-.36-.03-.73-.03-1.11 0-.38-.01-.75-.03-1.11-.02-.36-.03-.62-.03-.78 0-.08.01-.24.03-.48l.06-.75.06-.75c.02-.24.03-.42.03-.54 0-.28-.01-.54-.03-.78-.02-.24-.03-.5-.03-.78 0-.16.03-.48.09-.96s.09-.8.09-.96c0-.12-.01-.31-.03-.57-.02-.26-.04-.54-.06-.84-.02-.3-.04-.58-.06-.84-.02-.26-.03-.45-.03-.57v-.63c0-.3.01-.63.03-.99.02-.36.03-.7.03-1.02v-.66c0-.16-.02-.54-.06-1.14-.04-.6-.06-1-.06-1.2 0-.08.01-.21.03-.39.02-.18.03-.31.03-.39 0-.04-.01-.16-.03-.36-.02-.2-.07-.42-.15-.66-.08-.24-.2-.49-.36-.75-.16-.26-.4-.49-.72-.69-.44-.28-1.01-.45-1.71-.51s-1.53-.09-2.49-.09h-.6c-.2 0-.4.02-.6.06-.4.08-.74.12-1.02.12-.44 0-.95-.21-1.53-.63-.58-.42-.87-.99-.87-1.71v-.39c0-.26.01-.55.03-.87.02-.32.03-.62.03-.9V54.9ZM65.96 22.6c0-.24.02-.46.06-.66.04-.2.1-.62.18-1.26.12-.76.22-1.51.3-2.25.08-.74.22-1.47.42-2.19.32-1.12.77-2.18 1.35-3.18.58-1 .99-1.66 1.23-1.98l.48-.6c.32-.4.72-.86 1.2-1.38.48-.52.99-1.04 1.53-1.56s1.01-.9 1.41-1.14c.64-.4 1.3-.75 1.98-1.05.68-.3 1.38-.57 2.1-.81.88-.28 1.64-.5 2.28-.66.64-.16 1.25-.27 1.83-.33.58-.06 1.16-.1 1.74-.12.58-.02 1.23-.03 1.95-.03.04 0 .2.01.48.03.28.02.58.04.9.06.32.02.61.04.87.06.26.02.43.03.51.03.52.12.88.33 1.08.63.2.3.3.91.3 1.83 0 .4-.02.8-.06 1.2-.04.4-.06.8-.06 1.2 0 .08.01.24.03.48.02.24.03.5.03.78s.01.54.03.78c.02.24.03.42.03.54 0 .64-.06 1.1-.18 1.38-.36.48-.86.72-1.5.72-.2 0-.5-.04-.9-.12-.32-.04-.62-.08-.9-.12-.28-.04-.58-.06-.9-.06-.88 0-1.71.12-2.49.36-.78.24-1.49.53-2.13.87-.64.34-1.19.71-1.65 1.11-.46.4-.81.74-1.05 1.02-.08.08-.21.29-.39.63-.18.34-.38.7-.6 1.08-.22.38-.43.75-.63 1.11-.2.36-.32.6-.36.72-.16.44-.27 1.07-.33 1.89-.06.82-.09 1.79-.09 2.91 0 .48.07 1.12.21 1.92.14.8.39 1.68.75 2.64.36.96.84 1.94 1.44 2.94s1.34 1.9 2.22 2.7c.4.4.89.73 1.47.99s1.14.46 1.68.6c.54.14 1.02.23 1.44.27.42.04.69.06.81.06.16 0 .47-.02.93-.06.46-.04.77-.1.93-.18.08 0 .23-.03.45-.09s.37-.09.45-.09c.56 0 .93.21 1.11.63.18.42.27.83.27 1.23 0 .08-.01.3-.03.66-.02.36-.03.6-.03.72 0 .08.02.31.06.69.04.38.06.61.06.69 0 .16-.03.51-.09 1.05s-.09.89-.09 1.05v1.08c0 .28-.04.57-.12.87-.08.3-.38.59-.9.87-.28.2-.57.32-.87.36-.3.04-.61.06-.93.06-.08 0-.31-.01-.69-.03-.38-.02-.78-.03-1.2-.03-.42 0-.82-.01-1.2-.03-.38-.02-.59-.03-.63-.03-.28-.04-.54-.07-.78-.09-.24-.02-.5-.05-.78-.09-.52-.08-.94-.15-1.26-.21-.32-.06-.61-.13-.87-.21-.26-.08-.53-.18-.81-.3s-.66-.3-1.14-.54c-.4-.16-.8-.35-1.2-.57-.4-.22-.94-.59-1.62-1.11l-1.44-1.26c-.32-.32-.67-.6-1.05-.84s-.73-.52-1.05-.84c-.16-.12-.3-.25-.42-.39a8.08 8.08 0 0 0-.42-.45c-.68-.8-1.19-1.52-1.53-2.16-.34-.64-.73-1.38-1.17-2.22-.44-.96-.83-1.88-1.17-2.76-.34-.88-.57-1.98-.69-3.3 0-.08-.02-.27-.06-.57-.04-.3-.07-.63-.09-.99-.02-.36-.04-.69-.06-.99-.02-.3-.03-.49-.03-.57 0-.08.02-.31.06-.69.04-.38.06-.63.06-.75s-.01-.38-.03-.78c-.02-.4-.03-.66-.03-.78ZM93.68 7.3c0-.36.02-.84.06-1.44.04-.6.16-1.02.36-1.26.2-.28.53-.46.99-.54.46-.08.71-.12.75-.12.12 0 .4.01.84.03.44.02.72.03.84.03.08 0 .28.01.6.03.32.02.52.03.6.03.08 0 .28-.02.6-.06.32-.04.52-.06.6-.06.08 0 .22.01.42.03.2.02.34.03.42.03h1.62c.28 0 .48.02.6.06.12.08.32.25.6.51.28.26.42.71.42 1.35 0 .4-.02.7-.06.9 0 .04-.01.29-.03.75-.02.46-.04.97-.06 1.53-.02.56-.04 1.08-.06 1.56l-.03.72c0 .08.01.35.03.81.02.46.04.97.06 1.53.02.56.05 1.08.09 1.56.04.48.06.74.06.78.04.72.16 1.29.36 1.71.2.42.45.73.75.93.3.2.62.32.96.36.34.04.67.06.99.06h3c.12 0 .33.01.63.03.3.02.62.04.96.06l.99.06c.32.02.54.03.66.03.44 0 1.01-.04 1.71-.12.7-.08 1.33-.26 1.89-.54.88-.48 1.4-1.05 1.56-1.71.16-.66.24-1.15.24-1.47v-.63c0-.3-.01-.62-.03-.96-.02-.34-.03-.67-.03-.99v-.66c0-.12.01-.41.03-.87.02-.46.03-.75.03-.87s-.01-.36-.03-.72c-.02-.36-.04-.74-.06-1.14-.02-.4-.04-.78-.06-1.14-.02-.36-.03-.62-.03-.78 0-.44.01-.81.03-1.11.02-.3.13-.55.33-.75l.42-.42c.2-.2.46-.3.78-.3.24 0 .42.02.54.06.12.04.28.06.48.06h.27c.1 0 .23-.02.39-.06.12 0 .24-.01.36-.03.12-.02.22-.03.3-.03.32 0 .57.01.75.03.18.02.31.03.39.03.04 0 .16.02.36.06.2.04.34.06.42.06.2 0 .4-.02.6-.06l.6-.12c.16-.04.38-.06.66-.06.84 0 1.49.1 1.95.3.46.2.69.86.69 1.98 0 .12-.01.33-.03.63-.02.3-.04.63-.06.99-.02.36-.04.7-.06 1.02-.02.32-.03.54-.03.66 0 .08.01.23.03.45.02.22.03.46.03.72 0 .26.01.5.03.72.02.22.03.39.03.51 0 .16-.01.43-.03.81-.02.38-.04.79-.06 1.23l-.06 1.26c-.02.4-.03.68-.03.84 0 .12.01.31.03.57.02.26.03.55.03.87 0 .32.01.62.03.9.02.28.03.48.03.6s-.01.31-.03.57c-.02.26-.03.54-.03.84 0 .3-.01.58-.03.84-.02.26-.03.45-.03.57v.48c0 .24.01.5.03.78.02.28.03.54.03.78v1.23c0 .34-.01.7-.03 1.08-.02.38-.03.75-.03 1.11V30.34c0 .16-.01.48-.03.96-.02.48-.03.8-.03.96 0 .16.01.47.03.93.02.46.03.75.03.87 0 .6-.02 1.19-.06 1.77-.04.58-.06 1.15-.06 1.71 0 .16.01.44.03.84l.06 1.26.06 1.29c.02.42.03.71.03.87v2.34c0 .44-.13.87-.39 1.29-.26.42-.77.63-1.53.63-.12 0-.4-.01-.84-.03-.44-.02-.72-.03-.84-.03s-.33.01-.63.03c-.3.02-.61.03-.93.03-.32 0-.64.01-.96.03-.32.02-.54.03-.66.03-.44 0-.96-.04-1.56-.12-.6-.08-1.06-.32-1.38-.72-.04-.08-.16-.35-.36-.81-.2-.46-.3-.87-.3-1.23 0-.12.01-.36.03-.72.02-.36.04-.75.06-1.17l.06-1.23c.02-.4.03-.68.03-.84 0-.12-.01-.42-.03-.9-.02-.48-.03-.8-.03-.96 0-.16.01-.5.03-1.02.02-.52.03-.88.03-1.08v-.72c0-.36-.01-.74-.03-1.14-.02-.4-.04-.77-.06-1.11-.02-.34-.03-.57-.03-.69-.08-.76-.28-1.26-.6-1.5-.32-.24-.5-.38-.54-.42-.04 0-.17-.02-.39-.06-.22-.04-.45-.08-.69-.12-.32-.04-.66-.1-1.02-.18-.12-.04-.4-.05-.84-.03-.44.02-.72.03-.84.03-.08 0-.27-.01-.57-.03-.3-.02-.49-.03-.57-.03h-1.92c-.12 0-.41-.01-.87-.03-.46-.02-.77-.03-.93-.03-.2 0-.67.03-1.41.09-.74.06-1.33.21-1.77.45-.32.2-.59.45-.81.75-.22.3-.39.61-.51.93-.12.32-.21.62-.27.9-.06.28-.09.48-.09.6 0 .16.01.32.03.48.02.16.03.34.03.54 0 .08-.01.26-.03.54-.02.28-.03.46-.03.54 0 .12.01.37.03.75.02.38.03.63.03.75s-.01.33-.03.63c-.02.3-.03.61-.03.93 0 .32-.01.63-.03.93-.02.3-.03.51-.03.63v.57c0 .26.01.54.03.84.02.3.03.58.03.84v.57c0 1.16-.12 2.01-.36 2.55s-.82.83-1.74.87c-.16.04-.54.04-1.14 0-.6-.04-1-.06-1.2-.06h-.75c-.38 0-.78.01-1.2.03-.42.02-.82.03-1.2.03h-.81c-.92 0-1.44-.32-1.56-.96-.04-.04-.09-.26-.15-.66s-.09-.68-.09-.84c0-.12.01-.35.03-.69.02-.34.03-.69.03-1.05 0-.36.01-.71.03-1.05.02-.34.03-.59.03-.75 0-.44-.01-.86-.03-1.26-.02-.4-.03-.82-.03-1.26 0-.12.01-.34.03-.66.02-.32.03-.66.03-1.02s.01-.71.03-1.05c.02-.34.03-.59.03-.75 0-.12-.01-.42-.03-.9-.02-.48-.03-1-.03-1.56s-.01-1.11-.03-1.65c-.02-.54-.03-.91-.03-1.11 0-.08.02-.37.06-.87.04-.5.06-.79.06-.87 0-.12.01-.38.03-.78.02-.4.04-.84.06-1.32.02-.48.03-.94.03-1.38v-.84c0-.16-.01-.49-.03-.99l-.06-1.56c-.02-.54-.04-1.05-.06-1.53-.02-.48-.03-.82-.03-1.02 0-.16.01-.43.03-.81l.06-1.2.06-1.2c.02-.38.03-.65.03-.81 0-.12-.01-.33-.03-.63-.02-.3-.03-.61-.03-.93 0-.32-.01-.63-.03-.93-.02-.3-.03-.51-.03-.63V7.3Zm53.34-3.6c.12 0 .44-.02.96-.06.52-.04.86-.06 1.02-.06.16 0 .51-.01 1.05-.03.54-.02.91-.03 1.11-.03.12 0 .36.01.72.03.36.02.74.04 1.14.06.4.02.78.04 1.14.06.36.02.62.03.78.03.2 0 .6-.02 1.2-.06.6-.04 1-.06 1.2-.06.72 0 1.24.18 1.56.54.32.36.48.84.48 1.44 0 .12-.01.42-.03.9-.02.48-.03.8-.03.96 0 .12.01.31.03.57.02.26.04.54.06.84.02.3.04.58.06.84.02.26.03.45.03.57 0 .36-.03.61-.09.75s-.25.41-.57.81c-.16.2-.27.33-.33.39s-.21.13-.45.21c-.24.08-.46.15-.66.21s-.46.09-.78.09c-.16 0-.46-.01-.9-.03-.44-.02-.74-.03-.9-.03-.08 0-.25.01-.51.03-.26.02-.53.03-.81.03s-.55.01-.81.03c-.26.02-.45.03-.57.03-.28 0-.5-.02-.66-.06-.28 0-.54-.02-.78-.06-.24-.04-.5-.08-.78-.12-.28-.04-.54-.06-.78-.06h-.78c-1.68 0-2.82.18-3.42.54-.6.36-.9 1.16-.9 2.4 0 .72.01 1.32.03 1.8.02.48.09.88.21 1.2.12.32.32.57.6.75.28.18.66.31 1.14.39.68.08 1.12.13 1.32.15.2.02.5.03.9.03.12 0 .33-.01.63-.03.3-.02.62-.04.96-.06l.99-.06c.32-.02.54-.03.66-.03a15.208 15.208 0 0 1 1.35.12c.3.04.58.07.84.09.26.02.45.03.57.03.4 0 .8-.02 1.2-.06.4-.04.8-.06 1.2-.06h.9c.36 0 .62.04.78.12.08.08.28.26.6.54.32.28.48.7.48 1.26-.04.28-.06.52-.06.72 0 .2-.01.39-.03.57-.02.18-.03.31-.03.39-.04.48-.06.84-.06 1.08v1.32c0 .24-.01.42-.03.54-.02.12-.05.34-.09.66-.04.2-.09.42-.15.66-.06.24-.18.47-.36.69-.18.22-.43.41-.75.57-.32.16-.78.24-1.38.24h-3.06c-.12 0-.38-.01-.78-.03-.4-.02-.66-.03-.78-.03-.08 0-.29.01-.63.03-.34.02-.55.03-.63.03-.12 0-.43-.03-.93-.09s-.83-.09-.99-.09c-.32 0-.62.02-.9.06-.28.04-.58.06-.9.06h-.48c-.2 0-.43.03-.69.09-.26.06-.45.13-.57.21-.28.12-.49.29-.63.51-.14.22-.24.46-.3.72-.06.26-.1.51-.12.75-.02.24-.03.42-.03.54 0 .96.02 1.77.06 2.43.04.66.21 1.19.51 1.59.3.4.78.69 1.44.87.66.18 1.59.27 2.79.27.2 0 .61-.01 1.23-.03.62-.02 1.03-.03 1.23-.03.16 0 .49.01.99.03.5.02.85.03 1.05.03h.63c.3 0 .62-.01.96-.03.34-.02.66-.04.96-.06.3-.02.51-.03.63-.03.2-.04.41-.06.63-.06h.63c.16 0 .54.06 1.14.18.6.12 1.04.44 1.32.96.2.44.32.9.36 1.38.04.48.06.86.06 1.14v.42c.04.28.09.56.15.84.06.28.11.56.15.84v1.56c0 .2-.01.41-.03.63-.02.22-.1.43-.24.63-.14.2-.35.37-.63.51s-.66.21-1.14.21c-.08 0-.21-.01-.39-.03-.18-.02-.37-.03-.57-.03-.2-.04-.41-.06-.63-.06h-.45c-.08 0-.25.01-.51.03-.26.02-.55.03-.87.03-.32.04-.61.07-.87.09-.26.02-.45.03-.57.03-.08 0-.25-.01-.51-.03-.26-.02-.55-.03-.87-.03-.32-.04-.61-.06-.87-.06h-.57c-.04 0-.32.01-.84.03-.52.02-1.1.03-1.74.03a78.283 78.283 0 0 1-3 .12c-.2 0-.54-.01-1.02-.03-.48-.02-1-.05-1.56-.09-.56 0-1.09-.01-1.59-.03-.5-.02-.85-.03-1.05-.03h-1.92c-.4.04-.78.06-1.14.06h-.78c-.16 0-.41-.02-.75-.06-.34-.04-.67-.2-.99-.48-.24-.2-.46-.52-.66-.96-.2-.44-.3-.88-.3-1.32 0-.12.01-.39.03-.81.02-.42.03-.69.03-.81 0-.36-.02-.71-.06-1.05-.04-.34-.06-.69-.06-1.05v-1.08c0-.12-.01-.3-.03-.54-.02-.24-.03-.51-.03-.81 0-.3-.01-.57-.03-.81a7.12 7.12 0 0 1-.03-.54c0-.52.01-1.12.03-1.8.02-.68.03-1.28.03-1.8 0-.12.01-.38.03-.78.02-.4.03-.66.03-.78v-.48c0-.24-.01-.49-.03-.75-.02-.26-.03-.51-.03-.75v-.54c0-.16-.01-.52-.03-1.08-.02-.56-.03-.94-.03-1.14V21.19c0-.14.02-.31.06-.51 0-.12.02-.39.06-.81.04-.42.06-.69.06-.81 0-.2-.03-.62-.09-1.26s-.09-1.06-.09-1.26c0-.48.02-.95.06-1.41.04-.46.06-.91.06-1.35 0-.08.01-.27.03-.57.02-.3.03-.62.03-.96 0-.34.01-.66.03-.96.02-.3.03-.49.03-.57 0-.12-.01-.32-.03-.6-.02-.28-.04-.59-.06-.93-.02-.34-.04-.65-.06-.93-.02-.28-.03-.48-.03-.6 0-.92.03-1.54.09-1.86.06-.32.13-.54.21-.66.08-.2.28-.5.6-.9.32-.4.82-.6 1.5-.6.2 0 .58.01 1.14.03.56.02.94.03 1.14.03.12 0 .34-.01.66-.03.32-.02.66-.03 1.02-.03s.71-.01 1.05-.03c.34-.02.57-.03.69-.03s.32.01.6.03c.28.02.57.03.87.03.3 0 .59.01.87.03.28.02.48.03.6.03h2.22Zm30 0c.12 0 .44-.02.96-.06.52-.04.86-.06 1.02-.06.16 0 .51-.01 1.05-.03.54-.02.91-.03 1.11-.03.12 0 .36.01.72.03.36.02.74.04 1.14.06.4.02.78.04 1.14.06.36.02.62.03.78.03.2 0 .6-.02 1.2-.06.6-.04 1-.06 1.2-.06.72 0 1.24.18 1.56.54.32.36.48.84.48 1.44 0 .12-.01.42-.03.9-.02.48-.03.8-.03.96 0 .12.01.31.03.57.02.26.04.54.06.84.02.3.04.58.06.84.02.26.03.45.03.57 0 .36-.03.61-.09.75s-.25.41-.57.81c-.16.2-.27.33-.33.39s-.21.13-.45.21c-.24.08-.46.15-.66.21s-.46.09-.78.09c-.16 0-.46-.01-.9-.03-.44-.02-.74-.03-.9-.03-.08 0-.25.01-.51.03-.26.02-.53.03-.81.03s-.55.01-.81.03c-.26.02-.45.03-.57.03-.28 0-.5-.02-.66-.06-.28 0-.54-.02-.78-.06-.24-.04-.5-.08-.78-.12-.28-.04-.54-.06-.78-.06h-.78c-1.68 0-2.82.18-3.42.54-.6.36-.9 1.16-.9 2.4 0 .72.01 1.32.03 1.8.02.48.09.88.21 1.2.12.32.32.57.6.75.28.18.66.31 1.14.39.68.08 1.12.13 1.32.15.2.02.5.03.9.03.12 0 .33-.01.63-.03.3-.02.62-.04.96-.06l.99-.06c.32-.02.54-.03.66-.03a15.208 15.208 0 0 1 1.35.12c.3.04.58.07.84.09.26.02.45.03.57.03.4 0 .8-.02 1.2-.06.4-.04.8-.06 1.2-.06h.9c.36 0 .62.04.78.12.08.08.28.26.6.54.32.28.48.7.48 1.26-.04.28-.06.52-.06.72 0 .2-.01.39-.03.57-.02.18-.03.31-.03.39-.04.48-.06.84-.06 1.08v1.32c0 .24-.01.42-.03.54-.02.12-.05.34-.09.66-.04.2-.09.42-.15.66-.06.24-.18.47-.36.69-.18.22-.43.41-.75.57-.32.16-.78.24-1.38.24h-3.06c-.12 0-.38-.01-.78-.03-.4-.02-.66-.03-.78-.03-.08 0-.29.01-.63.03-.34.02-.55.03-.63.03-.12 0-.43-.03-.93-.09s-.83-.09-.99-.09c-.32 0-.62.02-.9.06-.28.04-.58.06-.9.06h-.48c-.2 0-.43.03-.69.09-.26.06-.45.13-.57.21-.28.12-.49.29-.63.51-.14.22-.24.46-.3.72-.06.26-.1.51-.12.75-.02.24-.03.42-.03.54 0 .96.02 1.77.06 2.43.04.66.21 1.19.51 1.59.3.4.78.69 1.44.87.66.18 1.59.27 2.79.27.2 0 .61-.01 1.23-.03.62-.02 1.03-.03 1.23-.03.16 0 .49.01.99.03.5.02.85.03 1.05.03h.63c.3 0 .62-.01.96-.03.34-.02.66-.04.96-.06.3-.02.51-.03.63-.03.2-.04.41-.06.63-.06h.63c.16 0 .54.06 1.14.18.6.12 1.04.44 1.32.96.2.44.32.9.36 1.38.04.48.06.86.06 1.14v.42c.04.28.09.56.15.84.06.28.11.56.15.84v1.56c0 .2-.01.41-.03.63-.02.22-.1.43-.24.63-.14.2-.35.37-.63.51s-.66.21-1.14.21c-.08 0-.21-.01-.39-.03-.18-.02-.37-.03-.57-.03-.2-.04-.41-.06-.63-.06h-.45c-.08 0-.25.01-.51.03-.26.02-.55.03-.87.03-.32.04-.61.07-.87.09-.26.02-.45.03-.57.03-.08 0-.25-.01-.51-.03-.26-.02-.55-.03-.87-.03-.32-.04-.61-.06-.87-.06h-.57c-.04 0-.32.01-.84.03-.52.02-1.1.03-1.74.03a78.283 78.283 0 0 1-3 .12c-.2 0-.54-.01-1.02-.03-.48-.02-1-.05-1.56-.09-.56 0-1.09-.01-1.59-.03-.5-.02-.85-.03-1.05-.03h-1.92c-.4.04-.78.06-1.14.06h-.78c-.16 0-.41-.02-.75-.06-.34-.04-.67-.2-.99-.48-.24-.2-.46-.52-.66-.96-.2-.44-.3-.88-.3-1.32 0-.12.01-.39.03-.81.02-.42.03-.69.03-.81 0-.36-.02-.71-.06-1.05-.04-.34-.06-.69-.06-1.05v-1.08c0-.12-.01-.3-.03-.54-.02-.24-.03-.51-.03-.81 0-.3-.01-.57-.03-.81a7.12 7.12 0 0 1-.03-.54c0-.52.01-1.12.03-1.8.02-.68.03-1.28.03-1.8 0-.12.01-.38.03-.78.02-.4.03-.66.03-.78v-.48c0-.24-.01-.49-.03-.75-.02-.26-.03-.51-.03-.75v-.54c0-.16-.01-.52-.03-1.08-.02-.56-.03-.94-.03-1.14V21.19c0-.14.02-.31.06-.51 0-.12.02-.39.06-.81.04-.42.06-.69.06-.81 0-.2-.03-.62-.09-1.26s-.09-1.06-.09-1.26c0-.48.02-.95.06-1.41.04-.46.06-.91.06-1.35 0-.08.01-.27.03-.57.02-.3.03-.62.03-.96 0-.34.01-.66.03-.96.02-.3.03-.49.03-.57 0-.12-.01-.32-.03-.6-.02-.28-.04-.59-.06-.93-.02-.34-.04-.65-.06-.93-.02-.28-.03-.48-.03-.6 0-.92.03-1.54.09-1.86.06-.32.13-.54.21-.66.08-.2.28-.5.6-.9.32-.4.82-.6 1.5-.6.2 0 .58.01 1.14.03.56.02.94.03 1.14.03.12 0 .34-.01.66-.03.32-.02.66-.03 1.02-.03s.71-.01 1.05-.03c.34-.02.57-.03.69-.03s.32.01.6.03c.28.02.57.03.87.03.3 0 .59.01.87.03.28.02.48.03.6.03h2.22Zm16.38 28.56c0-.12.03-.38.09-.78s.09-.66.09-.78c0-.2-.01-.38-.03-.54-.02-.16-.05-.34-.09-.54 0-.2-.01-.53-.03-.99-.02-.46-.03-.83-.03-1.11 0-.16.01-.31.03-.45.02-.14.03-.27.03-.39.04-.12.09-.4.15-.84.06-.44.09-.72.09-.84 0-.28-.02-.55-.06-.81-.04-.26-.06-.53-.06-.81 0-.08.01-.28.03-.6.02-.32.03-.52.03-.6a6.969 6.969 0 0 0-.12-1.26c0-.12-.01-.43-.03-.93-.02-.5-.03-1.03-.03-1.59s-.01-1.1-.03-1.62c-.02-.52-.03-.84-.03-.96v-.51c0-.26.01-.53.03-.81.02-.28.03-.54.03-.78v-.54c0-.12-.01-.37-.03-.75-.02-.38-.03-.79-.03-1.23 0-.44-.01-.86-.03-1.26-.02-.4-.03-.68-.03-.84 0-.12.01-.39.03-.81.02-.42.03-.69.03-.81 0-.16-.02-.46-.06-.9-.04-.44-.06-.72-.06-.84 0-.56.13-1.02.39-1.38.26-.36.67-.54 1.23-.54h.3c.12 0 .28.02.48.06.16.04.3.06.42.06h.3l1.02-.06c.08 0 .24-.01.48-.03.24-.02.48-.03.72-.03.12 0 .26.01.42.03.16.02.28.03.36.03.4-.08.85-.14 1.35-.18.5-.04.79-.06.87-.06.52 0 .84.04.96.12.12.08.28.24.48.48.2.2.35.39.45.57.1.18.15.43.15.75 0 .2-.04.5-.12.9v.6c0 .32-.01.66-.03 1.02-.02.36-.03.71-.03 1.05v.63c0 .16.02.52.06 1.08.04.56.06.94.06 1.14v.66c0 .32-.01.67-.03 1.05-.02.38-.03.74-.03 1.08V15.88c0 .16.04.42.12.78.04.2.11.42.21.66.1.24.33.36.69.36.16 0 .31-.05.45-.15.14-.1.27-.19.39-.27.4-.36.75-.7 1.05-1.02.3-.32.6-.67.9-1.05.3-.38.64-.83 1.02-1.35.38-.52.87-1.2 1.47-2.04.28-.36.55-.72.81-1.08.26-.36.53-.74.81-1.14.12-.2.23-.38.33-.54.1-.16.23-.34.39-.54.08-.12.23-.33.45-.63s.45-.63.69-.99c.24-.36.48-.69.72-.99.24-.3.4-.51.48-.63.08-.12.17-.25.27-.39s.21-.25.33-.33c.08-.08.37-.26.87-.54s1.05-.42 1.65-.42c.12 0 .36.03.72.09s.6.09.72.09c.16 0 .52-.03 1.08-.09s.92-.09 1.08-.09c.2 0 .58.02 1.14.06.56.04.94.06 1.14.06.08 0 .25-.01.51-.03.26-.02.43-.03.51-.03.24 0 .57.06.99.18.42.12.63.52.63 1.2 0 .2-.06.48-.18.84s-.4.8-.84 1.32c-.16.2-.33.41-.51.63-.18.22-.35.43-.51.63-.12.12-.3.35-.54.69a111.275 111.275 0 0 0-1.5 2.19c-.24.36-.42.6-.54.72-.32.44-.68.87-1.08 1.29-.4.42-.76.85-1.08 1.29-.12.2-.25.39-.39.57-.14.18-.29.37-.45.57-.16.2-.28.38-.36.54-.08.16-.28.46-.6.9-.2.32-.42.61-.66.87-.24.26-.46.55-.66.87-.16.2-.3.41-.42.63-.12.22-.26.43-.42.63-.32.44-.55.82-.69 1.14-.14.32-.21.8-.21 1.44 0 .32.04.62.12.9.08.28.2.58.36.9.04.12.13.32.27.6l.45.9.45.9c.14.28.25.48.33.6l.36 1.08c.16.32.33.61.51.87s.37.55.57.87c.32.52.61 1.05.87 1.59s.53 1.09.81 1.65c.28.48.57.96.87 1.44.3.48.57.98.81 1.5l.39.78c.1.2.2.38.3.54.1.16.19.32.27.48.08.16.2.36.36.6.04.12.14.34.3.66l.51 1.02.51 1.02c.16.32.28.54.36.66.44.72.72 1.21.84 1.47s.18.55.18.87c0 .32-.04.56-.12.72-.24.44-.62.66-1.14.66-.12 0-.41-.02-.87-.06-.46-.04-.77-.06-.93-.06-.08 0-.25.01-.51.03-.26.02-.53.03-.81.03s-.55.01-.81.03c-.26.02-.45.03-.57.03-.16 0-.5-.02-1.02-.06-.52-.04-.88-.06-1.08-.06-.12 0-.43.03-.93.09s-.83.09-.99.09c-.52 0-.9-.16-1.14-.48-.08-.08-.21-.26-.39-.54-.18-.28-.36-.6-.54-.96l-.51-1.02a6.24 6.24 0 0 1-.3-.66c-.08-.12-.21-.42-.39-.9-.18-.48-.31-.8-.39-.96-.08-.08-.15-.17-.21-.27s-.13-.21-.21-.33c-.08-.12-.16-.3-.24-.54a.94.94 0 0 1-.18-.24l-.12-.24c-.08-.16-.15-.32-.21-.48-.06-.16-.13-.32-.21-.48-.16-.36-.33-.71-.51-1.05-.18-.34-.37-.69-.57-1.05-.04-.08-.13-.23-.27-.45s-.29-.46-.45-.72c-.16-.26-.31-.5-.45-.72-.14-.22-.23-.39-.27-.51-.16-.24-.29-.49-.39-.75-.1-.26-.23-.51-.39-.75-.32-.52-.66-.97-1.02-1.35-.36-.38-.74-.57-1.14-.57-.6 0-1 .26-1.2.78-.2.52-.32 1-.36 1.44 0 .08.01.29.03.63.02.34.03.55.03.63 0 .16-.03.53-.09 1.11-.06.58-.09.97-.09 1.17 0 .08.01.23.03.45.02.22.03.46.03.72 0 .26.01.5.03.72.02.22.03.39.03.51 0 .08-.01.29-.03.63-.02.34-.03.57-.03.69l.03.45c.02.3.04.62.06.96l.06.99c.02.32.03.5.03.54 0 .12.02.29.06.51.04.22.06.37.06.45 0 .48-.16.97-.48 1.47-.32.5-.7.79-1.14.87-.12.04-.28.06-.48.06-.2 0-.4.02-.6.06-.08 0-.26-.01-.54-.03-.28-.02-.46-.03-.54-.03-.16 0-.51.02-1.05.06-.54.04-.89.06-1.05.06-.12 0-.38-.02-.78-.06-.4-.04-.66-.06-.78-.06s-.35.03-.69.09c-.34.06-.57.09-.69.09a1.56 1.56 0 0 1-.78-.18c-.12-.08-.29-.27-.51-.57-.22-.3-.33-.57-.33-.81 0-.24.02-.42.06-.54l.03-.51c.02-.34.04-.71.06-1.11.02-.4.04-.77.06-1.11.02-.34.03-.53.03-.57 0-.2-.01-.54-.03-1.02-.02-.48-.04-1-.06-1.56-.02-.56-.03-1.09-.03-1.59v-4.23Zm45.66 1.38c-.04-.2-.07-.4-.09-.6-.02-.2-.05-.4-.09-.6-.04-.24-.06-.48-.06-.72s-.04-.48-.12-.72c-.08-.2-.17-.39-.27-.57-.1-.18-.19-.37-.27-.57-.08-.16-.15-.32-.21-.48-.06-.16-.13-.32-.21-.48-.08-.2-.17-.38-.27-.54-.1-.16-.19-.34-.27-.54-.28-.56-.57-1.21-.87-1.95-.3-.74-.57-1.39-.81-1.95-.16-.32-.32-.62-.48-.9-.16-.28-.34-.58-.54-.9-.2-.36-.36-.72-.48-1.08a6.38 6.38 0 0 0-.48-1.08c-.2-.36-.41-.72-.63-1.08-.22-.36-.43-.74-.63-1.14-.2-.32-.38-.67-.54-1.05-.16-.38-.32-.73-.48-1.05-.08-.2-.15-.38-.21-.54-.06-.16-.13-.34-.21-.54-.2-.4-.41-.78-.63-1.14-.22-.36-.43-.74-.63-1.14-.2-.32-.36-.66-.48-1.02s-.26-.7-.42-1.02l-.3-.6c-.16-.32-.33-.65-.51-.99-.18-.34-.34-.65-.48-.93-.14-.28-.23-.44-.27-.48a.59.59 0 0 1-.15-.21.59.59 0 0 0-.15-.21.645.645 0 0 1-.12-.36c0-.12-.04-.24-.12-.36-.16-.32-.26-.55-.3-.69-.04-.14-.06-.35-.06-.63 0-.36.17-.65.51-.87.34-.22.67-.33.99-.33h.3c.12 0 .26.02.42.06.16 0 .3.01.42.03.12.02.22.03.3.03.12 0 .31-.01.57-.03.26-.02.55-.03.87-.03.32-.04.61-.06.87-.06h.51c.16 0 .47.01.93.03.46.02.77.03.93.03.24 0 .44-.02.6-.06.16-.04.3-.06.42-.06.08 0 .3.03.66.09.36.06.64.13.84.21.4.16.67.35.81.57.14.22.35.61.63 1.17.2.36.36.72.48 1.08.12.36.26.72.42 1.08.2.44.47.95.81 1.53.34.58.63 1.09.87 1.53.36.92.7 1.78 1.02 2.58.28.68.56 1.35.84 2.01.28.66.48 1.09.6 1.29.56 1.08.94 1.72 1.14 1.92.2.2.4.3.6.3.2 0 .38-.08.54-.24.16-.16.28-.32.36-.48.08-.16.16-.36.24-.6l.36-.54c0-.04.06-.19.18-.45s.24-.55.36-.87c.12-.32.24-.63.36-.93.12-.3.2-.49.24-.57.08-.2.15-.41.21-.63.06-.22.13-.43.21-.63.12-.28.25-.55.39-.81s.27-.55.39-.87c.12-.24.23-.5.33-.78s.21-.54.33-.78c.04-.12.11-.3.21-.54.1-.24.22-.49.36-.75.14-.26.27-.51.39-.75s.2-.42.24-.54c.36-.92.66-1.6.9-2.04.24-.44.4-.7.48-.78.24-.28.6-.47 1.08-.57.48-.1.8-.15.96-.15.12 0 .24.01.36.03.12.02.26.03.42.03.44.04.9.06 1.38.06h2.58c.16 0 .51-.02 1.05-.06.54-.04.91-.06 1.11-.06.44 0 .86.04 1.26.12.4.08.6.3.6.66 0 .08-.06.35-.18.81-.12.46-.36 1.05-.72 1.77-.2.36-.37.73-.51 1.11-.14.38-.31.75-.51 1.11-.08.2-.17.39-.27.57-.1.18-.19.37-.27.57-.16.32-.33.7-.51 1.14-.18.44-.35.82-.51 1.14-.44 1-.93 2.05-1.47 3.15-.54 1.1-1.01 1.99-1.41 2.67-.2.28-.39.56-.57.84-.18.28-.35.58-.51.9-.2.44-.39.89-.57 1.35-.18.46-.37.91-.57 1.35l-.36.6c-.12.2-.22.4-.3.6-.08.16-.15.31-.21.45s-.13.29-.21.45c-.16.32-.32.61-.48.87-.16.26-.3.55-.42.87-.08.16-.15.31-.21.45s-.13.29-.21.45c-.8 1.6-1.33 2.88-1.59 3.84s-.39 1.62-.39 1.98c0 .12.01.37.03.75.02.38.03.63.03.75 0 .08-.01.24-.03.48-.02.24-.03.5-.03.78s-.01.54-.03.78c-.02.24-.03.42-.03.54 0 .08.01.23.03.45.02.22.04.46.06.72.02.26.04.5.06.72.02.22.03.39.03.51v.48c0 .24-.01.49-.03.75-.02.26-.03.5-.03.72v.51c0 .12.02.4.06.84.04.44.06.72.06.84 0 .48-.16.94-.48 1.38-.32.44-.74.66-1.26.66-.08 0-.29-.03-.63-.09s-.55-.09-.63-.09c-.08 0-.29.01-.63.03-.34.02-.53.03-.57.03h-2.1c-.16 0-.55.02-1.17.06-.62.04-1.03.06-1.23.06-.32 0-.6-.09-.84-.27-.24-.18-.45-.39-.63-.63a3.11 3.11 0 0 1-.42-.75c-.1-.26-.15-.47-.15-.63 0-.08.02-.34.06-.78.04-.44.08-.72.12-.84 0-.12-.01-.41-.03-.87-.02-.46-.03-.75-.03-.87 0-.2.03-.6.09-1.2s.09-1 .09-1.2c0-.08-.02-.3-.06-.66-.04-.36-.06-.56-.06-.6-.04-.16-.06-.32-.06-.48v-2.64Z"/></svg>