<svg xmlns="http://www.w3.org/2000/svg" viewBox="0 0 423 551"><defs><linearGradient id="a" x1="0%" x2="100%" y1="41.356%" y2="41.356%"><stop offset="0%" stop-color="#E6193B"/><stop offset="100%" stop-color="#FF3F5F"/></linearGradient></defs><g fill="none" fill-rule="evenodd"><path fill="url(#a)" stroke="#262D3D" stroke-linecap="round" stroke-width="19.512" d="M66.585 127h288.78c31.252 0 56.586 25.334 56.586 56.585v131.942c0 38.945-19.989 75.164-52.94 95.924a138.996 138.996 0 0 0-63.07 95.1l-5.556 33.864h0-158.82l-6.44-34.892A142.525 142.525 0 0 0 61.96 411.45 113.004 113.004 0 0 1 10 316.354V183.585C10 152.335 35.334 127 66.585 127Z" transform="rotate(180 210.976 333.707)"/><path fill="#DEE7ED" stroke="#262D3D" stroke-linecap="round" stroke-width="19.512" d="M306.22 127.074H118.902a3.902 3.902 0 0 1-3.902-3.902V29.513c0-10.776 8.736-19.512 19.512-19.512H290.61c10.776 0 19.512 8.736 19.512 19.512v93.659a3.902 3.902 0 0 1-3.902 3.902Z"/><path stroke="#FFF" stroke-linecap="round" stroke-width="15" d="M272.5 38H154.146"/><path stroke="#C8D7E0" stroke-width="15" d="M300.5 109.5h-176"/><path stroke="#BF1531" stroke-linecap="round" stroke-width="15" d="M270.5 157H152.146"/></g></svg>