<svg xmlns="http://www.w3.org/2000/svg" width="32" viewBox="0 0 32 32"><path fill="#0EE6B1" d="M2.615 12.084c2.179.163 6.234.352 13.37.352 7.136 0 11.192-.189 13.37-.352-.952 9.136-1.654 13.824-2.034 16.011-.234 1.352-1.113 2.621-2.624 3.032-1.552.422-4.252.873-8.712.873s-7.16-.451-8.712-.873c-1.51-.41-2.389-1.68-2.624-3.032-.38-2.187-1.08-6.875-2.034-16.011ZM13.534 0c-1.33 0-2.522.816-2.995 2.051l-.28.729a191.6 191.6 0 0 0-5.489.172c-1.545.073-3.29.727-4.127 2.377-.197.39-.384.834-.53 1.327-.535 1.794.925 3.174 2.45 3.294 2.046.161 6.071.363 13.423.363 7.351 0 11.377-.202 13.423-.363 1.548-.121 2.935-1.49 2.515-3.246a8.982 8.982 0 0 0-.213-.748C31.028 3.904 29 3.019 27.189 2.94c-1.308-.057-3.134-.12-5.478-.161l-.279-.728A3.204 3.204 0 0 0 18.437 0h-4.903Z"/></svg>