<svg xmlns="http://www.w3.org/2000/svg" viewBox="0 0 1349 765">

<defs>
<linearGradient id="b" x1="0%" x2="100%" y1="41.356%" y2="41.356%">
<stop offset="0%" stop-color="#E6193B"/>
<stop offset="100%" stop-color="#FF3F5F"/>
</linearGradient>

<linearGradient id="c" x1="0%" x2="100%" y1="41.356%" y2="41.356%">
<stop offset="0%" stop-color="#603C31"/>
<stop offset="100%" stop-color="#8C5848"/>
</linearGradient>

<linearGradient id="d" x1="100%" x2="0%" y1="50%" y2="50%">
<stop offset="0%" stop-color="#FBE381"/>
<stop offset="100%" stop-color="#F5C34A"/>
</linearGradient>

<linearGradient id="e" x1="0%" x2="100%" y1="41.356%" y2="41.356%">
<stop offset="0%" stop-color="#603C31"/>
<stop offset="100%" stop-color="#8C5848"/>
</linearGradient>

<linearGradient id="f" x1="18.479%" x2="86.71%" y1="41.356%" y2="41.356%">
<stop offset="0%" stop-color="#BF1531"/>
<stop offset="100%" stop-color="#EA1F40"/>
</linearGradient>

<linearGradient id="g" x1="18.479%" x2="86.71%" y1="41.356%" y2="41.356%">
<stop offset="0%" stop-color="#BF1531"/>
<stop offset="100%" stop-color="#EA1F40"/>
</linearGradient>

<linearGradient id="h" x1="100%" x2="0%" y1="50%" y2="50%">
<stop offset="0%" stop-color="#4E5970"/>
<stop offset="100%" stop-color="#262D3D"/>
</linearGradient>

<linearGradient id="i" x1="0%" x2="100%" y1="41.356%" y2="41.356%">
<stop offset="0%" stop-color="#E6193B"/>
<stop offset="100%" stop-color="#FF3F5F"/>
</linearGradient>

<linearGradient id="j" x1="100%" x2="0%" y1="42.926%" y2="42.926%">
<stop offset="0%" stop-color="#FDF2D1"/>
<stop offset="100%" stop-color="#FAE1A5"/>
</linearGradient>

<filter id="a" width="155.2%" height="256.3%" x="-27.6%" y="-78.2%" filterUnits="objectBoundingBox">
<feOffset dy="170" in="SourceAlpha" result="shadowOffsetOuter1"/>
<feGaussianBlur in="shadowOffsetOuter1" result="shadowBlurOuter1" stdDeviation="10"/>
<feColorMatrix in="shadowBlurOuter1" result="shadowMatrixOuter1" values="0 0 0 0 0 0 0 0 0 0 0 0 0 0 0 0 0 0 0.25 0"/>
<feMerge><feMergeNode in="shadowMatrixOuter1"/><feMergeNode in="SourceGraphic"/></feMerge>
</filter>
</defs>

<g fill="none" fill-rule="evenodd">

<path class="error-text" fill="#fff" fill-rule="nonzero" d="M115.198 488.731a277.79 277.79 0 0 1-2.37 3.258 55.334 55.334 0 0 0-2.372 3.456c-.79 1.053-1.317 1.777-1.58 2.172-.264.395-.528.987-.791 1.777-.263.922-.856 2.205-1.778 3.851s-1.515 2.732-1.779 3.258l-1.482 2.962c-.592 1.185-1.218 3.094-1.877 5.727-.263.921-.46 2.106-.593 3.554a96.19 96.19 0 0 0-.296 4.344 395.207 395.207 0 0 1-.198 3.95c-.065 1.185-.098 1.974-.098 2.37v2.566c0 1.054-.033 2.173-.1 3.357a59.066 59.066 0 0 0-.098 3.259v2.27c0 .659.033 1.284.099 1.876.066.593.099 1.218.099 1.876 0 .264.098.856.296 1.777.198.922.362 1.876.494 2.864.132.987.263 1.909.395 2.764.132.856.198 1.35.198 1.481 0 .659-.132 1.547-.395 2.666-.264 1.12-.527 2.008-.79 2.666-.396 1.053-1.12 2.172-2.174 3.357-1.054 1.185-3.162 1.777-6.323 1.777-.264 0-.89-.033-1.878-.099a53.328 53.328 0 0 1-3.062-.296 56.388 56.388 0 0 0-2.964-.296 31.753 31.753 0 0 0-1.976-.099c-.395 0-1.021.033-1.877.099-.857.066-1.779.099-2.767.099s-1.91.033-2.766.098c-.856.066-1.482.1-1.877.1-.264 0-.824-.034-1.68-.1-.856-.065-1.745-.131-2.667-.197-.922-.066-1.779-.132-2.57-.198a23.465 23.465 0 0 0-1.777-.098c-.396 0-1.054.033-1.976.098-.923.066-1.943.1-3.063.1s-2.174.032-3.162.098-1.68.099-2.074.099c-1.45 0-2.503-.066-3.162-.198-1.58-.395-3.063-1.415-4.446-3.06-1.383-1.646-2.075-3.39-2.075-5.233 0-.132.132-.922.396-2.37.263-1.448.526-2.699.79-3.752.527-2.501.79-5.266.79-8.294v-12.045c0-1.053-.099-2.567-.296-4.542-.198-1.974-.362-3.225-.494-3.752 0-.131-.165-.724-.494-1.777-.33-1.053-.758-2.337-1.284-3.85a126.532 126.532 0 0 0-1.68-4.542c-.593-1.514-1.153-2.732-1.68-3.653a37.32 37.32 0 0 0-1.58-2.864 37.32 37.32 0 0 1-1.581-2.863 213.595 213.595 0 0 1-1.877-4.245 29.825 29.825 0 0 0-2.273-4.246 23.444 23.444 0 0 0-1.68-2.863 221.967 221.967 0 0 0-1.876-2.666 34.698 34.698 0 0 1-1.384-2.666 87.686 87.686 0 0 0-1.185-2.468 76.334 76.334 0 0 0-2.865-4.542 164.186 164.186 0 0 1-2.865-4.344c-.132-.132-.626-1.086-1.482-2.863a247.612 247.612 0 0 0-2.964-5.924 177.828 177.828 0 0 1-3.063-6.22 210.376 210.376 0 0 0-1.778-3.752 452.396 452.396 0 0 1-2.964-6.418c-.922-2.04-2.174-4.377-3.755-7.01a79.513 79.513 0 0 1-1.877-3.16 73.39 73.39 0 0 1-1.68-3.16 29.602 29.602 0 0 1-.79-2.27c-.263-.856-.395-1.81-.395-2.863 0-1.843.626-3.324 1.877-4.443 1.252-1.12 2.602-1.679 4.05-1.679.66 0 1.516.132 2.57.395 2.37.395 4.28.593 5.73.593.263 0 .757-.033 1.482-.1a25.133 25.133 0 0 1 2.272-.098c.79-.132 1.581-.197 2.371-.197h1.581c.264 0 .725.033 1.383.098.659.066 1.384.1 2.174.1.659.13 1.35.23 2.075.295.724.066 1.218.099 1.482.099.527 0 .922-.066 1.185-.197h5.335c.395 0 1.12-.066 2.174-.198 1.054-.132 1.778-.263 2.173-.395h6.323c3.03 0 5.204.494 6.521 1.481 1.317.987 2.437 2.468 3.36 4.443.658 1.317 1.086 2.633 1.284 3.95.197 1.316.56 2.632 1.086 3.949.264.658.56 1.316.89 1.974.329.659.625 1.317.889 1.975a98.502 98.502 0 0 1 2.964 5.53c1.054 2.106 1.712 3.488 1.976 4.146a33.04 33.04 0 0 1 1.68 3.456 48.986 48.986 0 0 0 1.481 3.258 32.46 32.46 0 0 0 1.779 2.764c.658.922 1.383 1.383 2.173 1.383.527 0 1.219-.428 2.075-1.284.856-.856 1.745-1.876 2.667-3.06a45.68 45.68 0 0 0 2.57-3.654c.79-1.25 1.382-2.27 1.778-3.06.922-1.58 1.976-3.292 3.161-5.135a140.03 140.03 0 0 1 1.877-2.567 39.733 39.733 0 0 0 1.877-2.764c.396-.395.89-1.152 1.482-2.271a41.87 41.87 0 0 0 1.482-3.06c.396-.659.758-1.383 1.087-2.173.33-.79.692-1.58 1.087-2.37a28.892 28.892 0 0 1 1.68-2.27 9.4 9.4 0 0 1 2.074-1.876c.922-.659 2.24-1.251 3.952-1.778 1.713-.526 3.228-.79 4.545-.79h1.087c.46 0 1.02.066 1.68.198.526 0 1.02.033 1.481.099.461.066.823.099 1.087.099.263 0 .724-.033 1.383-.1a19.859 19.859 0 0 1 1.976-.098 10.059 10.059 0 0 1 1.976-.197h1.383c1.318 0 2.569.065 3.755.197 1.185.132 2.437.263 3.754.395 1.317.132 2.766.23 4.347.296 1.58.066 2.766.099 3.557.099h1.877c.593 0 1.218-.066 1.877-.198a22.28 22.28 0 0 1 2.668-.69c.988-.198 1.745-.297 2.272-.297.395 0 1.12.132 2.173.395.527.132.988.198 1.384.198.658.263 1.317.888 1.976 1.875.658.988.988 2.403.988 4.246 0 2.238-.527 4.278-1.581 6.121-.395.79-.823 1.547-1.285 2.271-.46.724-.889 1.481-1.284 2.271a69.86 69.86 0 0 0-.79 2.074 11.97 11.97 0 0 1-.988 2.073 5.26 5.26 0 0 1-1.186 1.777 21.55 21.55 0 0 0-1.58 1.777 23.492 23.492 0 0 0-1.483 2.074 25.47 25.47 0 0 0-1.284 2.27l-2.964 6.517a23.323 23.323 0 0 1-1.284 2.567c-.461.79-.988 1.679-1.581 2.666-.593.987-1.317 2.172-2.174 3.554-.856 1.383-2.008 3.127-3.458 5.233-.658.922-1.284 1.777-1.877 2.567-.592.79-1.218 1.646-1.877 2.567a366.037 366.037 0 0 0-3.161 5.233 88.059 88.059 0 0 1-3.36 5.233Zm34.975 7.109c0-.79.033-1.613.099-2.468.066-.856.164-1.679.296-2.469a80.26 80.26 0 0 1 .89-4.245c.329-1.383.56-2.798.69-4.246a20.08 20.08 0 0 0 .396-3.95c0-1.316.132-2.632.395-3.948.132-.922.593-2.403 1.383-4.443.79-2.041 1.647-4.081 2.57-6.122a980 980 0 0 1 2.47-5.43c.724-1.58 1.086-2.436 1.086-2.567.132-.132.395-.527.79-1.185a98.59 98.59 0 0 1 1.482-2.37c.593-.921 1.153-1.81 1.68-2.666.527-.855.922-1.48 1.185-1.876.264-.263.758-.724 1.482-1.382a88.897 88.897 0 0 1 2.372-2.073 82.906 82.906 0 0 0 2.47-2.172 61.307 61.307 0 0 0 1.58-1.481c1.45-1.448 3.491-3.324 6.126-5.628 2.634-2.304 5.664-4.246 9.09-5.825.394-.132 1.415-.527 3.062-1.185a149.647 149.647 0 0 1 5.236-1.975c1.844-.658 3.557-1.25 5.138-1.777 1.58-.527 2.503-.79 2.766-.79a32.007 32.007 0 0 1 2.865-.592c.856-.132 1.812-.33 2.865-.593a68.951 68.951 0 0 1 2.174-.395c.79-.131 1.515-.263 2.173-.395.264 0 .988-.033 2.174-.098 1.186-.066 2.437-.132 3.754-.198 1.318-.066 2.503-.131 3.557-.197 1.054-.066 1.713-.099 1.976-.099l3.063.197c2.042.132 4.413.297 7.113.494 2.7.198 5.368.46 8.003.79 2.634.33 4.545.691 5.73 1.086.395.132 1.219.428 2.47.889 1.252.46 2.635.987 4.15 1.58 1.515.592 2.964 1.184 4.347 1.777a152.85 152.85 0 0 0 3.062 1.283c.79.395 1.548.823 2.273 1.284.724.46 1.482.888 2.272 1.283a19.787 19.787 0 0 0 3.656 1.58 15.02 15.02 0 0 1 3.458 1.58c3.03 1.58 5.17 3.028 6.422 4.344 1.25 1.316 2.272 2.501 3.062 3.554.395.527.824 1.02 1.285 1.481.46.461.889.955 1.284 1.481.922.922 1.647 1.712 2.174 2.37.526.658 1.02 1.284 1.482 1.876a46.35 46.35 0 0 1 1.383 1.876c.46.658 1.02 1.58 1.68 2.764a197.65 197.65 0 0 1 1.876 3.061 193.04 193.04 0 0 0 1.878 3.06 38.184 38.184 0 0 1 1.778 3.16c.527 1.053.922 1.91 1.186 2.567.395.922.691 1.876.889 2.864.197.987.428 2.007.691 3.06a91.794 91.794 0 0 0 1.285 3.95 29.39 29.39 0 0 1 1.086 3.95c0 .394.066 1.02.198 1.875.132.856.23 1.843.296 2.962l.198 3.357c.066 1.119.099 2.073.099 2.863v1.58c0 .527-.066 1.119-.198 1.777a65.507 65.507 0 0 1-.494 3.258 18.727 18.727 0 0 0-.296 3.259v5.529c0 .395-.066 1.053-.198 1.974a72.396 72.396 0 0 1-.395 3.555c-.132.921-.33 1.777-.593 2.567-.263.79-.625 1.678-1.087 2.666-.46.987-1.02 2.27-1.68 3.85a55.88 55.88 0 0 0-1.382 2.962 19.528 19.528 0 0 0-.988 2.962l-.79 2.765a23.18 23.18 0 0 1-.989 2.764l-.889 1.679c-.593 1.119-1.416 2.468-2.47 4.048-1.054 1.58-2.305 3.258-3.754 5.035a25.364 25.364 0 0 1-4.94 4.64 11.18 11.18 0 0 1-2.47 1.58 11.18 11.18 0 0 0-2.47 1.58c-.659.395-1.251.823-1.778 1.284-.527.46-1.12.954-1.779 1.48-2.634 2.239-5.796 3.884-9.484 4.937l-2.767.79a23.33 23.33 0 0 0-2.766.988 12.326 12.326 0 0 0-2.865 1.086 23.32 23.32 0 0 1-2.865 1.283c-.922.263-1.779.46-2.569.593-.79.131-1.647.329-2.569.592a71.307 71.307 0 0 0-3.161.691c-.79.198-1.548.33-2.273.395a31.28 31.28 0 0 0-2.272.296c-.79.132-1.778.264-2.964.395-.658 0-1.35.066-2.075.198-.724.131-1.482.197-2.272.197h-7.509c-.395 0-1.02-.033-1.877-.099-.856-.065-1.778-.131-2.766-.197s-1.91-.132-2.766-.198a27.408 27.408 0 0 0-1.878-.098h-6.915c-1.845-.132-3.854-.33-6.027-.593-2.174-.263-4.117-.724-5.83-1.382a28.983 28.983 0 0 1-2.173-.987 28.983 28.983 0 0 0-2.173-.988 39.025 39.025 0 0 0-2.964-.987 23.215 23.215 0 0 1-2.767-.987 13.948 13.948 0 0 1-2.272-.988 58.247 58.247 0 0 1-2.075-1.184 67.899 67.899 0 0 1-2.272-1.58 43.907 43.907 0 0 1-2.272-1.777l-3.557-2.37a59.034 59.034 0 0 0-2.371-1.876 20.24 20.24 0 0 1-2.174-1.876c-1.58-1.448-2.93-2.863-4.05-4.245a406.243 406.243 0 0 0-3.656-4.443 5.271 5.271 0 0 0-.988-1.383l-1.186-1.184a58.035 58.035 0 0 1-3.359-3.654 37.672 37.672 0 0 1-2.964-4.048 7.958 7.958 0 0 1-.691-1.283 13.92 13.92 0 0 1-.593-1.777 41.325 41.325 0 0 0-.89-2.765c-.395-1.119-.856-2.666-1.382-4.64a174.326 174.326 0 0 0-1.581-5.233 31.97 31.97 0 0 1-1.186-5.233v-5.332c0-.526-.066-1.711-.197-3.554-.132-1.843-.198-3.094-.198-3.752Zm77.062-24.683c-2.37 0-4.544.395-6.52 1.184l-1.976 1.185-1.976 1.185a19.787 19.787 0 0 1-3.656 1.58c-1.251.395-2.404 1.053-3.458 1.974-.79.659-1.383 1.284-1.778 1.876-.395.593-1.186 2.008-2.371 4.246-1.054 2.106-1.844 3.785-2.371 5.035-.527 1.25-.79 2.798-.79 4.64 0 1.054.164 2.37.493 3.95.33 1.58.89 3.094 1.68 4.542a12.53 12.53 0 0 0 1.383 1.876c.527.592.988 1.217 1.383 1.876.395.526.856 1.316 1.383 2.37.396.526 1.054 1.184 1.976 1.974a32.85 32.85 0 0 0 3.162 2.37 19.32 19.32 0 0 0 3.853 1.974c1.383.527 2.733.79 4.05.79.396 0 1.252.033 2.57.099 1.317.066 2.173.099 2.568.099.132 0 .626-.033 1.482-.1a74.924 74.924 0 0 0 2.964-.295c1.12-.132 2.14-.264 3.063-.395.922-.132 1.449-.198 1.58-.198 3.03-.658 5.336-1.909 6.916-3.752a20.417 20.417 0 0 0 1.68-1.876 20.417 20.417 0 0 1 1.68-1.875c.395-.395.988-.856 1.778-1.383.922-.921 1.943-2.501 3.063-4.739a15.678 15.678 0 0 0 1.68-7.109c0-.921-.165-2.073-.495-3.455a34.576 34.576 0 0 0-1.185-3.95c-.461-1.25-.89-2.37-1.285-3.357-.395-.987-.658-1.612-.79-1.876-1.054-1.843-2.569-3.39-4.545-4.64-1.976-1.25-3.49-2.074-4.544-2.468a4.882 4.882 0 0 0-1.581-.494 4.882 4.882 0 0 1-1.581-.494l-1.976-.79-1.976-.79c-1.58-.526-3.425-.79-5.533-.79ZM435.7 424.159l3.557-.394a32.204 32.204 0 0 1 3.557-.198c.263 0 1.218.066 2.865.198 1.646.131 2.93.394 3.853.79a82.64 82.64 0 0 1 1.976 1.382c.922.658 1.515 1.184 1.778 1.58.395.526.758 1.316 1.087 2.369.33 1.053.56 2.14.692 3.258.131 1.12.23 2.238.296 3.357.066 1.12.099 2.008.099 2.666 0 .921-.033 1.81-.099 2.666a37.49 37.49 0 0 0-.099 2.863c0 .263.033.987.099 2.172s.099 1.975.099 2.37v3.455c0 1.778-.066 2.93-.198 3.456-.132 1.053-.263 2.14-.395 3.258a453.003 453.003 0 0 1-.395 3.259c0 .263-.066.888-.198 1.875-.131.988-.23 2.074-.296 3.259a49.021 49.021 0 0 1-.297 3.357c-.131 1.053-.197 1.711-.197 1.974 0 .79.033 1.547.099 2.271s.164 2.008.296 3.85c.132 1.58.23 3.127.296 4.641.066 1.514.1 3.06.1 4.64 0 2.37-.067 4.74-.198 7.11a131.67 131.67 0 0 0-.198 7.306c0 .395.033 1.35.099 2.863.066 1.514.099 2.534.099 3.06 0 .132-.033.856-.1 2.173a227.084 227.084 0 0 1-.296 4.74 52.576 52.576 0 0 1-.79 5.923c-.395 2.106-.856 3.95-1.383 5.53a23.18 23.18 0 0 1-.89 2.27 23.273 23.273 0 0 0-.888 2.27c-.264.79-.494 1.58-.692 2.37a16.89 16.89 0 0 1-.692 2.173 31.632 31.632 0 0 1-1.68 2.962 276.02 276.02 0 0 0-1.876 2.962 125.94 125.94 0 0 0-1.482 3.06 18.065 18.065 0 0 1-1.68 2.864c-.527.921-1.515 2.205-2.964 3.85-1.449 1.646-3.161 3.127-5.137 4.443-.396.264-.824.56-1.285.889-.46.329-.955.625-1.482.888-.658.395-1.251.823-1.778 1.284-.527.46-1.12.889-1.778 1.284-1.713 1.053-3.623 1.908-5.73 2.567a60.082 60.082 0 0 1-6.126 1.58 71.16 71.16 0 0 1-5.434.888c-1.647.197-2.931.296-3.853.296-.395 0-1.45-.033-3.162-.099-1.712-.065-2.898-.098-3.556-.098h-1.581a6.5 6.5 0 0 0-1.581.197l-4.742.593h-2.371c-.396 0-1.186-.033-2.372-.1a113.654 113.654 0 0 1-3.952-.295c-1.449-.132-2.766-.23-3.951-.297a52.407 52.407 0 0 0-2.57-.098c-.526 0-1.58.066-3.16.197-1.581.132-2.635.198-3.162.198-.264 0-.955-.066-2.075-.198-1.12-.131-1.877-.197-2.272-.197-1.054 0-2.404-.165-4.051-.494a57.714 57.714 0 0 1-4.841-1.185c-1.581-.46-3.03-.888-4.347-1.283-1.318-.395-2.174-.724-2.57-.988-.79-.263-1.448-.592-1.975-.987-.527-.395-1.713-1.25-3.557-2.567-.263-.132-.856-.46-1.778-.987a156.338 156.338 0 0 1-2.865-1.679 303.34 303.34 0 0 1-2.767-1.678 67.838 67.838 0 0 1-1.877-1.185c-.527-.395-1.284-.955-2.272-1.679-.988-.724-2.075-1.645-3.26-2.764a35.638 35.638 0 0 1-3.36-3.653 28.398 28.398 0 0 1-2.766-4.147 30.296 30.296 0 0 0-.79-1.481c-.264-.46-.527-.954-.79-1.481a43.868 43.868 0 0 0-1.581-2.567c-.527-.79-.988-1.58-1.384-2.37 0-.131-.164-.658-.494-1.58-.329-.921-.691-1.941-1.086-3.06a94.38 94.38 0 0 1-1.087-3.258c-.33-1.054-.494-1.712-.494-1.975-.132-.527-.198-.955-.198-1.284v-4.443c0-.921-.033-1.941-.099-3.06a53.922 53.922 0 0 1-.098-3.16v-2.073c0-.395.033-1.152.098-2.271.066-1.12.1-2.337.1-3.653 0-1.317.032-2.534.098-3.653a46.73 46.73 0 0 0 .099-2.469c0-.395-.033-1.053-.099-1.974a43.209 43.209 0 0 1-.099-3.061c0-1.12-.033-2.172-.099-3.16-.065-.987-.098-1.678-.098-2.073 0-.79.033-1.613.098-2.468.066-.856.1-1.679.1-2.469 0-.263-.034-.954-.1-2.073-.065-1.119-.098-1.876-.098-2.27 0-.396.033-1.087.098-2.074a49.23 49.23 0 0 0 .1-3.259 53.9 53.9 0 0 1 .098-3.356c.066-1.054.099-1.778.099-2.173 0-.526-.033-1.514-.099-2.962a855.033 855.033 0 0 1-.198-4.64 1164.62 1164.62 0 0 0-.197-4.74 85.322 85.322 0 0 1-.099-3.257c0-.395.033-1.185.099-2.37s.132-2.403.197-3.653c.066-1.25.132-2.469.198-3.653.066-1.185.099-1.975.099-2.37 0-.527-.066-1.514-.198-2.962-.131-1.448-.197-2.37-.197-2.765a9.61 9.61 0 0 1 .494-3.06c.329-.988.691-1.942 1.086-2.864 1.054-1.71 2.372-2.698 3.952-2.962a28.818 28.818 0 0 1 4.743-.394c.658 0 1.91.065 3.754.197s3.096.197 3.754.197c.527 0 1.482-.032 2.865-.098a93.823 93.823 0 0 1 4.446-.099c1.581 0 3.063-.033 4.446-.099a71.424 71.424 0 0 1 3.063-.098c.395 0 1.35.032 2.865.098 1.515.066 2.536.099 3.063.099h4.347c1.186 0 2.503.066 3.952.197 1.449.132 2.766.56 3.952 1.284 1.185.724 2.206 1.843 3.063 3.357.856 1.514 1.284 3.653 1.284 6.418 0 .395-.132 1.415-.395 3.06-.264 1.646-.395 2.732-.395 3.259-.132.658-.198 1.645-.198 2.962 0 .394.033 1.151.099 2.27a77.21 77.21 0 0 0 .296 3.555c.132 1.25.23 2.435.297 3.554.065 1.12.098 1.876.098 2.271 0 .527-.098 1.613-.296 3.258-.198 1.646-.296 2.798-.296 3.456 0 .263-.033.757-.1 1.481a26.27 26.27 0 0 0-.098 2.37v6.022a9.13 9.13 0 0 1-.198 1.778 45.288 45.288 0 0 1-.691 5.331 28.16 28.16 0 0 0-.494 5.332c0 .131.066.954.197 2.468.132 1.514.198 2.337.198 2.468v11.848c0 1.185.066 2.37.198 3.555.131 1.185.658 2.501 1.58 3.95.922 1.579 1.845 2.83 2.767 3.751.79.658 1.976 1.284 3.556 1.876 1.581.592 2.635.954 3.162 1.086.659.132 1.35.165 2.075.099a7.212 7.212 0 0 1 2.074.099c.264 0 .89.065 1.878.197.988.132 1.613.197 1.877.197 1.317 0 2.305-.131 2.964-.394 1.054-.264 1.811-.527 2.272-.79.461-.264 1.416-.988 2.865-2.172a55.282 55.282 0 0 0 2.371-1.778c.659-.526 1.153-1.119 1.482-1.777.33-.658.56-1.415.692-2.27.132-.856.198-2.008.198-3.456.131-.659.164-1.975.098-3.95-.066-1.974-.098-3.29-.098-3.95 0-.262.032-.789.098-1.579.066-.79.165-1.612.297-2.468.131-.856.23-1.646.296-2.37.066-.724.099-1.283.099-1.678 0-1.053-.099-2.107-.296-3.16a17.099 17.099 0 0 1-.297-3.16c0-.394.099-1.349.297-2.862.197-1.514.296-2.469.296-2.864 0-.526-.066-1.415-.198-2.666-.131-1.25-.296-2.567-.494-3.949a96.56 96.56 0 0 1-.494-4.048c-.131-1.316-.197-2.238-.197-2.764 0-2.107.131-4.213.395-6.32.263-2.106.395-4.212.395-6.318 0-.395-.033-1.383-.099-2.962-.066-1.58-.098-2.633-.098-3.16 0-.395.032-1.25.098-2.567.066-1.316.1-2.172.1-2.567 0-.527-.133-1.678-.396-3.456-.264-1.777-.395-2.995-.395-3.653 0-.79.197-1.974.593-3.554.395-1.58 1.58-2.699 3.556-3.357.395-.263 1.35-.527 2.865-.79 1.515-.263 2.734-.395 3.656-.395.922 0 1.811.066 2.667.198.857.131 1.746.197 2.668.197h6.323c.264 0 .494.033.692.099.197.066.428.098.691.098H435.7Zm93.266 21.92V444.3c0-.79-.033-1.613-.1-2.468a32.194 32.194 0 0 1-.098-2.469v-1.777c0-2.896.461-5.266 1.383-7.109 1.054-2.37 2.734-4.048 5.039-5.035 2.305-.987 4.84-1.547 7.607-1.678h1.976c.527 0 1.581-.132 3.162-.395h8.892c.526 0 1.613.065 3.26.197 1.647.132 2.8.198 3.458.198.263 0 1.02.032 2.272.098 1.252.066 2.075.099 2.47.099.527 0 1.614-.033 3.26-.099 1.647-.066 3.327-.164 5.04-.296 1.712-.132 3.26-.23 4.643-.296a85.578 85.578 0 0 1 2.47-.099c2.107 0 4.182.132 6.224.395s4.116.46 6.224.592h1.976c.922 0 1.877-.032 2.865-.098a43.132 43.132 0 0 1 2.865-.099h1.976c2.898 0 5.5.197 7.805.592 2.306.395 5.368.988 9.189 1.778 2.24.526 4.017.954 5.335 1.283 1.317.33 3.03 1.02 5.137 2.074.922.394 1.713.756 2.371 1.086.659.329 1.318.724 1.976 1.184a54.54 54.54 0 0 1 2.371 1.778 240.75 240.75 0 0 1 3.557 2.863c1.45 1.185 2.371 2.007 2.767 2.468.395.461 1.053 1.415 1.976 2.863.395.527.79 1.02 1.185 1.481.395.461.725.955.988 1.481.395.659.758 1.317 1.087 1.975.33.658.691 1.317 1.087 1.975.263.526.592 1.02.988 1.48.395.462.724.955.988 1.482.527.658 1.053 1.547 1.58 2.666.527 1.119.988 2.073 1.384 2.863.526 1.185 1.02 2.567 1.482 4.147.46 1.58.856 3.093 1.185 4.541.33 1.449.56 2.83.692 4.147.131 1.317.197 2.238.197 2.765 0 .921-.066 1.777-.197 2.567-.132.79-.396 2.172-.79 4.147-.396 2.37-.758 4.245-1.087 5.627-.33 1.383-.66 2.6-.988 3.654a41.828 41.828 0 0 1-1.087 3.06c-.395.988-.988 2.205-1.779 3.653-1.317 2.37-2.535 4.378-3.655 6.023-1.12 1.646-2.338 3.061-3.656 4.246-1.317 1.185-2.865 2.27-4.643 3.258-1.779.987-3.92 2.008-6.422 3.06-.659.264-1.383.659-2.174 1.186-.79.526-1.185 1.382-1.185 2.567 0 .658.296 1.25.889 1.777a6.414 6.414 0 0 0 1.877 1.185c.527.263 1.45.526 2.767.79 1.317.263 2.305.394 2.963.394.264 0 1.054-.033 2.372-.098 1.317-.066 2.239-.165 2.766-.297.395 0 1.284-.098 2.667-.296 1.384-.197 2.339-.296 2.866-.296.79 0 1.745.066 2.865.198 1.12.131 2.206.526 3.26 1.184 1.054.659 1.976 1.679 2.766 3.061s1.186 3.39 1.186 6.023c0 .395-.033 1.119-.099 2.172a70.007 70.007 0 0 1-.296 3.357 66.828 66.828 0 0 0-.297 3.456c-.065 1.119-.098 1.875-.098 2.27 0 1.843.098 3.686.296 5.53a51.83 51.83 0 0 1 .296 5.529c0 2.632-.296 4.739-.889 6.318-.593 1.58-1.35 2.765-2.272 3.555-.922.79-1.943 1.316-3.063 1.58-1.12.263-2.14.395-3.063.395-.263 0-.988-.033-2.173-.1-1.186-.065-1.91-.098-2.174-.098-1.449 0-2.898.033-4.347.099a95.786 95.786 0 0 1-4.347.099h-1.976c-1.054 0-2.305-.033-3.754-.1a96.379 96.379 0 0 1-4.347-.295c-1.45-.132-2.635-.33-3.557-.593-1.45-.395-3.063-1.02-4.841-1.876a53.95 53.95 0 0 1-5.335-2.962 174.21 174.21 0 0 1-5.138-3.357 83.225 83.225 0 0 1-4.248-3.06 68.363 68.363 0 0 0-2.766-1.876 68.363 68.363 0 0 1-2.767-1.876c-.263-.132-.889-.593-1.877-1.383s-2.042-1.612-3.161-2.468a284.121 284.121 0 0 1-3.063-2.37l-1.383-1.086c-.264-.131-.922-.329-1.976-.592-1.054-.263-1.779-.395-2.174-.395-1.449 0-2.503.593-3.161 1.777a7.609 7.609 0 0 0-.988 3.752c0 .658.033 1.547.098 2.666.066 1.119.165 2.008.297 2.666.263.658.46 1.218.593 1.678.131.461.263.955.395 1.481.132.395.197 1.053.197 1.975 0 2.633-.658 4.673-1.976 6.121-1.317 1.449-3.359 2.173-6.125 2.173-.659 0-1.877-.066-3.656-.198-1.778-.132-2.996-.197-3.655-.197-.395 0-1.087.033-2.075.098-.988.066-2.075.1-3.26.1-1.186 0-2.273.032-3.26.098-.989.066-1.68.099-2.075.099h-1.877a9.589 9.589 0 0 1-1.878-.198c-.658 0-1.91-.132-3.754-.395s-3.096-.395-3.754-.395c-.395 0-1.054.033-1.976.099-.922.066-1.91.165-2.964.296-1.054.132-2.075.23-3.063.296-.988.066-1.68.1-2.075.1-3.556 0-5.993-.955-7.31-2.864-1.318-1.909-1.977-3.982-1.977-6.22a20.416 20.416 0 0 1 .395-3.95c.264-2.501.462-4.311.593-5.43.132-1.119.198-2.403.198-3.85v-6.517c0-1.317-.033-2.567-.099-3.752a53.147 53.147 0 0 1-.099-2.764c-.131-.132-.197-.56-.197-1.284s-.066-1.481-.198-2.27a170.78 170.78 0 0 1-.395-2.963c0-1.448.099-2.83.296-4.147.198-1.316.363-2.633.494-3.949 0-.527-.033-1.58-.098-3.16-.066-1.58-.1-2.632-.1-3.159 0-.395.034-1.086.1-2.073.065-.988.164-2.04.296-3.16a59.83 59.83 0 0 0 .296-3.258c.066-1.053.1-1.777.1-2.172v-20.734c0-.263-.034-.856-.1-1.777a31.69 31.69 0 0 1-.098-1.975v-3.752c0-.395-.033-1.185-.1-2.37a98.278 98.278 0 0 0-.296-3.85 247.393 247.393 0 0 0-.395-3.85c-.132-1.186-.197-2.041-.197-2.568v-9.676Zm61.847 22.313c-1.844 0-3.293.198-4.347.592-1.054.395-1.811.988-2.272 1.778-.461.79-.725 1.744-.79 2.863a66.32 66.32 0 0 0-.1 3.85c0 .264.066.922.198 1.975s.198 1.712.198 1.975c0 .263-.033.888-.1 1.876-.065.987-.098 1.612-.098 1.876 0 2.764.659 4.541 1.976 5.331s2.7 1.185 4.15 1.185a19.7 19.7 0 0 0 5.137-.691c1.712-.46 3.03-.823 3.952-1.086a120.59 120.59 0 0 0 2.865-.987c.725-.264 1.35-.527 1.877-.79a5.274 5.274 0 0 0 1.383-.988c.396-.395.923-.921 1.581-1.58 1.054-1.052 1.746-1.908 2.075-2.566.33-.659.494-1.712.494-3.16 0-2.764-.395-4.673-1.186-5.726-.79-1.054-1.91-2.04-3.359-2.962-1.185-.659-2.14-1.054-2.865-1.185-.724-.132-2.206-.33-4.446-.593h-1.284a4.04 4.04 0 0 1-1.285-.197c-2.239-.527-3.49-.79-3.754-.79Zm165.586 6.714c.395 0 1.053-.033 1.975-.099.923-.066 1.91-.131 2.964-.197a335.52 335.52 0 0 0 2.964-.198 31.457 31.457 0 0 1 1.976-.098c3.82 0 6.455.493 7.904 1.48 1.45.988 2.371 3.39 2.767 7.208.131.395.164 1.382.098 2.962-.066 1.58-.098 2.633-.098 3.16 0 .394.032 1.184.098 2.37.066 1.184.165 2.435.297 3.751a86.59 86.59 0 0 1 .296 3.752c.066 1.185.099 2.04.099 2.567 0 3.554-.626 5.76-1.877 6.615a10.404 10.404 0 0 1-4.051 1.679c-.395.131-1.186.164-2.371.098-1.186-.066-1.976-.098-2.371-.098-.264 0-.79.032-1.581.098-.79.066-1.317.165-1.58.297-.133 0-1.153.032-3.064.098-1.91.066-3.984.099-6.224.099s-4.347.033-6.323.099-3.03.098-3.161.098c-.396 0-.988-.032-1.779-.098-.79-.066-1.68-.099-2.667-.099-.988 0-1.878-.033-2.668-.099a23.464 23.464 0 0 0-1.778-.098c-.395 0-1.021.032-1.877.098-.857.066-1.713.23-2.57.494a5.988 5.988 0 0 0-2.272 1.283c-.658.593-.987 1.416-.987 2.469 0 1.58.428 2.764 1.284 3.554.856.79 1.877 1.382 3.063 1.777 1.185.395 2.47.626 3.853.692 1.383.065 2.667.098 3.853.098.659 0 1.482-.033 2.47-.098.988-.066 2.404-.23 4.248-.494.922-.263 2.075-.395 3.458-.395h5.039c.527 0 1.712-.033 3.556-.099 1.845-.066 3.096-.099 3.755-.099 1.844.132 3.326.198 4.446.198 1.12 0 2.601-.066 4.446-.198 2.503 0 4.182.23 5.038.692.857.46 1.548 1.02 2.075 1.678.79.922 1.58 2.073 2.371 3.456.79 1.382 1.186 3.587 1.186 6.615 0 .526-.033 1.613-.099 3.258-.066 1.646-.099 2.732-.099 3.258 0 .395.033 1.086.099 2.074.066.987.099 2.073.099 3.258a53.9 53.9 0 0 0 .099 3.357c.065 1.053.098 1.777.098 2.172 0 5.397-.658 9.083-1.976 11.058-1.317 1.975-4.083 2.962-8.299 2.962-.395 0-1.185-.033-2.37-.099-1.186-.065-2.47-.131-3.854-.197a489.86 489.86 0 0 1-3.853-.198 52.407 52.407 0 0 0-2.569-.098c-1.317 0-3.82.197-7.508.592a52.65 52.65 0 0 1-5.632.494c-1.91.066-3.59.098-5.039.098-.658 0-1.712-.032-3.161-.098-1.45-.066-3.03-.165-4.742-.296-1.976-.132-3.854-.23-5.632-.297-1.778-.065-3.59-.098-5.434-.098-1.844 0-3.886.065-6.125.197-2.24.132-4.808.263-7.707.395-.395 0-1.185-.033-2.37-.099a71.804 71.804 0 0 0-3.953-.098c-2.107-.264-4.083-.362-5.927-.297-1.845.066-4.15.23-6.916.494-1.713.132-3.096.23-4.15.296-1.054.066-1.91.099-2.569.099-2.37 0-4.215-.296-5.532-.889-1.318-.592-2.273-1.382-2.865-2.37a7.861 7.861 0 0 1-1.087-3.159 27.87 27.87 0 0 1-.198-3.258c0-.395.033-.987.099-1.777.066-.79.132-1.646.198-2.567.065-.922.131-1.777.197-2.567.066-.79.099-1.383.099-1.777 0-.79.033-2.238.099-4.345.066-2.106.132-4.344.197-6.714.066-2.37.132-4.607.198-6.713.066-2.107.099-3.555.099-4.345 0-.395.066-1.185.197-2.37a63.81 63.81 0 0 0 .297-3.652c.066-1.251.132-2.469.197-3.654.066-1.184.1-2.04.1-2.567a89.28 89.28 0 0 0-.594-10.268c-.263-1.58-.395-2.83-.395-3.752v-5.726c-.132-.922-.197-1.646-.197-2.173v-2.172a9.146 9.146 0 0 1-.198-1.777v-2.764c0-.395-.033-1.185-.099-2.37a679.124 679.124 0 0 1-.197-3.752 679.12 679.12 0 0 0-.198-3.752 52.305 52.305 0 0 1-.099-2.567c0-1.974.099-3.95.297-5.924.197-1.974.362-4.015.494-6.121.131-.922.197-1.843.197-2.765v-2.962c0-1.58-.033-3.192-.099-4.838a112.25 112.25 0 0 0-.296-4.838 56.278 56.278 0 0 1-.296-2.962 41.664 41.664 0 0 1-.1-2.962c0-5.397 1.252-8.952 3.755-10.663 2.503-1.711 5.467-2.567 8.892-2.567.659 0 2.009.099 4.05.296 2.042.198 3.393.296 4.051.296 1.713 0 3.722-.033 6.027-.098 2.305-.066 4.314-.1 6.027-.1.395 0 1.12-.032 2.173-.098a54.006 54.006 0 0 1 3.36-.099c1.185 0 2.338-.032 3.457-.098 1.12-.066 1.878-.099 2.273-.099h1.976c.658 0 1.317.066 1.976.197.395.132.757.23 1.086.297.33.065.692.098 1.087.098.527 0 .988-.065 1.383-.197h2.272c.46 0 1.02.066 1.68.197.658 0 1.218.033 1.679.1.46.065.823.098 1.087.098h.889c.33 0 .757-.066 1.284-.198h3.162c.395 0 .856.066 1.383.198.527 0 .988.033 1.383.099.395.065.725.098.988.098h.79c.264 0 .923-.065 1.976-.197.132 0 .692-.066 1.68-.198.988-.131 2.108-.23 3.36-.296a243.28 243.28 0 0 0 3.358-.197 52.094 52.094 0 0 1 1.68-.099c.395 0 1.251.033 2.569.099 1.317.066 2.173.098 2.568.098h4.545c.263 0 .955.033 2.075.1 1.12.065 1.811.098 2.075.098.922 0 1.91.033 2.963.099 1.054.065 1.91.23 2.57.493 1.185.659 2.107 1.547 2.766 2.666a11.87 11.87 0 0 1 1.383 3.456c.263 1.185.428 2.304.494 3.357a41.55 41.55 0 0 1 .099 2.37 69.49 69.49 0 0 1-.1 3.652 69.49 69.49 0 0 0-.098 3.654c0 .395.033 1.119.099 2.172.066 1.053.164 2.172.296 3.357a70.01 70.01 0 0 1 .296 3.357c.066 1.053.1 1.777.1 2.172 0 .79-.067 1.843-.198 3.16-.132 1.316-.593 2.698-1.383 4.146-.66 1.448-1.417 2.37-2.273 2.765-.856.395-1.943.592-3.26.592-.395 0-1.252-.033-2.569-.099s-2.24-.098-2.766-.098c-.527 0-1.746.032-3.656.098-1.91.066-3.194.099-3.853.099-.395 0-1.02-.033-1.877-.099a61.085 61.085 0 0 1-2.865-.296 61.085 61.085 0 0 0-2.865-.296 27.408 27.408 0 0 0-1.878-.099c-.395 0-.987.033-1.778.099-.79.066-1.614.131-2.47.197-.856.066-1.68.132-2.47.198a23.39 23.39 0 0 1-1.778.099c-.527 0-1.614-.066-3.26-.198-1.647-.132-2.734-.197-3.26-.197-1.582 0-3.228.197-4.94.592-1.713.395-2.57 1.711-2.57 3.95 0 2.896 1.054 4.574 3.162 5.035 2.108.46 5.664.69 10.67.69.659 0 1.877-.098 3.656-.295 1.778-.198 2.997-.297 3.655-.297.264 0 .988.033 2.174.1 1.185.065 1.976.098 2.371.098h4.15Zm86.547 42.455c.658.132 1.284.264 1.877.395a90.39 90.39 0 0 0 1.877.395c.659.263 1.284.395 1.877.395s1.219.066 1.877.198c.527.131.988.263 1.383.395.396.131.857.329 1.384.592.922.263 1.778.395 2.568.395s1.647.131 2.57.395c.658.131 1.35.263 2.074.395a16.6 16.6 0 0 1 2.272.592c1.054.263 2.14.428 3.26.494 1.12.066 2.273.23 3.458.493 1.713.395 3.722.757 6.027 1.087 2.305.329 3.59.493 3.853.493 1.45 0 2.602-.428 3.458-1.283.856-.856 1.285-1.613 1.285-2.271 0-.79-.363-1.547-1.087-2.271-.725-.724-1.482-1.218-2.273-1.481-.658-.263-1.218-.428-1.68-.494a14.732 14.732 0 0 1-1.481-.296c-.659-.263-1.515-.658-2.569-1.185a3.513 3.513 0 0 0-.988-.296 3.513 3.513 0 0 1-.988-.296c-.395-.132-1.218-.494-2.47-1.086a284.653 284.653 0 0 0-4.05-1.876 84.622 84.622 0 0 1-4.249-2.074c-1.383-.724-2.404-1.283-3.063-1.678a249.66 249.66 0 0 1-2.865-1.975c-1.515-1.053-2.535-1.711-3.062-1.974a134.506 134.506 0 0 0-4.743-3.259c-1.317-.855-2.305-1.612-2.964-2.27-.658-.527-1.449-1.383-2.37-2.568a135.489 135.489 0 0 0-2.866-3.554 54.794 54.794 0 0 1-2.47-3.16c-.659-.92-.988-1.382-.988-1.382-.263-.263-.659-.987-1.185-2.172a551.824 551.824 0 0 1-1.779-4.048 50.39 50.39 0 0 1-1.778-4.74c-.527-1.645-.856-3.126-.988-4.442a23.938 23.938 0 0 1-.198-2.962c0-.922-.066-1.909-.197-2.962 0-.132-.033-.395-.1-.79a8.5 8.5 0 0 1-.098-1.382v-1.777c0-1.185.165-2.732.494-4.64.33-1.91.89-3.72 1.68-5.431.263-.527.494-1.02.691-1.481.198-.461.428-.955.692-1.481a87.788 87.788 0 0 0 1.087-3.061c.329-.987.757-2.008 1.284-3.06.79-1.58 1.515-2.765 2.173-3.555.66-.79 1.647-1.843 2.964-3.16.66-.658 1.186-1.25 1.581-1.777a14.9 14.9 0 0 1 1.383-1.58c2.503-2.5 5.632-4.574 9.386-6.22 3.754-1.645 7.805-2.863 12.152-3.653a199.67 199.67 0 0 1 3.063-.592 24.6 24.6 0 0 1 2.174-.296 25.133 25.133 0 0 1 2.272-.1h3.36c.394 0 1.185-.032 2.37-.098 1.186-.066 2.404-.132 3.656-.197 1.251-.066 2.47-.132 3.655-.198a52.407 52.407 0 0 1 2.57-.099c.263 0 1.382.033 3.358.1 1.976.065 4.084.13 6.323.197a156.6 156.6 0 0 1 6.225.296c1.91.131 2.93.197 3.062.197.132 0 .758.066 1.877.198 1.12.131 2.437.428 3.952.888a29.838 29.838 0 0 1 4.644 1.876c1.58.79 2.832 1.777 3.754 2.962.527.658.922 1.317 1.186 1.975.263.658.46 1.448.593 2.37.131.921.197 2.139.197 3.653v18.265c0 1.843-.099 3.259-.296 4.246-.198.987-.428 1.81-.692 2.468-.658 1.053-1.548 2.074-2.667 3.061-1.12.987-1.746 1.547-1.878 1.678-.526.264-1.646.626-3.359 1.087-1.712.46-2.832.69-3.359.69-.132 0-1.12-.263-2.964-.79a430.83 430.83 0 0 0-4.94-1.381 16.361 16.361 0 0 0-3.556-.395c-1.186 0-2.437-.132-3.755-.395-.658-.132-1.35-.264-2.074-.395a128.73 128.73 0 0 1-2.075-.395c-.527-.132-1.252-.198-2.174-.198-2.24 0-3.853.297-4.84.889-.989.592-1.483 1.218-1.483 1.876 0 .921.593 1.876 1.779 2.863 1.185.987 3.095 1.81 5.73 2.468 1.844.527 3.721 1.087 5.631 1.679 1.91.592 3.524 1.218 4.841 1.876a75.788 75.788 0 0 1 3.36 1.975l3.161 1.974a63.505 63.505 0 0 0 3.656 1.876 33.925 33.925 0 0 1 3.458 1.876 70.666 70.666 0 0 1 3.951 2.863 72.085 72.085 0 0 1 4.15 3.456 57.252 57.252 0 0 1 3.458 3.357c.988 1.053 1.614 1.777 1.877 2.172.395.527.988 1.35 1.778 2.468.79 1.12 1.318 1.942 1.581 2.469.264.658.494 1.283.692 1.876.197.592.428 1.217.691 1.876.264.526.56 1.02.89 1.48.329.461.625 1.02.889 1.68.131.394.395 1.118.79 2.171.395 1.053.725 2.238.988 3.555l.79 3.949a19.14 19.14 0 0 1 .396 3.752c0 .395-.066 1.02-.198 1.876-.132.855-.23 1.81-.296 2.863a32.111 32.111 0 0 1-.297 2.863c-.131.856-.197 1.481-.197 1.876a16.78 16.78 0 0 0-.396 3.653c0 1.251-.131 2.469-.395 3.654-.527 1.974-1.449 4.08-2.766 6.318-1.317 2.238-2.503 3.884-3.557 4.937-.527.527-1.054.987-1.58 1.382-.527.395-1.054.856-1.581 1.383a28.06 28.06 0 0 1-2.075 1.876 28.06 28.06 0 0 0-2.075 1.876l-2.964 1.777a26.885 26.885 0 0 0-2.47 1.58 67.899 67.899 0 0 1-2.272 1.58c-2.371 1.447-4.446 2.435-6.224 2.961a121.42 121.42 0 0 1-5.039 1.383c-1.713.394-3.129.658-4.248.79l-3.36.394c-1.12.132-2.404.165-3.853.099a126.277 126.277 0 0 0-5.532-.099h-2.075c-.988 0-2.009.033-3.063.099a49.162 49.162 0 0 1-3.063.099h-2.074c-.264 0-.988-.033-2.174-.099-1.185-.066-1.91-.099-2.173-.099h-1.976c-.264 0-.758-.033-1.482-.098a38.79 38.79 0 0 1-2.371-.297 38.79 38.79 0 0 0-2.372-.296 19.905 19.905 0 0 0-1.68-.099 19.55 19.55 0 0 0-2.766-.197c-.922 0-1.91-.066-2.963-.197a21.978 21.978 0 0 0-1.878-.297 17.025 17.025 0 0 0-1.877-.098 104.133 104.133 0 0 0-6.224-.593 23.852 23.852 0 0 1-6.027-1.185c-1.58-.526-2.964-1.152-4.15-1.876-1.185-.724-1.975-1.612-2.37-2.665-.132-.264-.231-.988-.297-2.173a679.217 679.217 0 0 1-.197-3.751 417.598 417.598 0 0 0-.198-3.654c-.066-1.118-.099-1.81-.099-2.073 0-.526.066-1.645.198-3.357.132-1.711.197-2.83.197-3.357 0-.395-.033-1.053-.098-1.974a40.18 40.18 0 0 1-.1-2.864c0-.987-.032-1.941-.098-2.863a31.691 31.691 0 0 1-.099-1.975c0-.658.066-1.744.198-3.258s.658-2.995 1.58-4.443c.923-1.316 2.042-2.337 3.36-3.06 1.317-.725 2.568-1.087 3.754-1.087h.198Zm226.642-93.402 3.557-.394a32.204 32.204 0 0 1 3.557-.198c.263 0 1.218.066 2.865.198 1.646.131 2.93.394 3.853.79a82.64 82.64 0 0 1 1.976 1.382c.922.658 1.515 1.184 1.778 1.58.395.526.758 1.316 1.087 2.369.33 1.053.56 2.14.692 3.258.131 1.12.23 2.238.296 3.357.066 1.12.099 2.008.099 2.666 0 .921-.033 1.81-.099 2.666a37.49 37.49 0 0 0-.099 2.863c0 .263.033.987.099 2.172s.099 1.975.099 2.37v3.455c0 1.778-.066 2.93-.198 3.456-.132 1.053-.263 2.14-.395 3.258a452.948 452.948 0 0 1-.395 3.259c0 .263-.066.888-.198 1.875a42.67 42.67 0 0 0-.296 3.259 49.017 49.017 0 0 1-.297 3.357c-.131 1.053-.197 1.711-.197 1.974 0 .79.033 1.547.099 2.271s.164 2.008.296 3.85c.132 1.58.23 3.127.296 4.641.066 1.514.1 3.06.1 4.64 0 2.37-.067 4.74-.198 7.11a131.67 131.67 0 0 0-.198 7.306c0 .395.033 1.35.099 2.863.066 1.514.099 2.534.099 3.06 0 .132-.033.856-.1 2.173a227.047 227.047 0 0 1-.296 4.74 52.576 52.576 0 0 1-.79 5.923c-.395 2.106-.856 3.95-1.383 5.53a23.18 23.18 0 0 1-.89 2.27 23.273 23.273 0 0 0-.888 2.27c-.264.79-.494 1.58-.692 2.37a16.89 16.89 0 0 1-.692 2.173 31.633 31.633 0 0 1-1.68 2.962c-.592.921-1.218 1.909-1.876 2.962a125.963 125.963 0 0 0-1.482 3.06 18.064 18.064 0 0 1-1.68 2.864c-.527.921-1.515 2.205-2.964 3.85-1.449 1.646-3.161 3.127-5.137 4.443-.396.264-.824.56-1.285.889-.46.329-.955.625-1.482.888-.658.395-1.251.823-1.778 1.284-.527.46-1.12.889-1.778 1.284-1.713 1.053-3.623 1.908-5.73 2.567a60.082 60.082 0 0 1-6.126 1.58 71.16 71.16 0 0 1-5.434.888c-1.647.197-2.931.296-3.853.296-.395 0-1.45-.033-3.162-.099-1.712-.065-2.898-.098-3.556-.098h-1.581a6.5 6.5 0 0 0-1.581.197l-4.742.593h-2.371c-.396 0-1.186-.033-2.372-.1a113.652 113.652 0 0 1-3.952-.295c-1.449-.132-2.766-.23-3.951-.297a52.408 52.408 0 0 0-2.57-.098c-.526 0-1.58.066-3.16.197-1.581.132-2.635.198-3.162.198-.264 0-.955-.066-2.075-.198-1.12-.131-1.877-.197-2.272-.197-1.054 0-2.404-.165-4.051-.494a57.714 57.714 0 0 1-4.841-1.185c-1.581-.46-3.03-.888-4.347-1.283-1.318-.395-2.174-.724-2.569-.988-.79-.263-1.45-.592-1.976-.987-.527-.395-1.713-1.25-3.557-2.567-.263-.132-.856-.46-1.778-.987a156.335 156.335 0 0 1-2.865-1.679 303.34 303.34 0 0 1-2.767-1.678 67.838 67.838 0 0 1-1.877-1.185c-.527-.395-1.284-.955-2.272-1.679-.988-.724-2.075-1.645-3.26-2.764a35.638 35.638 0 0 1-3.36-3.653 28.398 28.398 0 0 1-2.766-4.147 30.295 30.295 0 0 0-.79-1.481c-.264-.46-.527-.954-.79-1.481a43.868 43.868 0 0 0-1.581-2.567c-.527-.79-.988-1.58-1.384-2.37 0-.131-.164-.658-.494-1.58-.329-.921-.691-1.941-1.086-3.06a94.381 94.381 0 0 1-1.087-3.258c-.33-1.054-.494-1.712-.494-1.975-.132-.527-.198-.955-.198-1.284v-4.443c0-.921-.033-1.941-.099-3.06a53.923 53.923 0 0 1-.098-3.16v-2.073c0-.395.033-1.152.098-2.271.066-1.12.1-2.337.1-3.653 0-1.317.032-2.534.098-3.653a46.73 46.73 0 0 0 .099-2.469c0-.395-.033-1.053-.099-1.974a43.21 43.21 0 0 1-.099-3.061c0-1.12-.033-2.172-.099-3.16-.065-.987-.098-1.678-.098-2.073 0-.79.033-1.613.098-2.468.066-.856.1-1.679.1-2.469 0-.263-.034-.954-.1-2.073-.065-1.119-.098-1.876-.098-2.27 0-.396.033-1.087.098-2.074a49.23 49.23 0 0 0 .1-3.259 53.9 53.9 0 0 1 .098-3.356c.066-1.054.099-1.778.099-2.173 0-.526-.033-1.514-.099-2.962a855.135 855.135 0 0 1-.198-4.64 1164.62 1164.62 0 0 0-.197-4.74 85.324 85.324 0 0 1-.099-3.257c0-.395.033-1.185.099-2.37s.132-2.403.197-3.653c.066-1.25.132-2.469.198-3.653.066-1.185.099-1.975.099-2.37 0-.527-.066-1.514-.198-2.962-.131-1.448-.197-2.37-.197-2.765a9.61 9.61 0 0 1 .494-3.06c.329-.988.691-1.942 1.086-2.864 1.054-1.71 2.372-2.698 3.952-2.962a28.818 28.818 0 0 1 4.743-.394c.658 0 1.91.065 3.754.197s3.096.197 3.754.197c.527 0 1.482-.032 2.865-.098a93.823 93.823 0 0 1 4.446-.099c1.581 0 3.063-.033 4.446-.099a71.424 71.424 0 0 1 3.063-.098c.395 0 1.35.032 2.865.098 1.515.066 2.536.099 3.063.099h4.347c1.186 0 2.503.066 3.952.197 1.449.132 2.766.56 3.952 1.284 1.185.724 2.206 1.843 3.063 3.357.856 1.514 1.284 3.653 1.284 6.418 0 .395-.132 1.415-.395 3.06-.264 1.646-.395 2.732-.395 3.259-.132.658-.198 1.645-.198 2.962 0 .394.033 1.151.099 2.27a77.21 77.21 0 0 0 .296 3.555c.132 1.25.23 2.435.297 3.554.065 1.12.098 1.876.098 2.271 0 .527-.098 1.613-.296 3.258-.198 1.646-.296 2.798-.296 3.456 0 .263-.033.757-.1 1.481a26.267 26.267 0 0 0-.098 2.37v6.022a9.13 9.13 0 0 1-.198 1.778 45.289 45.289 0 0 1-.691 5.331 28.16 28.16 0 0 0-.494 5.332c0 .131.066.954.197 2.468.132 1.514.198 2.337.198 2.468v11.848c0 1.185.066 2.37.198 3.555.131 1.185.658 2.501 1.58 3.95.922 1.579 1.845 2.83 2.767 3.751.79.658 1.976 1.284 3.556 1.876 1.581.592 2.635.954 3.162 1.086.659.132 1.35.165 2.075.099a7.212 7.212 0 0 1 2.074.099c.264 0 .89.065 1.878.197.988.132 1.613.197 1.877.197 1.317 0 2.305-.131 2.964-.394 1.054-.264 1.811-.527 2.272-.79.461-.264 1.416-.988 2.865-2.172a55.283 55.283 0 0 0 2.371-1.778c.659-.526 1.153-1.119 1.482-1.777.33-.658.56-1.415.692-2.27.132-.856.198-2.008.198-3.456.131-.659.164-1.975.098-3.95-.066-1.974-.098-3.29-.098-3.95 0-.262.032-.789.098-1.579.066-.79.165-1.612.297-2.468.131-.856.23-1.646.296-2.37.066-.724.099-1.283.099-1.678 0-1.053-.099-2.107-.296-3.16a17.1 17.1 0 0 1-.297-3.16c0-.394.099-1.349.297-2.862.197-1.514.296-2.469.296-2.864 0-.526-.066-1.415-.198-2.666-.131-1.25-.296-2.567-.494-3.949a96.552 96.552 0 0 1-.494-4.048c-.131-1.316-.197-2.238-.197-2.764 0-2.107.131-4.213.395-6.32.263-2.106.395-4.212.395-6.318 0-.395-.033-1.383-.099-2.962-.066-1.58-.098-2.633-.098-3.16 0-.395.032-1.25.098-2.567.066-1.316.1-2.172.1-2.567 0-.527-.133-1.678-.396-3.456-.264-1.777-.395-2.995-.395-3.653 0-.79.197-1.974.593-3.554.395-1.58 1.58-2.699 3.556-3.357.395-.263 1.35-.527 2.865-.79 1.515-.263 2.734-.395 3.656-.395.922 0 1.811.066 2.667.198.857.131 1.746.197 2.668.197h6.323c.264 0 .494.033.692.099.197.066.428.098.691.098h12.251Zm38.729 110.582c-.659-.922-1.449-2.04-2.371-3.357-.922-1.316-1.844-2.995-2.766-5.035-.923-2.04-1.779-4.51-2.57-7.405-.79-2.897-1.382-6.451-1.778-10.664a49.023 49.023 0 0 1-.296-3.357 17.908 17.908 0 0 0-.494-3.357c-.527-3.817-.856-6.351-.988-7.602a33.17 33.17 0 0 1-.198-3.456c0-1.053.066-2.435.198-4.146.132-1.712.296-3.456.494-5.233.198-1.778.395-3.456.593-5.036.197-1.58.428-2.896.691-3.95a35.151 35.151 0 0 1 1.878-4.837 99.023 99.023 0 0 0 2.074-4.64 43.565 43.565 0 0 0 1.68-4.246 43.568 43.568 0 0 1 1.68-4.246 30.847 30.847 0 0 1 1.877-3.554 42.696 42.696 0 0 1 2.272-3.357 115.64 115.64 0 0 1 2.371-2.962c.659-.79 1.45-1.58 2.371-2.37a78.816 78.816 0 0 1 3.458-2.764 3367.28 3367.28 0 0 0 5.434-4.147 289.789 289.789 0 0 1 5.236-3.85c1.384-.988 2.8-1.81 4.249-2.469 1.449-.658 3.128-1.25 5.038-1.777 1.91-.527 4.578-1.185 8.003-1.975 3.557-.79 6.554-1.382 8.99-1.777 2.438-.395 5.566-.592 9.387-.592h5.927c2.24 0 4.48.066 6.719.197 2.24.132 4.413.362 6.52.691 2.108.33 3.886.757 5.335 1.284.527.263 1.548.757 3.063 1.48 1.515.725 2.536 1.745 3.063 3.062.132.395.197 1.316.197 2.764v3.752c0 .395-.032 1.218-.098 2.468a93.608 93.608 0 0 1-.297 3.95 90.188 90.188 0 0 0-.296 4.048c-.066 1.316-.099 2.238-.099 2.764v1.383c0 .658.099 1.71.296 3.159a87.25 87.25 0 0 1 .494 4.542c.132 1.58.264 3.126.396 4.64.131 1.514.197 2.534.197 3.061 0 2.633-.263 4.706-.79 6.22-.527 1.514-1.219 2.633-2.075 3.357-.856.724-1.778 1.185-2.766 1.382-.988.198-1.943.297-2.865.297-.527 0-1.779-.1-3.755-.297-1.976-.197-3.293-.296-3.952-.296-.527 0-1.646.099-3.359.296-1.712.198-2.898.297-3.556.297l-3.755-.198h-1.778c-3.162.263-5.5.724-7.015 1.382-1.515.659-2.667 1.251-3.458 1.778-1.054.79-2.437 2.139-4.15 4.048-1.712 1.909-2.568 4.97-2.568 9.182 0 1.711.263 3.291.79 4.74.264.92.79 2.27 1.581 4.047.79 1.777 1.515 3.06 2.174 3.85.922 1.186 2.173 2.14 3.754 2.864a32.9 32.9 0 0 0 4.841 1.777c1.647.461 3.162.757 4.545.889 1.383.131 2.338.197 2.865.197 1.317 0 3.326-.263 6.027-.79 2.7-.526 4.972-.855 6.817-.987h1.383c4.61 0 7.74.987 9.386 2.962 1.646 1.975 2.47 5.463 2.47 10.466v2.073c0 .988-.033 2.074-.1 3.258a60.627 60.627 0 0 0-.098 3.357v2.173c0 1.843.033 3.587.099 5.232.066 1.646.165 3.39.296 5.233.264 1.712.395 2.962.395 3.752v2.567c0 1.185-.098 2.271-.296 3.258-.198.988-.626 1.942-1.284 2.864-.79 1.316-2.108 2.6-3.952 3.85-1.844 1.25-3.689 2.008-5.533 2.271-.395 0-1.02.033-1.877.099-.856.066-1.778.132-2.766.197-.988.066-1.943.132-2.866.198-.922.066-1.58.099-1.976.099a32.555 32.555 0 0 1-4.347.493c-1.449.066-3.49.099-6.125.099-.659 0-2.075-.132-4.248-.395a60.925 60.925 0 0 1-6.62-1.185 40.164 40.164 0 0 0-5.829-.79 45.725 45.725 0 0 1-6.027-.79 41.023 41.023 0 0 1-4.742-1.086 45.347 45.347 0 0 1-4.742-1.678c-2.24-.922-4.874-2.205-7.904-3.85-3.03-1.646-6.39-4.773-10.078-9.38a123.63 123.63 0 0 0-2.37-3.061 123.95 123.95 0 0 1-2.372-3.06 67.853 67.853 0 0 0-1.58-2.272 17.437 17.437 0 0 0-1.779-2.073Zm100.379-20.734c-.132-.658-.198-2.008-.198-4.048v-5.529c0-.461.066-1.02.198-1.679.395-3.686.593-7.306.593-10.86v-1.383c0-.79-.033-1.612-.1-2.468a31.039 31.039 0 0 1-.098-2.37v-10.564c0-.395-.033-1.185-.099-2.37-.066-1.184-.099-1.974-.099-2.37 0-.526.033-1.612.1-3.257.065-1.646.098-2.732.098-3.259 0-.263.033-.822.099-1.678s.099-1.744.099-2.666c0-.921.033-1.81.098-2.666.066-.855.1-1.48.1-1.876v-3.752c0-1.58-.133-3.29-.396-5.134a83.382 83.382 0 0 0-.494-4.245 29.97 29.97 0 0 1-.296-4.246c0-.131.033-.592.098-1.382l.198-2.37c.066-.79.132-1.514.198-2.172.065-.658.098-1.053.098-1.185.264-1.711 1.087-3.258 2.47-4.64 1.384-1.382 2.997-2.073 4.841-2.073.527 0 1.054.032 1.581.098.527.066 1.12.165 1.779.296.263 0 .724.033 1.383.1.658.065 1.646.098 2.964.098h3.26a13.4 13.4 0 0 0 3.26-.395c1.054-.263 1.746-.395 2.075-.395h1.087c.132 0 .856.033 2.173.099 1.318.066 2.767.164 4.348.296 1.58.132 3.095.23 4.544.296 1.45.066 2.306.099 2.569.099.263 0 .725-.033 1.383-.099a33.749 33.749 0 0 0 2.174-.296c.79 0 1.548-.033 2.272-.099.725-.066 1.219-.098 1.482-.098 2.898 0 4.907.592 6.027 1.777s1.943 2.238 2.47 3.16c.263.526.46 1.151.592 1.875.132.724.198 2.008.198 3.85 0 .264-.066.79-.197 1.58-.132.79-.264 1.613-.396 2.469-.131.856-.263 1.678-.395 2.468s-.197 1.382-.197 1.777c0 .264.032.757.098 1.481.066.724.132 1.514.198 2.37.066.856.132 1.646.198 2.37.065.724.098 1.283.098 1.678 0 .527-.033 1.613-.098 3.258-.066 1.646-.1 2.732-.1 3.258 0 1.449.231 2.633.692 3.555.461.921 1.021 1.678 1.68 2.27.659.593 1.317 1.021 1.976 1.284.658.264 1.12.461 1.383.593.263 0 1.054.065 2.371.197s2.766.263 4.347.395c1.581.132 3.03.23 4.347.296 1.318.066 2.042.099 2.174.099.659 0 1.844-.165 3.557-.494 1.712-.329 3.03-.69 3.952-1.086 2.634-1.053 4.182-2.468 4.643-4.245.461-1.777.692-3.061.692-3.85 0-.396-.033-1.087-.1-2.074a47.589 47.589 0 0 1-.098-3.16c0-1.119-.033-2.205-.099-3.258s-.099-1.777-.099-2.172c0-.395.033-1.415.1-3.06.065-1.646.098-2.732.098-3.259 0-.263-.033-1.086-.099-2.468-.066-1.383-.099-2.271-.099-2.666 0-.922.132-2.106.396-3.555.263-1.448.988-2.83 2.173-4.146 1.054-1.054 2.108-1.712 3.162-1.975 1.054-.263 2.766-.395 5.137-.395.395 0 1.383.099 2.964.296 1.581.198 2.635.296 3.162.296h.889c.593 0 1.218-.033 1.877-.098a18.912 18.912 0 0 1 1.877-.1h1.087c.395 0 1.251-.065 2.569-.197 1.317-.131 2.173-.197 2.569-.197.526 0 1.646.099 3.359.296 1.712.198 2.832.296 3.359.296.263 0 .79-.033 1.58-.098.79-.066 1.614-.132 2.47-.198.857-.066 1.68-.131 2.47-.197a23.41 23.41 0 0 1 1.779-.099c2.371 0 4.248.263 5.631.79 1.383.526 2.47 1.218 3.26 2.073.791.856 1.285 1.81 1.483 2.864a17.1 17.1 0 0 1 .296 3.159c0 .263-.033.823-.099 1.678a41.204 41.204 0 0 1-.296 2.666 41.21 41.21 0 0 0-.297 2.666 27.357 27.357 0 0 0-.098 1.876c0 .263.033.856.098 1.777.066.922.1 1.514.1 1.777 0 .264-.034.922-.1 1.975-.065 1.053-.164 1.711-.296 1.975v8.292c0 .922.066 1.91.198 2.962.131 1.58.263 3.127.395 4.64.132 1.515.197 2.996.197 4.444v1.975c0 .658-.065 1.513-.197 2.567a227.043 227.043 0 0 0-.593 8.59c-.132 2.698-.198 5.43-.198 8.194 0 .659.033 1.81.1 3.456.065 1.646.098 3.39.098 5.233 0 1.843.033 3.62.099 5.331.066 1.712.099 2.897.099 3.555v7.701c0 .395.033 1.185.098 2.37.066 1.184.132 2.468.198 3.85.066 1.383.132 2.666.198 3.85.065 1.186.098 2.041.098 2.568 0 .395-.033 1.185-.098 2.37a85.345 85.345 0 0 1-.297 3.751 85.33 85.33 0 0 0-.296 3.752 52.299 52.299 0 0 0-.099 2.567c0 .395.066 1.086.198 2.074.131.987.23 2.04.296 3.16.066 1.118.165 2.204.296 3.257.132 1.054.198 1.778.198 2.173 0 4.344-1.054 7.437-3.162 9.28-2.107 1.844-4.413 2.765-6.915 2.765-.264 0-.725-.033-1.384-.099a19.859 19.859 0 0 0-1.976-.098 10.06 10.06 0 0 0-1.975-.198h-3.261c-.593 0-1.218.066-1.877.198-.659 0-1.284.032-1.877.098s-1.219.099-1.877.099c-.264 0-.857-.033-1.779-.099a56.387 56.387 0 0 1-2.964-.296 41.67 41.67 0 0 1-2.964-.099 31.753 31.753 0 0 0-1.976-.098c-.395 0-1.053.033-1.975.098-.923.066-1.91.1-2.964.1s-2.075.032-3.063.098-1.68.099-2.075.099c-2.24 0-4.018-.264-5.335-.79-1.317-.527-2.305-1.284-2.964-2.271-.659-.988-1.087-2.172-1.284-3.555a31.438 31.438 0 0 1-.297-4.443c0-1.053.066-2.106.198-3.16a25.43 25.43 0 0 0 .197-3.159c0-.526-.131-1.71-.395-3.554-.263-1.843-.395-3.094-.395-3.752 0-1.053.033-2.304.099-3.752s.099-2.698.099-3.752v-.987c0-.263-.132-.921-.395-1.975-.264-1.58-.725-2.994-1.384-4.245-.658-1.25-1.778-2.205-3.359-2.863-.263-.132-.823-.23-1.68-.297-.856-.065-1.745-.131-2.667-.197a37.496 37.496 0 0 0-2.667-.099h-1.878c-.922 0-1.745.033-2.47.099-.724.066-2.338.296-4.84.691-.396.132-1.285.23-2.668.296-1.383.066-2.273.165-2.668.297-1.976.526-3.194 1.612-3.655 3.258-.461 1.645-.692 2.731-.692 3.258 0 .395.033 1.185.099 2.37a65.84 65.84 0 0 1 .099 3.653c0 1.25.033 2.468.099 3.653.065 1.185.098 2.04.098 2.567 0 .526-.066 1.613-.197 3.258-.132 1.646-.198 2.798-.198 3.456 0 .395.099 1.283.297 2.666.197 1.382.296 2.336.296 2.863 0 .658-.066 1.58-.198 2.764-.131 1.185-.494 2.37-1.086 3.555-.593 1.185-1.548 2.205-2.866 3.06-1.317.856-3.161 1.284-5.532 1.284-.395 0-1.087-.033-2.075-.099a53.327 53.327 0 0 1-3.063-.296 70.144 70.144 0 0 0-3.359-.296c-1.054-.066-1.712-.099-1.976-.099-.395 0-1.284.033-2.667.099-1.384.066-2.339.099-2.866.099-.526 0-1.646-.033-3.359-.1-1.712-.065-2.898-.098-3.556-.098-.396 0-1.12.033-2.174.099a54.005 54.005 0 0 1-3.36.099c-1.185 0-2.304.033-3.358.098-1.054.066-1.779.1-2.174.1-3.557 0-6.224-.527-8.002-1.58-1.779-1.054-2.866-2.765-3.26-5.135v-12.834c0-.263.032-.823.098-1.679.066-.855.165-1.546.296-2.073.132-.922.198-1.777.198-2.567v-2.172c0-.658-.033-1.777-.099-3.357-.066-1.58-.132-3.291-.197-5.134a867.734 867.734 0 0 0-.198-5.134 92.975 92.975 0 0 1-.099-3.357c0-.264.033-.955.099-2.074.066-1.119.099-1.81.099-2.073v-.395Zm-934.827 238.54c0-1.843.198-3.39.593-4.64.395-1.251 1.12-3.259 2.173-6.023.66-1.448 1.318-3.555 1.976-6.32.659-2.764 1.713-7.108 3.162-13.032a32.62 32.62 0 0 1 1.778-6.122 284.809 284.809 0 0 1 1.976-5.726 72.728 72.728 0 0 0 1.779-5.727 113.866 113.866 0 0 0 1.68-8.49 72.089 72.089 0 0 1 1.876-8.492 69.088 69.088 0 0 1 2.273-6.516 149.23 149.23 0 0 0 2.47-6.517c.263-.658.494-1.382.691-2.172.198-.79.428-1.58.692-2.37a5822089.89 5822089.89 0 0 0 1.58-7.108c.132-.527.527-1.646 1.186-3.357.659-1.711 1.35-3.522 2.075-5.43a336.035 336.035 0 0 0 1.976-5.332c.593-1.646.955-2.6 1.087-2.863a24.98 24.98 0 0 0 .988-3.357l.79-3.555a98.14 98.14 0 0 0 1.186-3.357l1.185-3.554c.659-1.58 1.317-3.127 1.976-4.64.659-1.514 1.778-2.798 3.36-3.851 2.107-1.448 4.017-2.27 5.73-2.468a44.813 44.813 0 0 1 5.137-.297c.527 0 1.45.033 2.766.1 1.318.065 2.734.098 4.249.098 1.515 0 2.964.033 4.347.099 1.383.065 2.338.098 2.865.098h2.766c1.186 0 2.404-.033 3.656-.098 1.251-.066 2.437-.132 3.557-.198a47.932 47.932 0 0 1 2.667-.099c.264 0 1.186-.065 2.766-.197 1.581-.132 2.503-.197 2.767-.197.395 0 1.218.032 2.47.098a93.78 93.78 0 0 1 3.952.296c1.383.132 2.667.23 3.853.297 1.185.065 2.042.098 2.569.098.526 0 1.613-.033 3.26-.098 1.646-.066 2.733-.1 3.26-.1 1.45 0 3.228.165 5.335.495 2.108.329 3.623.757 4.545 1.283.79.527 1.745 1.382 2.865 2.567 1.12 1.185 2.009 2.304 2.668 3.357.131.395.395 1.086.79 2.074.395.987.79 2.04 1.186 3.159.395 1.119.724 2.238.988 3.357.263 1.119.46 2.007.592 2.666.132 1.053.461 2.304.988 3.752l.79 3.554c.264 1.185.528 2.304.791 3.357.395 1.448.988 3.423 1.779 5.924.79 2.501 1.58 4.805 2.37 6.911.528 1.448.956 2.633 1.285 3.555.33.921.593 1.843.79 2.764.198.922.396 1.942.593 3.061.198 1.119.428 2.534.692 4.245.132 1.317.296 2.469.494 3.456.197.988.428 2.008.691 3.06.264 1.054.593 2.305.988 3.753a301.03 301.03 0 0 0 1.581 5.529c.395 1.58.79 3.192 1.186 4.838a58.33 58.33 0 0 0 1.383 4.838c.527 2.238 1.12 4.212 1.778 5.924.395.921.758 1.81 1.087 2.666.33.855.626 1.744.89 2.665a28.13 28.13 0 0 0 1.086 3.357 28.13 28.13 0 0 1 1.087 3.357c.263 1.053.527 2.172.79 3.357l.79 3.555.79 2.764.791 2.765c.132.263.395.954.79 2.073.396 1.119.66 1.81.791 2.073 0 .132.099.626.296 1.481.198.856.462 1.81.79 2.864a38.72 38.72 0 0 1 .791 2.863l.297 1.284c.263 1.316.395 2.303.395 2.962 0 6.582-3.096 10.465-9.287 11.65a8.49 8.49 0 0 0-1.383.099c-.396.066-.89.099-1.482.099h-6.027c-.395 0-1.186.032-2.371.098-1.186.066-2.437.132-3.754.198-1.318.066-2.57.131-3.755.197a52.407 52.407 0 0 1-2.569.099c-.263 0-.823-.033-1.68-.099a41.286 41.286 0 0 1-2.667-.296 33.82 33.82 0 0 1-2.766-.099 23.465 23.465 0 0 0-1.778-.098c-.264 0-.955.032-2.075.098s-1.811.099-2.075.099c-1.712 0-3.096-.099-4.15-.296-1.053-.198-1.942-.56-2.667-1.086-.724-.527-1.317-1.218-1.778-2.074-.461-.855-1.021-2.007-1.68-3.455-1.844-4.081-3.425-6.747-4.742-7.998-1.318-1.25-3.293-1.876-5.928-1.876-.527 0-1.713.132-3.557.395-1.844.264-3.095.395-3.754.395a6.5 6.5 0 0 1-1.58.198h-1.582c-.527 0-1.416-.033-2.667-.1a93.78 93.78 0 0 1-3.952-.295 93.78 93.78 0 0 0-3.952-.296 58.403 58.403 0 0 0-2.668-.1 14.78 14.78 0 0 0-5.038.89c-1.647.592-2.931 1.546-3.853 2.863-.132.263-.363.757-.692 1.48-.33.725-.692 1.482-1.087 2.272-.395.79-.757 1.58-1.087 2.37-.329.789-.56 1.316-.691 1.579-1.45 2.37-2.898 3.785-4.347 4.245-1.45.461-2.7.692-3.755.692-.395 0-1.086-.033-2.074-.1a46.093 46.093 0 0 0-3.063-.098c-1.054 0-2.075-.033-3.063-.099-.988-.065-1.68-.098-2.075-.098h-1.976c-.922 0-1.91.033-2.963.098a49.161 49.161 0 0 1-3.063.1h-2.075c-.395 0-1.35-.034-2.865-.1-1.515-.065-2.47-.098-2.865-.098-.527 0-1.68.065-3.458.197-1.779.132-2.931.198-3.458.198-.395 0-1.12-.066-2.174-.198-1.054-.132-2.14-.46-3.26-.987-1.12-.527-2.14-1.35-3.063-2.469-.922-1.119-1.383-2.665-1.383-4.64Zm76.075-83.924c-1.054 0-1.91.33-2.57.988-.658.658-1.382 2.04-2.173 4.147-.527 1.184-.922 2.238-1.185 3.16-.264.92-.725 2.961-1.384 6.12a80.901 80.901 0 0 0-.691 2.271 92.481 92.481 0 0 0-.988 3.654c-.33 1.316-.626 2.534-.89 3.653-.263 1.119-.394 1.941-.394 2.468 0 2.501 1.185 4.081 3.556 4.74a9.589 9.589 0 0 0 1.877.197h4.644c.263 0 1.02.033 2.272.098 1.252.066 2.075.1 2.47.1 3.557 0 5.335-1.383 5.335-4.148 0-.526-.131-1.316-.395-2.37a21.757 21.757 0 0 1-.593-2.665 14.998 14.998 0 0 0-.592-2.468 26.628 26.628 0 0 1-.593-3.16 26.628 26.628 0 0 0-.593-3.16 23.484 23.484 0 0 1-.692-1.974 23.484 23.484 0 0 0-.691-1.975 29.075 29.075 0 0 1-.988-3.16 29.075 29.075 0 0 0-.988-3.159 28.946 28.946 0 0 0-.988-2.172c-.395-.79-1.317-1.185-2.766-1.185Zm126.066-11.058c0-.395-.033-1.184-.099-2.37a679.124 679.124 0 0 1-.198-3.751 679.12 679.12 0 0 0-.197-3.752 52.305 52.305 0 0 1-.099-2.567c-.132-.527-.165-1.711-.099-3.554.066-1.844.099-3.094.099-3.752 0-.395-.099-1.317-.296-2.765-.198-1.448-.297-2.435-.297-2.962 0-4.344.856-7.24 2.569-8.688 1.712-1.449 4.413-2.173 8.101-2.173.264 0 .824.033 1.68.1.856.065 1.745.098 2.668.098.922 0 1.778.033 2.568.099.79.065 1.383.098 1.779.098h1.68c.855 0 1.745-.033 2.667-.098a36.236 36.236 0 0 1 2.568-.1h6.422c1.515 0 3.063-.13 4.644-.394.395-.132.922-.197 1.58-.197.396-.132 1.483-.165 3.261-.1 1.778.067 2.931.1 3.458.1.395 0 .988.032 1.778.098s1.713.099 2.767.099c.922.132 1.81.23 2.667.296.856.066 1.416.099 1.68.099h8.101c.659 0 2.009.066 4.05.197 2.043.132 3.393.198 4.052.198.527 0 1.514-.066 2.964-.198l4.347-.395a79.769 79.769 0 0 1 8.101-.394c1.186 0 2.602.065 4.248.197 1.647.132 3.26.56 4.841 1.284 1.581.724 2.899 1.908 3.952 3.554 1.054 1.645 1.581 3.916 1.581 6.813v1.678c0 .856-.033 1.744-.099 2.666a36.165 36.165 0 0 0-.098 2.567v1.777c0 .132.033.592.098 1.382.066.79.1 1.646.1 2.567 0 .922.032 1.81.098 2.666.066.856.099 1.415.099 1.679.132.395.23 1.184.296 2.37.066 1.184.099 1.974.099 2.369 0 .658-.132 1.547-.395 2.666-.264 1.119-.395 1.744-.395 1.876-.66 1.711-1.976 2.929-3.952 3.653-1.976.724-3.557 1.152-4.743 1.283-.658.132-2.041.198-4.15.198h-4.149c-.263 0-.823.033-1.68.098-.855.066-1.778.132-2.766.198s-1.91.132-2.766.197c-.856.066-1.482.1-1.877.1-.527 0-1.416-.067-2.668-.198a68.612 68.612 0 0 0-4.05-.297 76.855 76.855 0 0 1-4.15-.296c-1.317-.131-2.24-.197-2.766-.197-1.581 0-2.767.23-3.557.691-.79.46-1.383.954-1.778 1.481-.395.527-.626 1.086-.692 1.678-.066.593-.099.955-.099 1.086 0 1.317.297 2.304.89 2.962a5.732 5.732 0 0 0 2.074 1.481c.79.33 1.614.527 2.47.593a27.33 27.33 0 0 0 1.877.099c.659 0 2.01-.066 4.051-.198 2.042-.131 3.392-.197 4.05-.197 1.845 0 3.623.066 5.336.197a69.43 69.43 0 0 0 5.335.198h3.162a65.935 65.935 0 0 0 3.556-.494 21.613 21.613 0 0 1 3.557-.296c1.976 0 3.458.296 4.446.888.988.593 1.745 1.317 2.272 2.172.527.856.824 1.745.89 2.666.065.922.098 1.712.098 2.37 0 .395-.033 1.35-.099 2.863-.065 1.514-.098 2.534-.098 3.06 0 .527.065 1.548.197 3.062.132 1.514.198 2.468.198 2.863v3.16c0 .658.099 1.941.296 3.85.198 1.909.297 3.192.297 3.85 0 2.633-.626 4.641-1.878 6.023-1.251 1.383-2.008 2.205-2.272 2.469-1.449 1.184-2.898 1.876-4.347 2.073-1.45.198-3.82.296-7.113.296-.527 0-1.647.066-3.36.198-1.712.131-2.898.197-3.556.197-.396 0-1.219-.033-2.47-.099-1.252-.065-2.075-.098-2.47-.098-2.767 0-4.973.033-6.62.098-1.646.066-2.964.198-3.952.395-.988.198-1.712.395-2.173.593-.461.197-.89.362-1.285.493-1.844 1.054-3.062 2.666-3.655 4.838-.593 2.173-.89 3.917-.89 5.233 0 1.053.067 2.04.198 2.962.132.922.198 1.843.198 2.765.263 1.58.395 3.126.395 4.64v10.763c0 .394.099 1.349.297 2.863.197 1.513.296 2.468.296 2.863 0 1.053-.23 2.106-.692 3.16-.46 1.052-.757 1.645-.889 1.776-.263.395-.889.955-1.877 1.679-.988.724-2.075 1.086-3.26 1.086-.396 0-1.35-.066-2.865-.197-1.515-.132-2.536-.198-3.063-.198-.395 0-1.153.033-2.273.099a60.73 60.73 0 0 1-3.556.099c-1.252 0-2.47.032-3.656.098-1.185.066-1.976.099-2.371.099s-1.054-.033-1.976-.099a43.294 43.294 0 0 0-3.063-.098c-1.12 0-2.173-.033-3.161-.1-.988-.065-1.68-.098-2.075-.098-.395 0-1.02.033-1.877.099-.856.066-1.811.131-2.865.197-1.054.066-2.042.132-2.964.198-.922.066-1.581.098-1.976.098-2.24 0-4.347-.427-6.323-1.283-1.976-.856-3.294-2.403-3.952-4.64-.264-.659-.395-1.91-.395-3.752v-2.962c0-1.843.098-3.752.296-5.727.198-1.975.296-3.883.296-5.726 0-.395-.033-1.087-.098-2.074a47.585 47.585 0 0 1-.1-3.16c0-1.118-.032-2.172-.098-3.159-.066-.987-.099-1.678-.099-2.073 0-.527.033-1.547.099-3.061s.165-3.094.296-4.74c.132-1.645.23-3.192.297-4.64.066-1.448.099-2.5.099-3.16a96.45 96.45 0 0 0-.593-10.662 171.11 171.11 0 0 1-.395-11.651c0-1.185.065-3.258.197-6.22.132-2.962.297-6.089.494-9.38.198-3.29.362-6.417.494-9.38.132-2.961.198-5.035.198-6.22Zm104.33 35.742c0-.79.033-1.613.1-2.468.065-.856.164-1.679.296-2.469.263-1.448.56-2.863.889-4.245.33-1.383.56-2.798.691-4.246a20.08 20.08 0 0 0 .396-3.95c0-1.316.131-2.632.395-3.949.132-.921.593-2.402 1.383-4.443.79-2.04 1.647-4.08 2.569-6.121.922-2.04 1.745-3.85 2.47-5.43.724-1.58 1.086-2.436 1.086-2.567.132-.132.396-.527.79-1.185.396-.658.89-1.448 1.483-2.37.593-.921 1.152-1.81 1.68-2.666.526-.855.922-1.48 1.185-1.876.263-.263.757-.724 1.482-1.382a88.897 88.897 0 0 1 2.371-2.073 82.905 82.905 0 0 0 2.47-2.172 61.307 61.307 0 0 0 1.58-1.481c1.45-1.449 3.492-3.324 6.126-5.628 2.635-2.304 5.665-4.246 9.09-5.825.395-.132 1.416-.527 3.062-1.185a149.647 149.647 0 0 1 5.237-1.975c1.844-.658 3.556-1.25 5.137-1.777 1.581-.527 2.503-.79 2.767-.79a32.007 32.007 0 0 1 2.865-.592c.856-.132 1.811-.33 2.865-.593a68.951 68.951 0 0 1 2.173-.395 66.57 66.57 0 0 0 2.174-.395c.263 0 .988-.033 2.174-.098 1.185-.066 2.437-.132 3.754-.198 1.317-.066 2.503-.132 3.557-.197 1.053-.066 1.712-.1 1.976-.1 0 0 1.02.067 3.062.198 2.042.132 4.413.297 7.114.494 2.7.197 5.368.46 8.002.79 2.635.329 4.545.691 5.73 1.086.396.132 1.22.428 2.47.889 1.252.46 2.635.987 4.15 1.58 1.515.592 2.964 1.184 4.347 1.777 1.383.592 2.404 1.02 3.063 1.283.79.395 1.548.823 2.272 1.284.725.46 1.482.888 2.273 1.283a19.787 19.787 0 0 0 3.655 1.58c1.252.395 2.404.921 3.458 1.58 3.03 1.58 5.17 3.027 6.422 4.344 1.251 1.316 2.272 2.501 3.063 3.554.395.527.823 1.02 1.284 1.481.461.461.89.955 1.285 1.481.922.922 1.646 1.712 2.173 2.37.527.658 1.021 1.283 1.482 1.876a46.35 46.35 0 0 1 1.383 1.876c.461.658 1.021 1.58 1.68 2.764a197.65 197.65 0 0 1 1.877 3.061c.593.987 1.218 2.008 1.877 3.06a38.184 38.184 0 0 1 1.778 3.16c.527 1.053.923 1.91 1.186 2.567.395.922.692 1.876.89 2.864.197.987.427 2.007.69 3.06a91.794 91.794 0 0 0 1.285 3.95 29.39 29.39 0 0 1 1.087 3.949c0 .395.066 1.02.198 1.876.131.856.23 1.843.296 2.962l.198 3.357a50.56 50.56 0 0 1 .098 2.863v1.58a9.2 9.2 0 0 1-.197 1.777 65.507 65.507 0 0 1-.494 3.258 18.727 18.727 0 0 0-.297 3.258v5.53c0 .394-.066 1.053-.197 1.974a72.396 72.396 0 0 1-.395 3.555c-.132.921-.33 1.777-.593 2.567-.264.79-.626 1.678-1.087 2.665-.461.988-1.02 2.271-1.68 3.851a55.88 55.88 0 0 0-1.383 2.962 19.528 19.528 0 0 0-.988 2.962l-.79 2.765a23.18 23.18 0 0 1-.988 2.764l-.89 1.679c-.592 1.119-1.415 2.468-2.47 4.048-1.053 1.58-2.304 3.258-3.754 5.035a25.364 25.364 0 0 1-4.94 4.64 11.18 11.18 0 0 1-2.47 1.58 11.18 11.18 0 0 0-2.47 1.58c-.658.395-1.25.823-1.778 1.284-.527.46-1.12.954-1.778 1.48-2.635 2.239-5.796 3.884-9.485 4.937l-2.766.79c-.922.263-1.844.593-2.766.987a12.326 12.326 0 0 0-2.866 1.087 23.32 23.32 0 0 1-2.865 1.283c-.922.263-1.778.46-2.568.592-.79.132-1.647.33-2.57.593a71.307 71.307 0 0 0-3.16.691c-.791.197-1.549.33-2.273.395-.725.066-1.482.164-2.272.296-.79.132-1.779.263-2.964.395-.659 0-1.35.066-2.075.198-.725.131-1.482.197-2.272.197h-7.51c-.394 0-1.02-.033-1.876-.099-.856-.066-1.779-.131-2.767-.197s-1.91-.132-2.766-.198a27.408 27.408 0 0 0-1.877-.098h-6.916c-1.844-.132-3.853-.33-6.027-.593-2.173-.263-4.116-.724-5.829-1.382a28.983 28.983 0 0 1-2.173-.987 28.983 28.983 0 0 0-2.174-.988 39.025 39.025 0 0 0-2.964-.987 23.215 23.215 0 0 1-2.766-.987 13.948 13.948 0 0 1-2.272-.988 58.247 58.247 0 0 1-2.075-1.185 67.899 67.899 0 0 1-2.273-1.58 43.907 43.907 0 0 1-2.272-1.776l-3.557-2.37a59.034 59.034 0 0 0-2.37-1.876 20.24 20.24 0 0 1-2.174-1.876c-1.581-1.448-2.931-2.863-4.051-4.245a406.243 406.243 0 0 0-3.656-4.443 5.271 5.271 0 0 0-.988-1.383l-1.185-1.185a58.035 58.035 0 0 1-3.36-3.653 37.672 37.672 0 0 1-2.963-4.048 7.958 7.958 0 0 1-.692-1.283 13.92 13.92 0 0 1-.593-1.778 41.325 41.325 0 0 0-.889-2.764c-.395-1.119-.856-2.666-1.383-4.64a174.325 174.325 0 0 0-1.58-5.233 31.97 31.97 0 0 1-1.186-5.233v-5.332c0-.526-.066-1.711-.198-3.554-.132-1.843-.198-3.094-.198-3.752Zm77.063-24.684c-2.371 0-4.545.395-6.52 1.185l-1.977 1.185-1.976 1.185a19.787 19.787 0 0 1-3.655 1.58c-1.252.395-2.404 1.053-3.458 1.974-.79.659-1.383 1.284-1.778 1.876-.396.593-1.186 2.008-2.372 4.246-1.053 2.106-1.844 3.785-2.37 5.035-.528 1.25-.791 2.798-.791 4.64 0 1.054.165 2.37.494 3.95.33 1.58.889 3.094 1.68 4.542a12.53 12.53 0 0 0 1.383 1.876c.526.592.988 1.217 1.383 1.876.395.526.856 1.316 1.383 2.37.395.526 1.054 1.184 1.976 1.974.922.79 1.976 1.58 3.161 2.37a19.32 19.32 0 0 0 3.854 1.974c1.383.527 2.733.79 4.05.79.395 0 1.252.033 2.569.099s2.174.098 2.569.098c.131 0 .625-.032 1.482-.098a74.924 74.924 0 0 0 2.964-.296c1.12-.132 2.14-.264 3.062-.395.923-.132 1.45-.198 1.581-.198 3.03-.658 5.335-1.909 6.916-3.752a20.417 20.417 0 0 0 1.68-1.876 20.417 20.417 0 0 1 1.68-1.876c.394-.395.987-.855 1.778-1.382.922-.921 1.943-2.501 3.062-4.74a15.678 15.678 0 0 0 1.68-7.108c0-.921-.165-2.073-.494-3.456a34.577 34.577 0 0 0-1.186-3.949c-.46-1.25-.889-2.37-1.284-3.357-.395-.987-.659-1.612-.79-1.876-1.054-1.843-2.57-3.39-4.545-4.64-1.976-1.25-3.491-2.074-4.545-2.469a4.882 4.882 0 0 0-1.58-.493 4.882 4.882 0 0 1-1.581-.494l-1.976-.79-1.976-.79c-1.581-.526-3.425-.79-5.533-.79Zm83.385 24.684c0-.79.033-1.613.1-2.468.065-.856.164-1.679.296-2.469.263-1.448.56-2.863.889-4.245.33-1.383.56-2.798.691-4.246a20.08 20.08 0 0 0 .396-3.95c0-1.316.131-2.632.395-3.949.132-.921.593-2.402 1.383-4.443.79-2.04 1.647-4.08 2.569-6.121.922-2.04 1.745-3.85 2.47-5.43.724-1.58 1.086-2.436 1.086-2.567.132-.132.396-.527.79-1.185.396-.658.89-1.448 1.483-2.37.593-.921 1.152-1.81 1.68-2.666.526-.855.921-1.48 1.185-1.876.263-.263.757-.724 1.482-1.382a88.895 88.895 0 0 1 2.371-2.073 82.906 82.906 0 0 0 2.47-2.172 61.307 61.307 0 0 0 1.58-1.481c1.45-1.449 3.492-3.324 6.126-5.628 2.635-2.304 5.665-4.246 9.09-5.825.395-.132 1.416-.527 3.062-1.185a149.649 149.649 0 0 1 5.237-1.975c1.844-.658 3.556-1.25 5.137-1.777 1.581-.527 2.503-.79 2.767-.79a32.007 32.007 0 0 1 2.865-.592c.856-.132 1.811-.33 2.865-.593a68.952 68.952 0 0 1 2.173-.395 66.57 66.57 0 0 0 2.174-.395c.263 0 .988-.033 2.174-.098 1.185-.066 2.437-.132 3.754-.198 1.317-.066 2.503-.132 3.557-.197 1.053-.066 1.712-.1 1.976-.1 0 0 1.02.067 3.062.198 2.042.132 4.413.297 7.114.494 2.7.197 5.368.46 8.002.79 2.635.329 4.545.691 5.73 1.086.396.132 1.22.428 2.47.889 1.252.46 2.635.987 4.15 1.58 1.515.592 2.964 1.184 4.347 1.777 1.383.592 2.404 1.02 3.063 1.283.79.395 1.548.823 2.272 1.284.725.46 1.482.888 2.273 1.283a19.787 19.787 0 0 0 3.655 1.58c1.252.395 2.404.921 3.458 1.58 3.03 1.58 5.17 3.027 6.422 4.344 1.251 1.316 2.272 2.501 3.063 3.554.395.527.823 1.02 1.284 1.481.461.461.89.955 1.284 1.481.923.922 1.647 1.712 2.174 2.37.527.658 1.02 1.283 1.482 1.876a46.35 46.35 0 0 1 1.383 1.876c.461.658 1.021 1.58 1.68 2.764a197.659 197.659 0 0 1 1.877 3.061c.593.987 1.218 2.008 1.877 3.06a38.184 38.184 0 0 1 1.778 3.16c.527 1.053.923 1.91 1.186 2.567.395.922.692 1.876.89 2.864.197.987.427 2.007.69 3.06a91.794 91.794 0 0 0 1.285 3.95 29.39 29.39 0 0 1 1.087 3.949c0 .395.066 1.02.198 1.876.131.856.23 1.843.296 2.962l.198 3.357a50.56 50.56 0 0 1 .098 2.863v1.58a9.2 9.2 0 0 1-.197 1.777 65.507 65.507 0 0 1-.494 3.258 18.727 18.727 0 0 0-.297 3.258v5.53c0 .394-.066 1.053-.197 1.974a72.395 72.395 0 0 1-.395 3.555c-.132.921-.33 1.777-.593 2.567-.264.79-.626 1.678-1.087 2.665-.461.988-1.02 2.271-1.68 3.851a55.88 55.88 0 0 0-1.383 2.962 19.528 19.528 0 0 0-.988 2.962l-.79 2.765a23.18 23.18 0 0 1-.988 2.764l-.89 1.679c-.592 1.119-1.415 2.468-2.47 4.048-1.053 1.58-2.305 3.258-3.754 5.035a25.364 25.364 0 0 1-4.94 4.64 11.18 11.18 0 0 1-2.47 1.58 11.18 11.18 0 0 0-2.47 1.58c-.658.395-1.25.823-1.778 1.284-.527.46-1.12.954-1.778 1.48-2.635 2.239-5.796 3.884-9.485 4.937l-2.766.79c-.922.263-1.844.593-2.766.987a12.326 12.326 0 0 0-2.866 1.087 23.32 23.32 0 0 1-2.865 1.283c-.922.263-1.778.46-2.568.592-.79.132-1.647.33-2.57.593a71.307 71.307 0 0 0-3.16.691c-.791.197-1.549.33-2.273.395-.725.066-1.482.164-2.272.296-.79.132-1.779.263-2.964.395-.659 0-1.35.066-2.075.198-.725.131-1.482.197-2.272.197h-7.51c-.394 0-1.02-.033-1.876-.099-.857-.066-1.779-.131-2.767-.197a273.04 273.04 0 0 1-2.766-.198 27.408 27.408 0 0 0-1.877-.098h-6.916c-1.844-.132-3.853-.33-6.027-.593-2.173-.263-4.116-.724-5.829-1.382a28.983 28.983 0 0 1-2.173-.987 28.983 28.983 0 0 0-2.174-.988 39.025 39.025 0 0 0-2.964-.987 23.215 23.215 0 0 1-2.766-.987 13.948 13.948 0 0 1-2.273-.988 58.245 58.245 0 0 1-2.074-1.185 67.898 67.898 0 0 1-2.273-1.58 43.907 43.907 0 0 1-2.272-1.776l-3.557-2.37a59.034 59.034 0 0 0-2.37-1.876 20.24 20.24 0 0 1-2.174-1.876c-1.581-1.448-2.931-2.863-4.051-4.245a406.244 406.244 0 0 0-3.656-4.443 5.271 5.271 0 0 0-.988-1.383l-1.185-1.185a58.035 58.035 0 0 1-3.36-3.653 37.672 37.672 0 0 1-2.963-4.048 7.958 7.958 0 0 1-.692-1.283 13.92 13.92 0 0 1-.593-1.778 41.325 41.325 0 0 0-.889-2.764c-.395-1.119-.856-2.666-1.383-4.64a174.325 174.325 0 0 0-1.58-5.233 31.97 31.97 0 0 1-1.186-5.233v-5.332c0-.526-.066-1.711-.198-3.554-.132-1.843-.198-3.094-.198-3.752Zm77.063-24.684c-2.371 0-4.545.395-6.52 1.185l-1.977 1.185-1.976 1.185a19.787 19.787 0 0 1-3.655 1.58c-1.252.395-2.404 1.053-3.458 1.974-.79.659-1.383 1.284-1.779 1.876-.395.593-1.185 2.008-2.37 4.246-1.055 2.106-1.845 3.785-2.372 5.035-.527 1.25-.79 2.798-.79 4.64 0 1.054.164 2.37.494 3.95.33 1.58.889 3.094 1.68 4.542a12.53 12.53 0 0 0 1.383 1.876c.526.592.988 1.217 1.383 1.876.395.526.856 1.316 1.383 2.37.395.526 1.054 1.184 1.976 1.974.922.79 1.976 1.58 3.161 2.37a19.32 19.32 0 0 0 3.853 1.974c1.384.527 2.734.79 4.051.79.395 0 1.252.033 2.569.099s2.174.098 2.569.098c.131 0 .625-.032 1.482-.098a74.924 74.924 0 0 0 2.964-.296c1.12-.132 2.14-.264 3.062-.395.922-.132 1.45-.198 1.581-.198 3.03-.658 5.335-1.909 6.916-3.752a20.417 20.417 0 0 0 1.68-1.876 20.417 20.417 0 0 1 1.68-1.876c.394-.395.987-.855 1.777-1.382.923-.921 1.944-2.501 3.063-4.74a15.678 15.678 0 0 0 1.68-7.108c0-.921-.165-2.073-.494-3.456a34.577 34.577 0 0 0-1.186-3.949c-.46-1.25-.889-2.37-1.284-3.357-.395-.987-.659-1.612-.79-1.876-1.054-1.843-2.57-3.39-4.545-4.64-1.976-1.25-3.491-2.074-4.545-2.469a4.882 4.882 0 0 0-1.58-.493 4.882 4.882 0 0 1-1.581-.494l-1.976-.79-1.976-.79c-1.581-.526-3.425-.79-5.533-.79Zm88.72 27.843v-5.529c0-2.238.033-4.541.1-6.911.065-2.37.131-4.673.197-6.911.066-2.238.165-4.081.296-5.53.264-3.027.428-4.97.494-5.825.066-.855.1-1.81.1-2.863 0-.527-.034-1.514-.1-2.962a135.482 135.482 0 0 0-.296-4.64c-.132-1.646-.23-3.193-.297-4.641a78.102 78.102 0 0 1-.098-3.16c0-.394.033-1.02.098-1.875.066-.856.132-1.778.198-2.765.066-.987.132-1.909.198-2.764.066-.856.098-1.481.098-1.876 0-.264-.032-.922-.098-1.975s-.1-1.711-.1-1.975c0-1.316.166-2.731.495-4.245.33-1.514.89-2.93 1.68-4.246.79-1.316 1.877-2.435 3.26-3.357 1.383-.921 3.194-1.382 5.434-1.382.527 0 1.515.066 2.964.197 1.449.132 2.964.23 4.544.297a82.65 82.65 0 0 1 4.446.296c1.383.131 2.404.197 3.063.197.527 0 1.416-.066 2.668-.197 1.251-.132 2.568-.263 3.951-.395 1.384-.132 2.7-.263 3.952-.395 1.252-.132 2.141-.197 2.668-.197 3.161 0 5.697.329 7.607.987 1.91.658 3.36 1.645 4.347 2.962.988 1.316 1.647 2.863 1.976 4.64.33 1.778.494 3.72.494 5.826-.131 1.448-.164 3.29-.098 5.529.065 2.238.098 4.278.098 6.121v3.16c0 .658.033 1.941.1 3.85.065 1.91.098 3.193.098 3.85v1.383a56.267 56.267 0 0 1-.593 4.937 56.266 56.266 0 0 0-.593 4.936v1.975c0 .527.033 1.415.1 2.666.065 1.25.098 2.633.098 4.147 0 1.514.033 2.929.099 4.245.066 1.317.099 2.238.099 2.765v1.777c0 .921-.033 1.876-.1 2.863a41.69 41.69 0 0 0-.098 2.765v1.876c0 1.843.132 3.719.395 5.628.264 1.908.922 3.455 1.976 4.64 1.713 1.711 3.755 2.567 6.126 2.567.395 0 1.054-.033 1.976-.099a47.108 47.108 0 0 0 2.865-.296c.988-.132 1.877-.23 2.667-.296.79-.066 1.318-.099 1.581-.099 1.054 0 2.108.099 3.162.296 1.053.198 2.107.297 3.161.297.264 0 .89-.066 1.877-.198.988-.132 1.68-.197 2.075-.197 1.844 0 3.425.428 4.742 1.283 1.318.856 2.372 1.876 3.162 3.06a14.39 14.39 0 0 1 1.778 3.654c.395 1.25.593 2.27.593 3.06 0 .659-.066 1.35-.198 2.074a12.67 12.67 0 0 0-.197 2.271c-.132.658-.23 1.646-.297 2.962a85.251 85.251 0 0 0-.098 4.246v10.762c0 .921.131 1.908.395 2.962 0 .921.066 1.81.197 2.665.132.856.198 1.745.198 2.666l-.198 2.074c-.131 1.382-.526 2.863-1.185 4.443-.659 1.58-1.68 3.027-3.063 4.344-1.383 1.316-3.26 1.975-5.631 1.975-.396 0-1.153-.066-2.273-.198a54.9 54.9 0 0 0-3.655-.296 62.196 62.196 0 0 1-3.755-.296c-1.185-.132-2.041-.198-2.568-.198-1.845 0-3.722.099-5.632.296-1.91.198-3.787.362-5.631.494a96.99 96.99 0 0 1-6.422.198h-4.446c-.527 0-1.811-.033-3.853-.1-2.042-.065-3.392-.098-4.05-.098h-2.57c-.395 0-1.317-.066-2.766-.197-1.449-.132-2.437-.198-2.964-.198h-3.952c-1.317 0-2.634.066-3.952.198-1.58.131-3.161.296-4.742.493-1.58.198-3.227.296-4.94.296-3.03 0-5.4-.427-7.113-1.283-1.713-.856-2.964-1.942-3.755-3.258-.79-1.317-1.284-2.666-1.482-4.048-.197-1.383-.296-2.6-.296-3.653-.132-.527-.165-1.712-.099-3.555.066-1.843.165-3.094.296-3.752 0-.526-.032-1.645-.098-3.357-.066-1.711-.1-2.83-.1-3.357 0-.526.034-1.415.1-2.665.066-1.251.098-2.633.098-4.147 0-1.514.033-2.93.1-4.246.065-1.316.098-2.238.098-2.764v-2.074c0-.724-.066-1.415-.198-2.073 0-.79-.065-2.14-.197-4.048-.132-1.909-.23-3.95-.297-6.122a171.835 171.835 0 0 0-.296-6.22c-.132-1.975-.197-3.357-.197-4.147Zm139.108 28.436c-.263 0-1.087-.033-2.47-.1-1.383-.065-2.272-.098-2.667-.098-.659 0-1.384.033-2.174.099s-1.515.099-2.174.099c-.263 0-1.053-.066-2.37-.198-1.318-.132-2.174-.197-2.57-.197-.263 0-.724.033-1.383.098-.658.066-1.12.1-1.383.1-.263 0-.757.065-1.482.197-.724.131-1.218.197-1.482.197-1.58 0-2.667-.132-3.26-.395a8.642 8.642 0 0 1-1.68-.987c-1.317-1.053-2.272-2.107-2.865-3.16-.593-1.053-.955-3.16-1.087-6.319a588.17 588.17 0 0 0-.395-9.577 96.806 96.806 0 0 0-.592-7.01 341.48 341.48 0 0 1-.79-5.924 341.58 341.58 0 0 0-.791-5.924 13.486 13.486 0 0 1-.297-3.653 22.37 22.37 0 0 0-.098-3.653 60.975 60.975 0 0 1-.297-2.863 60.96 60.96 0 0 0-.296-2.864v-2.37c0-.79-.066-1.579-.198-2.369a38.762 38.762 0 0 0-.395-5.529c-.132-1.185-.23-2.14-.296-2.863l-.198-2.172a24.562 24.562 0 0 0-.296-2.173 78.894 78.894 0 0 0-.593-2.863 175.187 175.187 0 0 1-.692-5.43 49.112 49.112 0 0 1-.296-5.43c0-2.238.099-4.114.296-5.628.198-1.514.428-2.732.692-3.653.658-1.843 1.251-3.259 1.778-4.246a15.652 15.652 0 0 1 1.779-2.666c.395-.526.757-.888 1.086-1.086.33-.197 1.021-.625 2.075-1.283.395-.264.758-.527 1.087-.79.33-.264.757-.527 1.284-.79.264-.132.692-.296 1.285-.494.592-.197 1.68-.296 3.26-.296.79 0 1.614.033 2.47.099.856.066 1.68.098 2.47.098 1.449.132 3.095.23 4.94.297 1.844.066 3.622.131 5.335.197 1.712.066 3.128.099 4.248.099h1.877c.395 0 1.054-.033 1.976-.099a41.63 41.63 0 0 1 2.964-.099 24.712 24.712 0 0 1 3.063-.197h2.075c3.82 0 6.652.757 8.496 2.27 1.845 1.515 3.491 3.39 4.94 5.629.79 1.316 1.548 2.995 2.273 5.035.724 2.04 1.086 5.496 1.086 10.367 0 6.319-.658 12.375-1.976 18.167a408.082 408.082 0 0 0-1.877 7.405 40.179 40.179 0 0 0-1.087 7.405c-.131.527-.197 1.25-.197 2.172v15.995c0 .263-.033 1.119-.099 2.567-.066 1.448-.165 3.06-.296 4.838a162.89 162.89 0 0 0-.297 4.937c-.066 1.514-.099 2.468-.099 2.863-.263 1.448-.395 2.501-.395 3.16v4.146c0 .658-.066 1.086-.197 1.284-.132.197-.396.625-.79 1.283a55.251 55.251 0 0 1-1.78 2.37 6.166 6.166 0 0 1-1.876 1.58c-.725.395-1.647.658-2.767.79-1.12.131-2.601.197-4.445.197-.527 0-1.68-.099-3.458-.296-1.779-.198-2.931-.296-3.458-.296h-2.174Zm20.748 19.549c.131.526.263 1.678.395 3.455.132 1.778.197 2.732.197 2.864v.79c0 .263-.131.79-.395 1.58-.395 2.369-.823 3.949-1.284 4.739-.461.79-1.482 1.513-3.063 2.172-1.317.526-2.338.822-3.063.888-.724.066-2.206.099-4.445.099-.396 0-1.318-.033-2.767-.099-1.449-.066-2.437-.098-2.964-.098-.395 0-1.383.065-2.964.197-1.58.132-2.634.197-3.161.197-.527 0-1.581-.065-3.162-.197-1.58-.132-2.634-.197-3.161-.197-.264 0-.725.032-1.383.098-.66.066-1.12.099-1.384.099-.131 0-.46-.033-.988-.099a10.49 10.49 0 0 0-1.185-.098c-.264 0-.692.032-1.285.098-.592.066-1.02.099-1.284.099-.659 0-1.416-.033-2.272-.099a28.187 28.187 0 0 1-2.47-.296c-.395 0-1.021-.099-1.877-.296a10.311 10.311 0 0 1-2.57-.987c-.855-.461-1.613-1.12-2.272-1.975-.658-.856-.988-2.008-.988-3.456 0-.395.033-1.218.1-2.468.065-1.25.098-2.008.098-2.271 0-.658-.066-1.942-.198-3.85-.131-1.91-.197-3.193-.197-3.851 0-2.107.033-3.489.099-4.147.066-.658.164-1.25.296-1.777.264-.658.89-1.613 1.877-2.864.988-1.25 2.668-1.875 5.039-1.875a28.558 28.558 0 0 1 4.742.394h2.569c.659 0 1.91.066 3.754.198 1.845.132 3.096.197 3.755.197.395 0 1.053-.032 1.976-.098a41.63 41.63 0 0 1 2.964-.099c1.053 0 2.041-.033 2.963-.099a31.707 31.707 0 0 1 1.976-.099c.396 0 1.384.033 2.964.1 1.581.065 2.635.098 3.162.098.395 0 1.317-.066 2.766-.198 1.45-.131 2.437-.197 2.964-.197 1.318 0 2.7.395 4.15 1.185 1.449.79 2.173 2.501 2.173 5.134 0 .263-.033.954-.099 2.073-.065 1.12-.098 1.81-.098 2.074v2.962ZM467.71 436.007c0-2.764.691-5.529 2.075-8.293 1.383-2.765 3.787-4.147 7.212-4.147.658 0 1.35.033 2.075.099.724.066 1.416.164 2.074.296h2.371c1.318 0 2.7.033 4.15.099 1.449.066 2.832.098 4.15.098h4.149c.79 0 1.712-.065 2.766-.197h4.347c1.976 0 3.59.132 4.842.395 1.251.263 2.404.658 3.457 1.185 2.24 1.316 3.557 2.929 3.952 4.838.396 1.909.593 4.838.593 8.787 0 .527-.033 1.678-.099 3.456-.065 1.777-.098 2.995-.098 3.653v15.205c0 .79.033 1.612.098 2.468.066.856.1 1.679.1 2.468v1.778c0 1.184-.067 2.106-.198 2.764-.132.922-.363 1.975-.692 3.16a73.12 73.12 0 0 1-1.087 3.554c-.395 1.185-.823 2.205-1.284 3.06-.461.856-.758 1.482-.89 1.877a7.718 7.718 0 0 1-1.086 1.876 18.84 18.84 0 0 0-1.284 1.876c-.264.526-.527 1.02-.79 1.48a29.42 29.42 0 0 0-.791 1.482 9.002 9.002 0 0 1-2.569 2.665c-1.054.724-2.766 1.086-5.137 1.086-.527 0-1.68-.098-3.458-.296-1.779-.197-2.931-.296-3.458-.296-.396 0-1.285.033-2.668.099-1.383.066-2.272.098-2.667.098-1.318 0-2.141-.032-2.47-.098a3.528 3.528 0 0 1-.89-.296c-.263-.264-.625-.757-1.086-1.481-.461-.724-.692-1.35-.692-1.876 0-.132.165-.955.494-2.469.33-1.514.823-3.126 1.482-4.838l1.482-2.962c.725-1.448 1.087-2.5 1.087-3.16 0-.657-.461-1.645-1.383-2.961-.923-1.317-2.306-1.975-4.15-1.975-.263 0-.79.033-1.58.099-.791.066-1.318.099-1.581.099-1.054 0-2.405-.132-4.051-.395-1.647-.264-2.8-.724-3.458-1.383-1.45-.921-2.305-2.37-2.569-4.344-.263-1.974-.395-4.147-.395-6.516 0-.527.033-1.81.099-3.85.066-2.041.099-3.39.099-4.049v-2.172c0-.922-.132-2.238-.396-3.95a39.64 39.64 0 0 1-.197-3.949v-4.147Z"/><g filter="url(#a)" transform="translate(4 -30)">

<path fill="url(#b)" stroke="#262D3D" stroke-linecap="round" stroke-width="5" d="M23.925 0H146.54c13.213 0 23.925 10.712 23.925 23.925v120.156a82.5 82.5 0 0 1-12.33 43.386l-23.988 38.795a82.5 82.5 0 0 0-11.235 29.995l-4.002 24.328h0-67.355l-4.733-25.573a82.5 82.5 0 0 0-10.593-27.787L11.97 187.252A82.5 82.5 0 0 1 0 144.452V23.924C0 10.712 10.712 0 23.925 0Z" transform="rotate(135 121.015 208.408)"/>

<path fill="#FFF" stroke="#262D3D" stroke-linecap="round" stroke-width="5" d="m285.025 255.102-67.882 67.882a1.65 1.65 0 0 1-2.334 0l-42.965-42.966a16.5 16.5 0 0 1-3.98-16.902l5.561-16.624a55.631 55.631 0 0 1 35.108-35.108l16.624-5.561a16.5 16.5 0 0 1 16.903 3.98l42.965 42.965a1.65 1.65 0 0 1 0 2.334Z"/>

<path fill="#262D3D" d="m162.471 137.236-60.853 60.854-5.836-5.836 60.854-60.853z"/>

<path fill="#DEE7ED" stroke="#262D3D" stroke-linecap="round" stroke-width="5" d="m123.955 103.394-56.18 56.18a1.65 1.65 0 0 1-2.333 0L37.43 131.56a8.25 8.25 0 0 1 0-11.667l46.846-46.846a8.25 8.25 0 0 1 11.667 0l28.012 28.012a1.65 1.65 0 0 1 0 2.334Z"/>

<path stroke="#FA8498" stroke-linecap="round" stroke-width="5" d="m231.116 362.696-86.215-86.216a49.5 49.5 0 0 1-12.884-22.46l-14.04-53.615h0"/>

<path stroke="#BF1531" stroke-linecap="round" stroke-width="5" d="m325.907 267.905-86.216-86.216a49.5 49.5 0 0 0-22.46-12.883l-53.615-14.041h0"/>

<path stroke="#FFF" stroke-linecap="round" stroke-width="5" d="M66.64 137.366 53.802 124.53"/>

<path stroke="#FA8498" stroke-linecap="round" stroke-width="5" d="m136.76 137.272-35.107 35.107"/>

<path stroke="#C8D7E0" stroke-linecap="round" stroke-width="5" d="M101.748 102.259 88.91 89.42"/>

<path fill="url(#c)" stroke="#262D3D" stroke-linecap="round" stroke-width="5" d="M23.925 0H146.54c13.213 0 23.925 10.712 23.925 23.925v146.672a66.335 66.335 0 0 1-22.452 49.745l-.397.35a82.5 82.5 0 0 0-26.828 48.476l-1.878 11.417h0-67.355l-2.378-12.848a82.5 82.5 0 0 0-25.973-46.344l-1.168-1.05A66.468 66.468 0 0 1 0 170.907V23.925C0 10.712 10.712 0 23.925 0Z" transform="rotate(-150 284.553 158.977)"/>

<path fill="#C8D7E0" stroke="#262D3D" stroke-linecap="round" stroke-width="5" d="m430.087 399.89-83.138-48a1.65 1.65 0 0 1-.604-2.253l60.069-104.043a16.5 16.5 0 0 1 17.61-7.912l10.629 2.184h0l1.498-.746c15.626-7.78 34.601-1.418 42.38 14.208a31.607 31.607 0 0 1 3.294 12.99h0l8.632 9.719a16.5 16.5 0 0 1 1.953 19.207l-60.069 104.042a1.65 1.65 0 0 1-2.254.604Z"/>

<path fill="#262D3D" d="m530.373 219.56-74.53-43.03 4.126-7.147 74.53 43.03z"/>

<path fill="#DEE7ED" stroke="#262D3D" stroke-linecap="round" stroke-width="5" d="m553.093 173.598-68.805-39.725a1.65 1.65 0 0 1-.604-2.254L503.49 97.31a8.25 8.25 0 0 1 11.27-3.02l57.374 33.125a8.25 8.25 0 0 1 3.02 11.27l-19.808 34.308a1.65 1.65 0 0 1-2.254.604Z"/>

<path stroke="#906456" stroke-linecap="round" stroke-width="5" d="m330.362 344.22 60.964-105.592a49.5 49.5 0 0 1 18.361-18.258l48.153-27.44h0"/>

<path stroke="#4D3027" stroke-linecap="round" stroke-width="5" d="m446.457 411.247 60.964-105.592a49.5 49.5 0 0 0 6.63-25.03l-.313-55.422h0"/>

<path stroke="#FFF" stroke-linecap="round" stroke-width="5" d="m505.444 127.028 9.078-15.722"/>

<path stroke="#906456" stroke-linecap="round" stroke-width="5" d="m523.684 194.735-42.998-24.825"/>

<path stroke="#C8D7E0" stroke-linecap="round" stroke-width="5" d="m548.442 151.853 9.078-15.722"/>

<path fill="url(#d)" stroke="#262D3D" stroke-linecap="round" stroke-linejoin="round" stroke-width="5" d="M24.146 0h100.177c13.336 0 24.146 10.81 24.146 24.146v172.848a40.244 40.244 0 0 1-8.537 24.784l-26.163 33.47a8.049 8.049 0 0 1-6.341 3.092H35.65a8.049 8.049 0 0 1-6.719-3.618L6.649 220.938A40.244 40.244 0 0 1 0 198.78V24.146C0 10.811 10.81 0 24.146 0Z" transform="rotate(140 369.187 277.558)"/>

<path fill="#D8D8D8" stroke="#262D3D" stroke-linecap="round" stroke-linejoin="round" stroke-width="5" d="m625.179 87.843-35.384 29.69-33.764-56.508a8.049 8.049 0 0 1 1.736-10.294l7.186-6.03a8.049 8.049 0 0 1 10.44.079l49.786 43.063h0Z"/>

<path fill="#262D3D" d="m702.409 100.323-113.734 95.434-5.305-6.322 113.734-95.434z"/>

<path stroke="#FFF" stroke-linecap="round" stroke-width="5" d="m597.431 90.705-25.457-30.34"/>

<path stroke="#FBE7A7" stroke-linecap="round" stroke-width="5" d="M721.21 316.492 617.238 192.586"/>

<path stroke="#DBAF42" stroke-linecap="round" stroke-width="5" d="m797.031 252.87-103.97-123.907m-28.824-25.368-22.84-6.69"/>

<path stroke="#FBE7A7" stroke-linecap="round" stroke-width="5" d="m598.965 158.365-1.306-23.761"/><g stroke-linecap="round" stroke-width="5">

<path fill="url(#e)" stroke="#262D3D" d="M23.869 0h74.337a16.5 16.5 0 0 1 16.032 12.601c5.225 21.488 7.837 42.976 7.837 64.464 0 24.39-3.366 48.782-10.097 73.172-.8 2.896-1.52 5.814-2.161 8.75l-25.394 116.49a67.389 67.389 0 0 0-1.547 14.354v3.96a3.3 3.3 0 0 1-3.3 3.3H42.498a3.3 3.3 0 0 1-3.3-3.3v-3.96c0-4.826-.518-9.638-1.546-14.353L12.258 158.986a164.844 164.844 0 0 0-2.161-8.749C3.366 125.847 0 101.456 0 77.065 0 55.577 2.612 34.089 7.836 12.6A16.5 16.5 0 0 1 23.87 0Z" transform="rotate(-160 470.173 160.93)"/>

<path fill="url(#f)" stroke="#262D3D" d="M107.974 169.036 84.77 275.478a67.389 67.389 0 0 0-1.546 14.353v3.96a3.3 3.3 0 0 1-3.3 3.3H42.846a3.3 3.3 0 0 1-3.3-3.3v-3.96c0-4.826-.518-9.638-1.546-14.353L14.797 169.036c-1.94-8.903 3.703-17.695 12.607-19.636.215-.046.432-.09.649-.127 8.98-1.585 20.09-2.378 33.332-2.378s24.353.793 33.333 2.378c8.974 1.582 14.966 10.14 13.384 19.115a17.66 17.66 0 0 1-.128.648Z" transform="rotate(-160 470.173 160.93)"/>

<path fill="url(#g)" stroke="#262D3D" d="M41.342 300.392c.62 13.075.62 22.244 0 27.508-.432 3.676-1.384 7.29-2.855 10.841a3.3 3.3 0 0 0 3.046 4.564H79.81a3.3 3.3 0 0 0 3.113-4.386c-.901-2.594-1.632-6.267-2.19-11.02-1.065-9.04-1.065-18.21 0-27.507" transform="rotate(-160 470.173 160.93)"/>

<path stroke="#FA8498" d="m906.285 158.955 5.645-15.51m-25.178 42.651 16.276 5.924"/>

<path stroke="#A07C71" d="m771.628 425.222 67.432 24.544"/>

<path stroke="#F6C54E" d="M827.72 283.169a22.136 22.136 0 0 0 10.683 8.28l33.168 12.071a22.136 22.136 0 0 0 13.505.525h0"/></g><g transform="scale(-1 1) rotate(20 -659.33 -2907.534)">

<path fill="url(#h)" stroke="#262D3D" stroke-linecap="round" stroke-width="5" d="M85.232 64.26c47.009 0 87.696 48.258 85.116 107.787-1.799 41.527-19.632 77.569-46.211 95.57 1.31.624 2.616 1.31 3.911 2.054 18.505 10.63 27.732 29.198 20.61 41.473-7.123 12.274-27.898 13.608-46.403 2.978-7.154-4.11-12.922-9.408-16.894-15.069-3.971 5.661-9.739 10.958-16.894 15.069-18.505 10.63-39.28 9.296-46.402-2.978-7.123-12.275 2.105-30.843 20.61-41.473a58.61 58.61 0 0 1 3.76-1.984C19.797 249.712 1.918 213.63.116 172.047-2.463 112.517 38.224 64.26 85.232 64.26Z"/>

<path fill="url(#i)" stroke="#262D3D" stroke-linecap="round" stroke-width="5" d="M54.234 0h61.996c.711 0 1.287.576 1.287 1.287v56.538a6.435 6.435 0 0 1-6.435 6.435h-51.7a6.435 6.435 0 0 1-6.435-6.435V1.287c0-.71.577-1.287 1.287-1.287Z" transform="matrix(1 0 0 -1 0 64.26)"/>

<path stroke="#637384" stroke-linecap="round" stroke-width="5" d="M34.868 146.512c6.887 4.284 12.053 6.426 15.497 6.426 3.443 0 8.609-2.142 15.496-6.426m38.742 0c6.888 4.284 12.053 6.426 15.497 6.426 3.444 0 8.61-2.142 15.497-6.426m-96.855 38.556c6.887 4.284 12.053 6.426 15.497 6.426 3.444 0 8.61-2.142 15.497-6.426m30.993 0c6.888 4.284 12.053 6.426 15.497 6.426 3.444 0 8.61-2.142 15.497-6.426m-90.398 38.555c6.887 4.284 12.053 6.426 15.497 6.426 3.443 0 8.609-2.142 15.496-6.426m25.828 0c6.888 4.284 12.053 6.426 15.497 6.426 3.444 0 8.61-2.142 15.497-6.426"/><ellipse cx="111.06" cy="109.241" fill="#637384" rx="12.914" ry="12.852"/>

<path stroke="#BF1531" stroke-linecap="round" stroke-width="5" d="M69.51 14.829V49.43"/>

<path stroke="#FA8498" stroke-linecap="round" stroke-width="5" d="M101.782 14.829V49.43"/></g>

<path fill="url(#j)" stroke="#262D3D" stroke-linecap="round" stroke-linejoin="round" stroke-width="8.1" d="M23.707 0h98.586C135.386 0 146 10.614 146 23.707V193.33a39.508 39.508 0 0 1-8.405 24.362l-25.722 32.844a7.902 7.902 0 0 1-6.222 3.03H35.047a7.902 7.902 0 0 1-6.593-3.546L6.547 216.868A39.512 39.512 0 0 1 0 195.084V23.707C0 10.614 10.614 0 23.707 0Z" transform="rotate(-160 646.408 74.8)"/>

<path fill="#D8D8D8" stroke="#262D3D" stroke-linecap="round" stroke-linejoin="round" stroke-width="8.1" d="m1267.718 110.7-42.683-15.535 31.482-56.426a7.902 7.902 0 0 1 9.604-3.575l8.692 3.164a7.902 7.902 0 0 1 5.058 8.912l-12.153 63.46h0Z"/>

<path fill="#262D3D" d="m1295.1 182.504-137.195-49.935 2.77-7.611 137.195 49.935z"/>

<path stroke="#FFF" stroke-linecap="round" stroke-width="8.1" d="m1251.628 88.504 13.295-36.528"/>

<path stroke="#FFFDF8" stroke-linecap="round" stroke-width="8.1" d="m1120.361 304.494 54.3-149.186"/>

<path stroke="#E0CA94" stroke-linecap="round" stroke-width="8.1" d="m1211.825 337.784 54.3-149.186m7.407-36.955-5.546-22.706"/>

<path stroke="#FFFDF8" stroke-linecap="round" stroke-width="8.1" d="m1194.794 122.985 19.58-12.76"/></g></g></svg>